0
SECTION
2
HEADER
999
DXF File Generated by LightWave 3D(TM)
0
ENDSEC
0
SECTION
2
TABLES
0
ENDSEC
0
SECTION
2
BLOCKS
0
ENDSEC
0
SECTION
2
ENTITIES
0
3DFACE
8
0
70
0
10
-1.052671
20
0.703173
30
2.919435
11
-1.052671
21
0.703173
31
2.583435
12
-0.859006
22
0.703173
32
2.843376
13
-0.859006
23
0.703173
33
2.843376
0
3DFACE
8
0
70
0
10
-0.859006
20
0.703173
30
2.843376
11
-1.052671
21
0.703173
31
2.583435
12
-0.859006
22
0.703173
32
2.579179
13
-0.859006
23
0.703173
33
2.579179
0
3DFACE
8
0
70
0
10
-1.052671
20
0.703173
30
2.919435
11
-1.477557
21
0.703173
31
2.919435
12
-1.052671
22
0.703173
32
2.583435
13
-1.052671
23
0.703173
33
2.583435
0
3DFACE
8
0
70
0
10
-1.477557
20
0.703173
30
2.919435
11
-1.477557
21
0.703173
31
2.583435
12
-1.052671
22
0.703173
32
2.583435
13
-1.052671
23
0.703173
33
2.583435
0
3DFACE
8
0
70
0
10
-1.052671
20
0.703173
30
2.583435
11
-1.052671
21
0.703173
31
2.331435
12
-0.859006
22
0.703173
32
2.579179
13
-0.859006
23
0.703173
33
2.579179
0
3DFACE
8
0
70
0
10
-0.859006
20
0.703173
30
2.579179
11
-1.052671
21
0.703173
31
2.331435
12
-0.760695
22
0.703173
32
2.331435
13
-0.760695
23
0.703173
33
2.331435
0
3DFACE
8
0
70
0
10
-1.052671
20
0.703173
30
2.583435
11
-1.477557
21
0.703173
31
2.583435
12
-1.052671
22
0.703173
32
2.331435
13
-1.052671
23
0.703173
33
2.331435
0
3DFACE
8
0
70
0
10
-1.477557
20
0.703173
30
2.583435
11
-1.477557
21
0.703173
31
2.331435
12
-1.052671
22
0.703173
32
2.331435
13
-1.052671
23
0.703173
33
2.331435
0
3DFACE
8
0
70
0
10
-0.760695
20
0.703173
30
2.331435
11
-1.052671
21
0.703173
31
2.331435
12
-0.861986
22
0.703173
32
2.076183
13
-0.861986
23
0.703173
33
2.076183
0
3DFACE
8
0
70
0
10
-1.052671
20
0.703173
30
2.331435
11
-1.052671
21
0.703173
31
2.079435
12
-0.861986
22
0.703173
32
2.076183
13
-0.861986
23
0.703173
33
2.076183
0
3DFACE
8
0
70
0
10
-1.052671
20
0.703173
30
2.331435
11
-1.477557
21
0.703173
31
2.331435
12
-1.052671
22
0.703173
32
2.079435
13
-1.052671
23
0.703173
33
2.079435
0
3DFACE
8
0
70
0
10
-1.477557
20
0.703173
30
2.331435
11
-1.477557
21
0.703173
31
2.079435
12
-1.052671
22
0.703173
32
2.079435
13
-1.052671
23
0.703173
33
2.079435
0
3DFACE
8
0
70
0
10
-0.367775
20
0.708581
30
-5.206710
11
-0.648878
21
0.708581
31
-6.147992
12
0.022319
22
0.708581
32
-6.147992
13
0.022319
23
0.708581
33
-6.147992
0
3DFACE
8
0
70
0
10
0.475677
20
0.708581
30
-5.196185
11
-0.367775
21
0.708581
31
-5.206710
12
0.022319
22
0.708581
32
-6.147992
13
0.022319
23
0.708581
33
-6.147992
0
3DFACE
8
0
70
0
10
-0.367775
20
0.708581
30
-4.968716
11
-0.367775
21
0.708581
31
-5.206710
12
0.475677
22
0.708581
32
-5.196185
13
0.475677
23
0.708581
33
-5.196185
0
3DFACE
8
0
70
0
10
-0.367775
20
0.708581
30
-4.968716
11
0.475677
21
0.708581
31
-5.196185
12
0.475677
22
0.708581
32
-4.972050
13
0.475677
23
0.708581
33
-4.972050
0
3DFACE
8
0
70
0
10
-0.247652
20
0.708581
30
-2.266172
11
-0.367775
21
0.708581
31
-4.968716
12
0.475677
22
0.708581
32
-4.972050
13
0.475677
23
0.708581
33
-4.972050
0
3DFACE
8
0
70
0
10
-0.609081
20
0.708581
30
-2.158343
11
-0.367775
21
0.708581
31
-4.968716
12
-0.247652
22
0.708581
32
-2.266172
13
-0.247652
23
0.708581
33
-2.266172
0
3DFACE
8
0
70
0
10
-0.527721
20
0.782492
30
-1.688622
11
-0.973900
21
0.782492
31
-1.688622
12
-0.527721
22
0.782492
32
-2.043596
13
-0.527721
23
0.782492
33
-2.043596
0
3DFACE
8
0
70
0
10
-0.973900
20
0.782492
30
-1.160333
11
-0.973900
21
0.782492
31
-1.688622
12
-0.527721
22
0.782492
32
-1.170588
13
-0.527721
23
0.782492
33
-1.170588
0
3DFACE
8
0
70
0
10
-0.527721
20
0.782492
30
-1.170588
11
-0.973900
21
0.782492
31
-1.688622
12
-0.527721
22
0.782492
32
-1.688622
13
-0.527721
23
0.782492
33
-1.688622
0
3DFACE
8
0
70
0
10
-1.052671
20
0.703173
30
-0.953954
11
-0.973900
21
0.782492
31
-1.160333
12
-0.659006
22
0.703173
32
-0.962568
13
-0.659006
23
0.703173
33
-0.962568
0
3DFACE
8
0
70
0
10
-0.659006
20
0.703173
30
-0.962568
11
-0.973900
21
0.782492
31
-1.160333
12
-0.527721
22
0.782492
32
-1.170588
13
-0.527721
23
0.782492
33
-1.170588
0
3DFACE
8
0
70
0
10
-1.052671
20
0.703173
30
-0.678192
11
-1.052671
21
0.703173
31
-0.953954
12
-0.659006
22
0.703173
32
-0.683899
13
-0.659006
23
0.703173
33
-0.683899
0
3DFACE
8
0
70
0
10
-0.659006
20
0.703173
30
-0.683899
11
-1.052671
21
0.703173
31
-0.953954
12
-0.659006
22
0.703173
32
-0.962568
13
-0.659006
23
0.703173
33
-0.962568
0
3DFACE
8
0
70
0
10
-0.815963
20
0.703173
30
-0.395347
11
-1.052671
21
0.703173
31
-0.402429
12
-1.052671
22
0.703173
32
-0.678192
13
-1.052671
23
0.703173
33
-0.678192
0
3DFACE
8
0
70
0
10
-0.815963
20
0.703173
30
-0.395347
11
-1.052671
21
0.703173
31
-0.678192
12
-0.659006
22
0.703173
32
-0.683899
13
-0.659006
23
0.703173
33
-0.683899
0
3DFACE
8
0
70
0
10
-1.052671
20
0.703173
30
-0.126666
11
-1.052671
21
0.703173
31
-0.402429
12
-0.815963
22
0.703173
32
-0.395347
13
-0.815963
23
0.703173
33
-0.395347
0
3DFACE
8
0
70
0
10
-1.052671
20
0.703173
30
-0.126666
11
-0.815963
21
0.703173
31
-0.395347
12
-0.663605
22
0.703173
32
-0.285890
13
-0.663605
23
0.703173
33
-0.285890
0
3DFACE
8
0
70
0
10
-1.052671
20
0.703173
30
0.149097
11
-1.052671
21
0.703173
31
-0.126666
12
-0.761017
22
0.703173
32
-0.017266
13
-0.761017
23
0.703173
33
-0.017266
0
3DFACE
8
0
70
0
10
-0.761017
20
0.703173
30
-0.017266
11
-1.052671
21
0.703173
31
-0.126666
12
-0.663605
22
0.703173
32
-0.285890
13
-0.663605
23
0.703173
33
-0.285890
0
3DFACE
8
0
70
0
10
-0.663422
20
0.703173
30
0.169883
11
-1.052671
21
0.703173
31
0.149097
12
-0.761017
22
0.703173
32
-0.017266
13
-0.761017
23
0.703173
33
-0.017266
0
3DFACE
8
0
70
0
10
-1.052671
20
0.703173
30
0.424859
11
-1.052671
21
0.703173
31
0.149097
12
-0.663422
22
0.703173
32
0.169883
13
-0.663422
23
0.703173
33
0.169883
0
3DFACE
8
0
70
0
10
-1.052671
20
0.703173
30
0.700622
11
-1.052671
21
0.703173
31
0.424859
12
-0.944691
22
0.703173
32
0.598608
13
-0.944691
23
0.703173
33
0.598608
0
3DFACE
8
0
70
0
10
-0.944691
20
0.703173
30
0.598608
11
-1.052671
21
0.703173
31
0.424859
12
-0.663422
22
0.703173
32
0.169883
13
-0.663422
23
0.703173
33
0.169883
0
3DFACE
8
0
70
0
10
-1.052671
20
0.703173
30
0.976385
11
-1.052671
21
0.703173
31
0.700622
12
-0.859891
22
0.703173
32
0.974919
13
-0.859891
23
0.703173
33
0.974919
0
3DFACE
8
0
70
0
10
-0.859891
20
0.703173
30
0.974919
11
-1.052671
21
0.703173
31
0.700622
12
-0.944691
22
0.703173
32
0.598608
13
-0.944691
23
0.703173
33
0.598608
0
3DFACE
8
0
70
0
10
-0.961730
20
0.703173
30
1.255752
11
-1.052671
21
0.703173
31
1.252147
12
-1.052671
22
0.703173
32
0.976385
13
-1.052671
23
0.703173
33
0.976385
0
3DFACE
8
0
70
0
10
-0.961730
20
0.703173
30
1.255752
11
-1.052671
21
0.703173
31
0.976385
12
-0.859891
22
0.703173
32
0.974919
13
-0.859891
23
0.703173
33
0.974919
0
3DFACE
8
0
70
0
10
-1.052671
20
0.703173
30
1.527910
11
-1.052671
21
0.703173
31
1.252147
12
-0.961730
22
0.703173
32
1.255752
13
-0.961730
23
0.703173
33
1.255752
0
3DFACE
8
0
70
0
10
-0.756502
20
0.703173
30
1.538724
11
-1.052671
21
0.703173
31
1.527910
12
-0.961730
22
0.703173
32
1.255752
13
-0.961730
23
0.703173
33
1.255752
0
3DFACE
8
0
70
0
10
-1.052671
20
0.703173
30
1.803673
11
-1.052671
21
0.703173
31
1.527910
12
-0.756502
22
0.703173
32
1.538724
13
-0.756502
23
0.703173
33
1.538724
0
3DFACE
8
0
70
0
10
-1.052671
20
0.703173
30
1.803673
11
-0.756502
21
0.703173
31
1.538724
12
-0.661730
22
0.703173
32
1.800068
13
-0.661730
23
0.703173
33
1.800068
0
3DFACE
8
0
70
0
10
-1.052671
20
0.703173
30
2.079435
11
-1.052671
21
0.703173
31
1.803673
12
-0.861986
22
0.703173
32
2.076183
13
-0.861986
23
0.703173
33
2.076183
0
3DFACE
8
0
70
0
10
-0.861986
20
0.703173
30
2.076183
11
-1.052671
21
0.703173
31
1.803673
12
-0.661730
22
0.703173
32
1.800068
13
-0.661730
23
0.703173
33
1.800068
0
3DFACE
8
0
70
0
10
-0.973900
20
0.782492
30
-1.688622
11
-1.451300
21
0.782492
31
-1.688622
12
-1.451300
22
0.782492
32
-2.016911
13
-1.451300
23
0.782492
33
-2.016911
0
3DFACE
8
0
70
0
10
-0.973900
20
0.782492
30
-1.688622
11
-1.451300
21
0.782492
31
-2.016911
12
-0.527721
22
0.782492
32
-2.043596
13
-0.527721
23
0.782492
33
-2.043596
0
3DFACE
8
0
70
0
10
-0.973900
20
0.782492
30
-1.160333
11
-1.451300
21
0.782492
31
-1.160333
12
-1.451300
22
0.782492
32
-1.688622
13
-1.451300
23
0.782492
33
-1.688622
0
3DFACE
8
0
70
0
10
-0.973900
20
0.782492
30
-1.160333
11
-1.451300
21
0.782492
31
-1.688622
12
-0.973900
22
0.782492
32
-1.688622
13
-0.973900
23
0.782492
33
-1.688622
0
3DFACE
8
0
70
0
10
-1.052671
20
0.703173
30
-0.953954
11
-1.477557
21
0.703173
31
-0.953954
12
-1.451300
22
0.782492
32
-1.160333
13
-1.451300
23
0.782492
33
-1.160333
0
3DFACE
8
0
70
0
10
-1.052671
20
0.703173
30
-0.953954
11
-1.451300
21
0.782492
31
-1.160333
12
-0.973900
22
0.782492
32
-1.160333
13
-0.973900
23
0.782492
33
-1.160333
0
3DFACE
8
0
70
0
10
-1.052671
20
0.703173
30
-0.678192
11
-1.477557
21
0.703173
31
-0.678192
12
-1.477557
22
0.703173
32
-0.953954
13
-1.477557
23
0.703173
33
-0.953954
0
3DFACE
8
0
70
0
10
-1.052671
20
0.703173
30
-0.678192
11
-1.477557
21
0.703173
31
-0.953954
12
-1.052671
22
0.703173
32
-0.953954
13
-1.052671
23
0.703173
33
-0.953954
0
3DFACE
8
0
70
0
10
-1.052671
20
0.703173
30
-0.402429
11
-1.477557
21
0.703173
31
-0.402429
12
-1.477557
22
0.703173
32
-0.678192
13
-1.477557
23
0.703173
33
-0.678192
0
3DFACE
8
0
70
0
10
-1.052671
20
0.703173
30
-0.402429
11
-1.477557
21
0.703173
31
-0.678192
12
-1.052671
22
0.703173
32
-0.678192
13
-1.052671
23
0.703173
33
-0.678192
0
3DFACE
8
0
70
0
10
-1.052671
20
0.703173
30
-0.126666
11
-1.477557
21
0.703173
31
-0.126666
12
-1.477557
22
0.703173
32
-0.402429
13
-1.477557
23
0.703173
33
-0.402429
0
3DFACE
8
0
70
0
10
-1.052671
20
0.703173
30
-0.126666
11
-1.477557
21
0.703173
31
-0.402429
12
-1.052671
22
0.703173
32
-0.402429
13
-1.052671
23
0.703173
33
-0.402429
0
3DFACE
8
0
70
0
10
-1.052671
20
0.703173
30
0.149097
11
-1.477557
21
0.703173
31
0.149097
12
-1.477557
22
0.703173
32
-0.126666
13
-1.477557
23
0.703173
33
-0.126666
0
3DFACE
8
0
70
0
10
-1.052671
20
0.703173
30
0.149097
11
-1.477557
21
0.703173
31
-0.126666
12
-1.052671
22
0.703173
32
-0.126666
13
-1.052671
23
0.703173
33
-0.126666
0
3DFACE
8
0
70
0
10
-1.052671
20
0.703173
30
0.424859
11
-1.477557
21
0.703173
31
0.424859
12
-1.477557
22
0.703173
32
0.149097
13
-1.477557
23
0.703173
33
0.149097
0
3DFACE
8
0
70
0
10
-1.052671
20
0.703173
30
0.424859
11
-1.477557
21
0.703173
31
0.149097
12
-1.052671
22
0.703173
32
0.149097
13
-1.052671
23
0.703173
33
0.149097
0
3DFACE
8
0
70
0
10
-1.052671
20
0.703173
30
0.700622
11
-1.477557
21
0.703173
31
0.700622
12
-1.477557
22
0.703173
32
0.424859
13
-1.477557
23
0.703173
33
0.424859
0
3DFACE
8
0
70
0
10
-1.052671
20
0.703173
30
0.700622
11
-1.477557
21
0.703173
31
0.424859
12
-1.052671
22
0.703173
32
0.424859
13
-1.052671
23
0.703173
33
0.424859
0
3DFACE
8
0
70
0
10
-1.052671
20
0.703173
30
0.976385
11
-1.477557
21
0.703173
31
0.976385
12
-1.477557
22
0.703173
32
0.700622
13
-1.477557
23
0.703173
33
0.700622
0
3DFACE
8
0
70
0
10
-1.052671
20
0.703173
30
0.976385
11
-1.477557
21
0.703173
31
0.700622
12
-1.052671
22
0.703173
32
0.700622
13
-1.052671
23
0.703173
33
0.700622
0
3DFACE
8
0
70
0
10
-1.052671
20
0.703173
30
1.252147
11
-1.477557
21
0.703173
31
1.252147
12
-1.477557
22
0.703173
32
0.976385
13
-1.477557
23
0.703173
33
0.976385
0
3DFACE
8
0
70
0
10
-1.052671
20
0.703173
30
1.252147
11
-1.477557
21
0.703173
31
0.976385
12
-1.052671
22
0.703173
32
0.976385
13
-1.052671
23
0.703173
33
0.976385
0
3DFACE
8
0
70
0
10
-1.052671
20
0.703173
30
1.527910
11
-1.477557
21
0.703173
31
1.527910
12
-1.477557
22
0.703173
32
1.252147
13
-1.477557
23
0.703173
33
1.252147
0
3DFACE
8
0
70
0
10
-1.052671
20
0.703173
30
1.527910
11
-1.477557
21
0.703173
31
1.252147
12
-1.052671
22
0.703173
32
1.252147
13
-1.052671
23
0.703173
33
1.252147
0
3DFACE
8
0
70
0
10
-1.052671
20
0.703173
30
1.803673
11
-1.477557
21
0.703173
31
1.803673
12
-1.477557
22
0.703173
32
1.527910
13
-1.477557
23
0.703173
33
1.527910
0
3DFACE
8
0
70
0
10
-1.052671
20
0.703173
30
1.803673
11
-1.477557
21
0.703173
31
1.527910
12
-1.052671
22
0.703173
32
1.527910
13
-1.052671
23
0.703173
33
1.527910
0
3DFACE
8
0
70
0
10
-1.052671
20
0.703173
30
2.079435
11
-1.477557
21
0.703173
31
2.079435
12
-1.477557
22
0.703173
32
1.803673
13
-1.477557
23
0.703173
33
1.803673
0
3DFACE
8
0
70
0
10
-1.052671
20
0.703173
30
2.079435
11
-1.477557
21
0.703173
31
1.803673
12
-1.052671
22
0.703173
32
1.803673
13
-1.052671
23
0.703173
33
1.803673
0
3DFACE
8
0
70
0
10
-1.451300
20
0.782492
30
-1.688622
11
-1.928700
21
0.782492
31
-1.688622
12
-1.928700
22
0.782492
32
-2.016911
13
-1.928700
23
0.782492
33
-2.016911
0
3DFACE
8
0
70
0
10
-1.451300
20
0.782492
30
-1.688622
11
-1.928700
21
0.782492
31
-2.016911
12
-1.451300
22
0.782492
32
-2.016911
13
-1.451300
23
0.782492
33
-2.016911
0
3DFACE
8
0
70
0
10
-1.451300
20
0.782492
30
-1.160333
11
-1.928700
21
0.782492
31
-1.160333
12
-1.928700
22
0.782492
32
-1.688622
13
-1.928700
23
0.782492
33
-1.688622
0
3DFACE
8
0
70
0
10
-1.451300
20
0.782492
30
-1.160333
11
-1.928700
21
0.782492
31
-1.688622
12
-1.451300
22
0.782492
32
-1.688622
13
-1.451300
23
0.782492
33
-1.688622
0
3DFACE
8
0
70
0
10
-1.477557
20
0.703173
30
-0.953954
11
-1.902443
21
0.703173
31
-0.953954
12
-1.928700
22
0.782492
32
-1.160333
13
-1.928700
23
0.782492
33
-1.160333
0
3DFACE
8
0
70
0
10
-1.477557
20
0.703173
30
-0.953954
11
-1.928700
21
0.782492
31
-1.160333
12
-1.451300
22
0.782492
32
-1.160333
13
-1.451300
23
0.782492
33
-1.160333
0
3DFACE
8
0
70
0
10
-3.855677
20
0.708581
30
-5.196185
11
-3.402320
21
0.708581
31
-6.147992
12
-3.012225
22
0.708581
32
-5.206710
13
-3.012225
23
0.708581
33
-5.206710
0
3DFACE
8
0
70
0
10
-3.012225
20
0.708581
30
-5.206710
11
-3.402320
21
0.708581
31
-6.147992
12
-2.731122
22
0.708581
32
-6.147992
13
-2.731122
23
0.708581
33
-6.147992
0
3DFACE
8
0
70
0
10
-3.012225
20
0.708581
30
-4.968716
11
-3.855677
21
0.708581
31
-4.972050
12
-3.855677
22
0.708581
32
-5.196185
13
-3.855677
23
0.708581
33
-5.196185
0
3DFACE
8
0
70
0
10
-3.012225
20
0.708581
30
-4.968716
11
-3.855677
21
0.708581
31
-5.196185
12
-3.012225
22
0.708581
32
-5.206710
13
-3.012225
23
0.708581
33
-5.206710
0
3DFACE
8
0
70
0
10
-3.132349
20
0.708581
30
-2.266172
11
-3.855677
21
0.708581
31
-4.972050
12
-3.012225
22
0.708581
32
-4.968716
13
-3.012225
23
0.708581
33
-4.968716
0
3DFACE
8
0
70
0
10
-2.770919
20
0.708581
30
-2.158343
11
-3.132349
21
0.708581
31
-2.266172
12
-3.012225
22
0.708581
32
-4.968716
13
-3.012225
23
0.708581
33
-4.968716
0
3DFACE
8
0
70
0
10
-0.827785
20
0.685689
30
2.583435
11
-0.859006
21
0.703173
31
2.579179
12
-0.760695
22
0.703173
32
2.331435
13
-0.760695
23
0.703173
33
2.331435
0
3DFACE
8
0
70
0
10
-0.827785
20
0.685689
30
2.583435
11
-0.760695
21
0.703173
31
2.331435
12
-0.727785
22
0.685689
32
2.331435
13
-0.727785
23
0.685689
33
2.331435
0
3DFACE
8
0
70
0
10
-0.827785
20
0.685689
30
2.079435
11
-0.760695
21
0.703173
31
2.331435
12
-0.861986
22
0.703173
32
2.076183
13
-0.861986
23
0.703173
33
2.076183
0
3DFACE
8
0
70
0
10
-0.727785
20
0.685689
30
2.331435
11
-0.760695
21
0.703173
31
2.331435
12
-0.827785
22
0.685689
32
2.079435
13
-0.827785
23
0.685689
33
2.079435
0
3DFACE
8
0
70
0
10
-0.570514
20
0.751270
30
-6.363493
11
0.151204
21
0.782492
31
-6.317982
12
-0.570514
22
0.782492
32
-6.317982
13
-0.570514
23
0.782492
33
-6.317982
0
3DFACE
8
0
70
0
10
0.175810
20
0.751270
30
-6.363493
11
0.151204
21
0.782492
31
-6.317982
12
-0.570514
22
0.751270
32
-6.363493
13
-0.570514
23
0.751270
33
-6.363493
0
3DFACE
8
0
70
0
10
0.679579
20
0.751270
30
-5.305851
11
0.638685
21
0.782492
31
-5.294534
12
0.151204
22
0.782492
32
-6.317982
13
0.151204
23
0.782492
33
-6.317982
0
3DFACE
8
0
70
0
10
0.679579
20
0.751270
30
-5.305851
11
0.151204
21
0.782492
31
-6.317982
12
0.175810
22
0.751270
32
-6.363493
13
0.175810
23
0.751270
33
-6.363493
0
3DFACE
8
0
70
0
10
0.679579
20
0.751270
30
-5.049943
11
0.638685
21
0.782492
31
-5.053529
12
0.638685
22
0.782492
32
-5.294534
13
0.638685
23
0.782492
33
-5.294534
0
3DFACE
8
0
70
0
10
0.679579
20
0.751270
30
-5.049943
11
0.638685
21
0.782492
31
-5.294534
12
0.679579
22
0.751270
32
-5.305851
13
0.679579
23
0.751270
33
-5.305851
0
3DFACE
8
0
70
0
10
-0.496500
20
0.751270
30
-2.016911
11
-0.527721
21
0.782492
31
-2.043596
12
-0.139088
22
0.782492
32
-2.139437
13
-0.139088
23
0.782492
33
-2.139437
0
3DFACE
8
0
70
0
10
-0.496500
20
0.751270
30
-2.016911
11
-0.139088
21
0.782492
31
-2.139437
12
-0.108805
22
0.751270
32
-2.108582
13
-0.108805
23
0.751270
33
-2.108582
0
3DFACE
8
0
70
0
10
0.679579
20
0.751270
30
-5.049943
11
-0.139088
21
0.782492
31
-2.139437
12
0.638685
22
0.782492
32
-5.053529
13
0.638685
23
0.782492
33
-5.053529
0
3DFACE
8
0
70
0
10
-0.108805
20
0.751270
30
-2.108582
11
-0.139088
21
0.782492
31
-2.139437
12
0.679579
22
0.751270
32
-5.049943
13
0.679579
23
0.751270
33
-5.049943
0
3DFACE
8
0
70
0
10
-0.496500
20
0.751270
30
-2.016911
11
-0.527721
21
0.782492
31
-1.688622
12
-0.527721
22
0.782492
32
-2.043596
13
-0.527721
23
0.782492
33
-2.043596
0
3DFACE
8
0
70
0
10
-0.496500
20
0.751270
30
-1.688622
11
-0.527721
21
0.782492
31
-1.688622
12
-0.496500
22
0.751270
32
-2.016911
13
-0.496500
23
0.751270
33
-2.016911
0
3DFACE
8
0
70
0
10
-0.496500
20
0.751270
30
-1.688622
11
-0.527721
21
0.782492
31
-1.170588
12
-0.527721
22
0.782492
32
-1.688622
13
-0.527721
23
0.782492
33
-1.688622
0
3DFACE
8
0
70
0
10
-0.496500
20
0.751270
30
-1.160333
11
-0.527721
21
0.782492
31
-1.170588
12
-0.496500
22
0.751270
32
-1.688622
13
-0.496500
23
0.751270
33
-1.688622
0
3DFACE
8
0
70
0
10
-0.627785
20
0.685689
30
-0.953954
11
-0.659006
21
0.703173
31
-0.962568
12
-0.527721
22
0.782492
32
-1.170588
13
-0.527721
23
0.782492
33
-1.170588
0
3DFACE
8
0
70
0
10
-0.627785
20
0.685689
30
-0.953954
11
-0.527721
21
0.782492
31
-1.170588
12
-0.496500
22
0.751270
32
-1.160333
13
-0.496500
23
0.751270
33
-1.160333
0
3DFACE
8
0
70
0
10
-0.627785
20
0.685689
30
-0.953954
11
-0.659006
21
0.703173
31
-0.683899
12
-0.659006
22
0.703173
32
-0.962568
13
-0.659006
23
0.703173
33
-0.962568
0
3DFACE
8
0
70
0
10
-0.627785
20
0.685689
30
-0.678192
11
-0.659006
21
0.703173
31
-0.683899
12
-0.627785
22
0.685689
32
-0.953954
13
-0.627785
23
0.685689
33
-0.953954
0
3DFACE
8
0
70
0
10
-0.777785
20
0.685689
30
-0.402429
11
-0.815963
21
0.703173
31
-0.395347
12
-0.659006
22
0.703173
32
-0.683899
13
-0.659006
23
0.703173
33
-0.683899
0
3DFACE
8
0
70
0
10
-0.777785
20
0.685689
30
-0.402429
11
-0.659006
21
0.703173
31
-0.683899
12
-0.627785
22
0.685689
32
-0.678192
13
-0.627785
23
0.685689
33
-0.678192
0
3DFACE
8
0
70
0
10
-0.777785
20
0.685689
30
-0.402429
11
-0.663605
21
0.703173
31
-0.285890
12
-0.815963
22
0.703173
32
-0.395347
13
-0.815963
23
0.703173
33
-0.395347
0
3DFACE
8
0
70
0
10
-0.627785
20
0.685689
30
-0.294666
11
-0.663605
21
0.703173
31
-0.285890
12
-0.777785
22
0.685689
32
-0.402429
13
-0.777785
23
0.685689
33
-0.402429
0
3DFACE
8
0
70
0
10
-0.727785
20
0.685689
30
-0.018903
11
-0.761017
21
0.703173
31
-0.017266
12
-0.663605
22
0.703173
32
-0.285890
13
-0.663605
23
0.703173
33
-0.285890
0
3DFACE
8
0
70
0
10
-0.727785
20
0.685689
30
-0.018903
11
-0.663605
21
0.703173
31
-0.285890
12
-0.627785
22
0.685689
32
-0.294666
13
-0.627785
23
0.685689
33
-0.294666
0
3DFACE
8
0
70
0
10
-0.727785
20
0.685689
30
-0.018903
11
-0.663422
21
0.703173
31
0.169883
12
-0.761017
22
0.703173
32
-0.017266
13
-0.761017
23
0.703173
33
-0.017266
0
3DFACE
8
0
70
0
10
-0.627785
20
0.685689
30
0.172859
11
-0.663422
21
0.703173
31
0.169883
12
-0.727785
22
0.685689
32
-0.018903
13
-0.727785
23
0.685689
33
-0.018903
0
3DFACE
8
0
70
0
10
-0.627785
20
0.685689
30
0.172859
11
-0.663422
21
0.703173
31
0.169883
12
-0.944691
22
0.703173
32
0.598608
13
-0.944691
23
0.703173
33
0.598608
0
3DFACE
8
0
70
0
10
-0.927785
20
0.685689
30
0.532622
11
-0.627785
21
0.685689
31
0.172859
12
-0.944691
22
0.703173
32
0.598608
13
-0.944691
23
0.703173
33
0.598608
0
3DFACE
8
0
70
0
10
-0.827785
20
0.685689
30
0.976385
11
-0.859891
21
0.703173
31
0.974919
12
-0.944691
22
0.703173
32
0.598608
13
-0.944691
23
0.703173
33
0.598608
0
3DFACE
8
0
70
0
10
-0.827785
20
0.685689
30
0.976385
11
-0.944691
21
0.703173
31
0.598608
12
-0.927785
22
0.685689
32
0.532622
13
-0.927785
23
0.685689
33
0.532622
0
3DFACE
8
0
70
0
10
-0.927785
20
0.685689
30
1.252147
11
-0.961730
21
0.703173
31
1.255752
12
-0.859891
22
0.703173
32
0.974919
13
-0.859891
23
0.703173
33
0.974919
0
3DFACE
8
0
70
0
10
-0.927785
20
0.685689
30
1.252147
11
-0.859891
21
0.703173
31
0.974919
12
-0.827785
22
0.685689
32
0.976385
13
-0.827785
23
0.685689
33
0.976385
0
3DFACE
8
0
70
0
10
-0.927785
20
0.685689
30
1.252147
11
-0.756502
21
0.703173
31
1.538724
12
-0.961730
22
0.703173
32
1.255752
13
-0.961730
23
0.703173
33
1.255752
0
3DFACE
8
0
70
0
10
-0.727785
20
0.685689
30
1.527910
11
-0.756502
21
0.703173
31
1.538724
12
-0.927785
22
0.685689
32
1.252147
13
-0.927785
23
0.685689
33
1.252147
0
3DFACE
8
0
70
0
10
-0.727785
20
0.685689
30
1.527910
11
-0.661730
21
0.703173
31
1.800068
12
-0.756502
22
0.703173
32
1.538724
13
-0.756502
23
0.703173
33
1.538724
0
3DFACE
8
0
70
0
10
-0.627785
20
0.685689
30
1.803673
11
-0.661730
21
0.703173
31
1.800068
12
-0.727785
22
0.685689
32
1.527910
13
-0.727785
23
0.685689
33
1.527910
0
3DFACE
8
0
70
0
10
-0.827785
20
0.685689
30
2.079435
11
-0.861986
21
0.703173
31
2.076183
12
-0.661730
22
0.703173
32
1.800068
13
-0.661730
23
0.703173
33
1.800068
0
3DFACE
8
0
70
0
10
-0.827785
20
0.685689
30
2.079435
11
-0.661730
21
0.703173
31
1.800068
12
-0.627785
22
0.685689
32
1.803673
13
-0.627785
23
0.685689
33
1.803673
0
3DFACE
8
0
70
0
10
-0.570514
20
0.751270
30
-6.363493
11
-0.570514
21
0.782492
31
-6.317982
12
-1.316838
22
0.782492
32
-6.317982
13
-1.316838
23
0.782492
33
-6.317982
0
3DFACE
8
0
70
0
10
-0.570514
20
0.751270
30
-6.363493
11
-1.316838
21
0.782492
31
-6.317982
12
-1.316838
22
0.751270
32
-6.363493
13
-1.316838
23
0.751270
33
-6.363493
0
3DFACE
8
0
70
0
10
-1.316838
20
0.751270
30
-6.363493
11
-1.316838
21
0.782492
31
-6.317982
12
-2.063162
22
0.782492
32
-6.317982
13
-2.063162
23
0.782492
33
-6.317982
0
3DFACE
8
0
70
0
10
-1.316838
20
0.751270
30
-6.363493
11
-2.063162
21
0.782492
31
-6.317982
12
-2.063162
22
0.751270
32
-6.363493
13
-2.063162
23
0.751270
33
-6.363493
0
3DFACE
8
0
70
0
10
-2.063162
20
0.751270
30
-6.363493
11
-2.063162
21
0.782492
31
-6.317982
12
-2.809486
22
0.782492
32
-6.317982
13
-2.809486
23
0.782492
33
-6.317982
0
3DFACE
8
0
70
0
10
-2.063162
20
0.751270
30
-6.363493
11
-2.809486
21
0.782492
31
-6.317982
12
-2.809486
22
0.751270
32
-6.363493
13
-2.809486
23
0.751270
33
-6.363493
0
3DFACE
8
0
70
0
10
-4.059579
20
0.751270
30
-5.305851
11
-3.531204
21
0.782492
31
-6.317982
12
-4.018685
22
0.782492
32
-5.294534
13
-4.018685
23
0.782492
33
-5.294534
0
3DFACE
8
0
70
0
10
-4.059579
20
0.751270
30
-5.305851
11
-3.555810
21
0.751270
31
-6.363493
12
-3.531204
22
0.782492
32
-6.317982
13
-3.531204
23
0.782492
33
-6.317982
0
3DFACE
8
0
70
0
10
-2.809486
20
0.751270
30
-6.363493
11
-2.809486
21
0.782492
31
-6.317982
12
-3.531204
22
0.782492
32
-6.317982
13
-3.531204
23
0.782492
33
-6.317982
0
3DFACE
8
0
70
0
10
-2.809486
20
0.751270
30
-6.363493
11
-3.531204
21
0.782492
31
-6.317982
12
-3.555810
22
0.751270
32
-6.363493
13
-3.555810
23
0.751270
33
-6.363493
0
3DFACE
8
0
70
0
10
-4.059579
20
0.751270
30
-5.049943
11
-4.018685
21
0.782492
31
-5.294534
12
-4.018685
22
0.782492
32
-5.053529
13
-4.018685
23
0.782492
33
-5.053529
0
3DFACE
8
0
70
0
10
-4.059579
20
0.751270
30
-5.049943
11
-4.059579
21
0.751270
31
-5.305851
12
-4.018685
22
0.782492
32
-5.294534
13
-4.018685
23
0.782492
33
-5.294534
0
3DFACE
8
0
70
0
10
-2.883500
20
0.751270
30
-2.016911
11
-3.240912
21
0.782492
31
-2.139437
12
-2.852279
22
0.782492
32
-2.043596
13
-2.852279
23
0.782492
33
-2.043596
0
3DFACE
8
0
70
0
10
-2.883500
20
0.751270
30
-2.016911
11
-3.271195
21
0.751270
31
-2.108582
12
-3.240912
22
0.782492
32
-2.139437
13
-3.240912
23
0.782492
33
-2.139437
0
3DFACE
8
0
70
0
10
-4.059579
20
0.751270
30
-5.049943
11
-4.018685
21
0.782492
31
-5.053529
12
-3.240912
22
0.782492
32
-2.139437
13
-3.240912
23
0.782492
33
-2.139437
0
3DFACE
8
0
70
0
10
-3.271195
20
0.751270
30
-2.108582
11
-4.059579
21
0.751270
31
-5.049943
12
-3.240912
22
0.782492
32
-2.139437
13
-3.240912
23
0.782492
33
-2.139437
0
3DFACE
8
0
70
0
10
-1.477557
20
0.501269
30
3.255435
11
-1.477557
21
0.501269
31
2.919435
12
-1.902443
22
0.501269
32
3.255435
13
-1.902443
23
0.501269
33
3.255435
0
3DFACE
8
0
70
0
10
-1.902443
20
0.501269
30
3.255435
11
-1.477557
21
0.501269
31
2.919435
12
-1.902443
22
0.501269
32
2.919435
13
-1.902443
23
0.501269
33
2.919435
0
3DFACE
8
0
70
0
10
-1.477557
20
0.501269
30
2.919435
11
-1.477557
21
0.501269
31
2.583435
12
-1.902443
22
0.501269
32
2.919435
13
-1.902443
23
0.501269
33
2.919435
0
3DFACE
8
0
70
0
10
-1.902443
20
0.501269
30
2.919435
11
-1.477557
21
0.501269
31
2.583435
12
-1.902443
22
0.501269
32
2.583435
13
-1.902443
23
0.501269
33
2.583435
0
3DFACE
8
0
70
0
10
-1.902443
20
0.501269
30
2.919435
11
-1.902443
21
0.501269
31
2.583435
12
-2.327329
22
0.501269
32
2.919435
13
-2.327329
23
0.501269
33
2.919435
0
3DFACE
8
0
70
0
10
-2.327329
20
0.501269
30
2.919435
11
-1.902443
21
0.501269
31
2.583435
12
-2.327329
22
0.501269
32
2.583435
13
-2.327329
23
0.501269
33
2.583435
0
3DFACE
8
0
70
0
10
-2.327329
20
0.501269
30
2.919435
11
-2.327329
21
0.501269
31
2.583435
12
-2.420994
22
0.501269
32
2.834127
13
-2.420994
23
0.501269
33
2.834127
0
3DFACE
8
0
70
0
10
-2.420994
20
0.501269
30
2.834127
11
-2.327329
21
0.501269
31
2.583435
12
-2.471923
22
0.501269
32
2.406324
13
-2.471923
23
0.501269
33
2.406324
0
3DFACE
8
0
70
0
10
-1.477557
20
0.501269
30
2.583435
11
-1.477557
21
0.501269
31
2.331435
12
-1.902443
22
0.501269
32
2.583435
13
-1.902443
23
0.501269
33
2.583435
0
3DFACE
8
0
70
0
10
-1.902443
20
0.501269
30
2.583435
11
-1.477557
21
0.501269
31
2.331435
12
-1.902443
22
0.501269
32
2.331435
13
-1.902443
23
0.501269
33
2.331435
0
3DFACE
8
0
70
0
10
-1.902443
20
0.501269
30
2.583435
11
-1.902443
21
0.501269
31
2.331435
12
-2.327329
22
0.501269
32
2.583435
13
-2.327329
23
0.501269
33
2.583435
0
3DFACE
8
0
70
0
10
-2.327329
20
0.501269
30
2.583435
11
-1.902443
21
0.501269
31
2.331435
12
-2.327329
22
0.501269
32
2.331435
13
-2.327329
23
0.501269
33
2.331435
0
3DFACE
8
0
70
0
10
-2.327329
20
0.501269
30
2.583435
11
-2.327329
21
0.501269
31
2.331435
12
-2.471923
22
0.501269
32
2.406324
13
-2.471923
23
0.501269
33
2.406324
0
3DFACE
8
0
70
0
10
-2.471923
20
0.501269
30
2.406324
11
-2.327329
21
0.501269
31
2.331435
12
-2.665278
22
0.501269
32
2.162697
13
-2.665278
23
0.501269
33
2.162697
0
3DFACE
8
0
70
0
10
-1.477557
20
0.501269
30
2.331435
11
-1.477557
21
0.501269
31
2.079435
12
-1.902443
22
0.501269
32
2.331435
13
-1.902443
23
0.501269
33
2.331435
0
3DFACE
8
0
70
0
10
-1.902443
20
0.501269
30
2.331435
11
-1.477557
21
0.501269
31
2.079435
12
-1.902443
22
0.501269
32
2.079435
13
-1.902443
23
0.501269
33
2.079435
0
3DFACE
8
0
70
0
10
-1.902443
20
0.501269
30
2.331435
11
-1.902443
21
0.501269
31
2.079435
12
-2.327329
22
0.501269
32
2.331435
13
-2.327329
23
0.501269
33
2.331435
0
3DFACE
8
0
70
0
10
-2.327329
20
0.501269
30
2.331435
11
-1.902443
21
0.501269
31
2.079435
12
-2.327329
22
0.501269
32
2.079435
13
-2.327329
23
0.501269
33
2.079435
0
3DFACE
8
0
70
0
10
-2.327329
20
0.501269
30
2.331435
11
-2.327329
21
0.501269
31
2.079435
12
-2.665278
22
0.501269
32
2.162697
13
-2.665278
23
0.501269
33
2.162697
0
3DFACE
8
0
70
0
10
-2.665278
20
0.501269
30
2.162697
11
-2.327329
21
0.501269
31
2.079435
12
-2.514424
22
0.501269
32
1.951501
13
-2.514424
23
0.501269
33
1.951501
0
3DFACE
8
0
70
0
10
0.475677
20
0.495861
30
-5.196185
11
0.022319
21
0.495861
31
-6.147992
12
-0.367775
22
0.495861
32
-5.206710
13
-0.367775
23
0.495861
33
-5.206710
0
3DFACE
8
0
70
0
10
-0.367775
20
0.495861
30
-5.206710
11
0.022319
21
0.495861
31
-6.147992
12
-0.648878
22
0.495861
32
-6.147992
13
-0.648878
23
0.495861
33
-6.147992
0
3DFACE
8
0
70
0
10
-0.367775
20
0.495861
30
-4.968716
11
0.475677
21
0.495861
31
-4.972050
12
0.475677
22
0.495861
32
-5.196185
13
0.475677
23
0.495861
33
-5.196185
0
3DFACE
8
0
70
0
10
-0.367775
20
0.495861
30
-4.968716
11
0.475677
21
0.495861
31
-5.196185
12
-0.367775
22
0.495861
32
-5.206710
13
-0.367775
23
0.495861
33
-5.206710
0
3DFACE
8
0
70
0
10
-0.609081
20
0.495861
30
-2.158343
11
-0.247652
21
0.495861
31
-2.266172
12
-0.367775
22
0.495861
32
-4.968716
13
-0.367775
23
0.495861
33
-4.968716
0
3DFACE
8
0
70
0
10
-0.247652
20
0.495861
30
-2.266172
11
0.475677
21
0.495861
31
-4.972050
12
-0.367775
22
0.495861
32
-4.968716
13
-0.367775
23
0.495861
33
-4.968716
0
3DFACE
8
0
70
0
10
-0.527721
20
0.421950
30
-1.688622
11
-0.527721
21
0.421950
31
-2.043596
12
-0.973900
22
0.421950
32
-1.688622
13
-0.973900
23
0.421950
33
-1.688622
0
3DFACE
8
0
70
0
10
-0.973900
20
0.421950
30
-1.160333
11
-0.527721
21
0.421950
31
-1.170588
12
-0.973900
22
0.421950
32
-1.688622
13
-0.973900
23
0.421950
33
-1.688622
0
3DFACE
8
0
70
0
10
-0.527721
20
0.421950
30
-1.170588
11
-0.527721
21
0.421950
31
-1.688622
12
-0.973900
22
0.421950
32
-1.688622
13
-0.973900
23
0.421950
33
-1.688622
0
3DFACE
8
0
70
0
10
-1.451300
20
0.421950
30
-1.688622
11
-1.928700
21
0.421950
31
-2.016911
12
-1.928700
22
0.421950
32
-1.688622
13
-1.928700
23
0.421950
33
-1.688622
0
3DFACE
8
0
70
0
10
-1.451300
20
0.421950
30
-1.688622
11
-1.451300
21
0.421950
31
-2.016911
12
-1.928700
22
0.421950
32
-2.016911
13
-1.928700
23
0.421950
33
-2.016911
0
3DFACE
8
0
70
0
10
-1.451300
20
0.421950
30
-1.160333
11
-1.928700
21
0.421950
31
-1.688622
12
-1.928700
22
0.421950
32
-1.160333
13
-1.928700
23
0.421950
33
-1.160333
0
3DFACE
8
0
70
0
10
-1.451300
20
0.421950
30
-1.160333
11
-1.451300
21
0.421950
31
-1.688622
12
-1.928700
22
0.421950
32
-1.688622
13
-1.928700
23
0.421950
33
-1.688622
0
3DFACE
8
0
70
0
10
-1.928700
20
0.421950
30
-1.160333
11
-1.902443
21
0.501269
31
-0.953954
12
-1.477557
22
0.501269
32
-0.953954
13
-1.477557
23
0.501269
33
-0.953954
0
3DFACE
8
0
70
0
10
-1.451300
20
0.421950
30
-1.160333
11
-1.928700
21
0.421950
31
-1.160333
12
-1.477557
22
0.501269
32
-0.953954
13
-1.477557
23
0.501269
33
-0.953954
0
3DFACE
8
0
70
0
10
-1.477557
20
0.501269
30
-0.678192
11
-1.902443
21
0.501269
31
-0.953954
12
-1.902443
22
0.501269
32
-0.678192
13
-1.902443
23
0.501269
33
-0.678192
0
3DFACE
8
0
70
0
10
-1.477557
20
0.501269
30
-0.678192
11
-1.477557
21
0.501269
31
-0.953954
12
-1.902443
22
0.501269
32
-0.953954
13
-1.902443
23
0.501269
33
-0.953954
0
3DFACE
8
0
70
0
10
-1.477557
20
0.501269
30
-0.402429
11
-1.902443
21
0.501269
31
-0.678192
12
-1.902443
22
0.501269
32
-0.402429
13
-1.902443
23
0.501269
33
-0.402429
0
3DFACE
8
0
70
0
10
-1.477557
20
0.501269
30
-0.402429
11
-1.477557
21
0.501269
31
-0.678192
12
-1.902443
22
0.501269
32
-0.678192
13
-1.902443
23
0.501269
33
-0.678192
0
3DFACE
8
0
70
0
10
-1.477557
20
0.501269
30
-0.126666
11
-1.902443
21
0.501269
31
-0.402429
12
-1.902443
22
0.501269
32
-0.126666
13
-1.902443
23
0.501269
33
-0.126666
0
3DFACE
8
0
70
0
10
-1.477557
20
0.501269
30
-0.126666
11
-1.477557
21
0.501269
31
-0.402429
12
-1.902443
22
0.501269
32
-0.402429
13
-1.902443
23
0.501269
33
-0.402429
0
3DFACE
8
0
70
0
10
-1.477557
20
0.501269
30
0.149097
11
-1.902443
21
0.501269
31
-0.126666
12
-1.902443
22
0.501269
32
0.149097
13
-1.902443
23
0.501269
33
0.149097
0
3DFACE
8
0
70
0
10
-1.477557
20
0.501269
30
0.149097
11
-1.477557
21
0.501269
31
-0.126666
12
-1.902443
22
0.501269
32
-0.126666
13
-1.902443
23
0.501269
33
-0.126666
0
3DFACE
8
0
70
0
10
-1.477557
20
0.501269
30
0.424859
11
-1.902443
21
0.501269
31
0.149097
12
-1.902443
22
0.501269
32
0.424859
13
-1.902443
23
0.501269
33
0.424859
0
3DFACE
8
0
70
0
10
-1.477557
20
0.501269
30
0.424859
11
-1.477557
21
0.501269
31
0.149097
12
-1.902443
22
0.501269
32
0.149097
13
-1.902443
23
0.501269
33
0.149097
0
3DFACE
8
0
70
0
10
-1.477557
20
0.501269
30
0.700622
11
-1.902443
21
0.501269
31
0.424859
12
-1.902443
22
0.501269
32
0.700622
13
-1.902443
23
0.501269
33
0.700622
0
3DFACE
8
0
70
0
10
-1.477557
20
0.501269
30
0.700622
11
-1.477557
21
0.501269
31
0.424859
12
-1.902443
22
0.501269
32
0.424859
13
-1.902443
23
0.501269
33
0.424859
0
3DFACE
8
0
70
0
10
-1.477557
20
0.501269
30
0.976385
11
-1.902443
21
0.501269
31
0.700622
12
-1.902443
22
0.501269
32
0.976385
13
-1.902443
23
0.501269
33
0.976385
0
3DFACE
8
0
70
0
10
-1.477557
20
0.501269
30
0.976385
11
-1.477557
21
0.501269
31
0.700622
12
-1.902443
22
0.501269
32
0.700622
13
-1.902443
23
0.501269
33
0.700622
0
3DFACE
8
0
70
0
10
-1.477557
20
0.501269
30
1.252147
11
-1.902443
21
0.501269
31
0.976385
12
-1.902443
22
0.501269
32
1.252147
13
-1.902443
23
0.501269
33
1.252147
0
3DFACE
8
0
70
0
10
-1.477557
20
0.501269
30
1.252147
11
-1.477557
21
0.501269
31
0.976385
12
-1.902443
22
0.501269
32
0.976385
13
-1.902443
23
0.501269
33
0.976385
0
3DFACE
8
0
70
0
10
-1.477557
20
0.501269
30
1.527910
11
-1.902443
21
0.501269
31
1.252147
12
-1.902443
22
0.501269
32
1.527910
13
-1.902443
23
0.501269
33
1.527910
0
3DFACE
8
0
70
0
10
-1.477557
20
0.501269
30
1.527910
11
-1.477557
21
0.501269
31
1.252147
12
-1.902443
22
0.501269
32
1.252147
13
-1.902443
23
0.501269
33
1.252147
0
3DFACE
8
0
70
0
10
-1.477557
20
0.501269
30
1.803673
11
-1.902443
21
0.501269
31
1.527910
12
-1.902443
22
0.501269
32
1.803673
13
-1.902443
23
0.501269
33
1.803673
0
3DFACE
8
0
70
0
10
-1.477557
20
0.501269
30
1.803673
11
-1.477557
21
0.501269
31
1.527910
12
-1.902443
22
0.501269
32
1.527910
13
-1.902443
23
0.501269
33
1.527910
0
3DFACE
8
0
70
0
10
-1.477557
20
0.501269
30
2.079435
11
-1.902443
21
0.501269
31
1.803673
12
-1.902443
22
0.501269
32
2.079435
13
-1.902443
23
0.501269
33
2.079435
0
3DFACE
8
0
70
0
10
-1.477557
20
0.501269
30
2.079435
11
-1.477557
21
0.501269
31
1.803673
12
-1.902443
22
0.501269
32
1.803673
13
-1.902443
23
0.501269
33
1.803673
0
3DFACE
8
0
70
0
10
-1.928700
20
0.421950
30
-1.688622
11
-1.928700
21
0.421950
31
-2.016911
12
-2.406100
22
0.421950
32
-1.688622
13
-2.406100
23
0.421950
33
-1.688622
0
3DFACE
8
0
70
0
10
-2.406100
20
0.421950
30
-1.688622
11
-1.928700
21
0.421950
31
-2.016911
12
-2.852279
22
0.421950
32
-2.043596
13
-2.852279
23
0.421950
33
-2.043596
0
3DFACE
8
0
70
0
10
-1.928700
20
0.421950
30
-1.160333
11
-2.406100
21
0.421950
31
-1.688622
12
-2.406100
22
0.421950
32
-1.160333
13
-2.406100
23
0.421950
33
-1.160333
0
3DFACE
8
0
70
0
10
-1.928700
20
0.421950
30
-1.160333
11
-1.928700
21
0.421950
31
-1.688622
12
-2.406100
22
0.421950
32
-1.688622
13
-2.406100
23
0.421950
33
-1.688622
0
3DFACE
8
0
70
0
10
-1.928700
20
0.421950
30
-1.160333
11
-2.327329
21
0.501269
31
-0.953954
12
-1.902443
22
0.501269
32
-0.953954
13
-1.902443
23
0.501269
33
-0.953954
0
3DFACE
8
0
70
0
10
-1.928700
20
0.421950
30
-1.160333
11
-2.406100
21
0.421950
31
-1.160333
12
-2.327329
22
0.501269
32
-0.953954
13
-2.327329
23
0.501269
33
-0.953954
0
3DFACE
8
0
70
0
10
-1.902443
20
0.501269
30
-0.678192
11
-2.327329
21
0.501269
31
-0.953954
12
-2.327329
22
0.501269
32
-0.678192
13
-2.327329
23
0.501269
33
-0.678192
0
3DFACE
8
0
70
0
10
-1.902443
20
0.501269
30
-0.678192
11
-1.902443
21
0.501269
31
-0.953954
12
-2.327329
22
0.501269
32
-0.953954
13
-2.327329
23
0.501269
33
-0.953954
0
3DFACE
8
0
70
0
10
-1.902443
20
0.501269
30
-0.402429
11
-2.327329
21
0.501269
31
-0.678192
12
-2.327329
22
0.501269
32
-0.402429
13
-2.327329
23
0.501269
33
-0.402429
0
3DFACE
8
0
70
0
10
-1.902443
20
0.501269
30
-0.402429
11
-1.902443
21
0.501269
31
-0.678192
12
-2.327329
22
0.501269
32
-0.678192
13
-2.327329
23
0.501269
33
-0.678192
0
3DFACE
8
0
70
0
10
-1.902443
20
0.501269
30
-0.126666
11
-2.327329
21
0.501269
31
-0.402429
12
-2.327329
22
0.501269
32
-0.126666
13
-2.327329
23
0.501269
33
-0.126666
0
3DFACE
8
0
70
0
10
-1.902443
20
0.501269
30
-0.126666
11
-1.902443
21
0.501269
31
-0.402429
12
-2.327329
22
0.501269
32
-0.402429
13
-2.327329
23
0.501269
33
-0.402429
0
3DFACE
8
0
70
0
10
-1.902443
20
0.501269
30
0.149097
11
-2.327329
21
0.501269
31
-0.126666
12
-2.327329
22
0.501269
32
0.149097
13
-2.327329
23
0.501269
33
0.149097
0
3DFACE
8
0
70
0
10
-1.902443
20
0.501269
30
0.149097
11
-1.902443
21
0.501269
31
-0.126666
12
-2.327329
22
0.501269
32
-0.126666
13
-2.327329
23
0.501269
33
-0.126666
0
3DFACE
8
0
70
0
10
-1.902443
20
0.501269
30
0.424859
11
-2.327329
21
0.501269
31
0.149097
12
-2.327329
22
0.501269
32
0.424859
13
-2.327329
23
0.501269
33
0.424859
0
3DFACE
8
0
70
0
10
-1.902443
20
0.501269
30
0.424859
11
-1.902443
21
0.501269
31
0.149097
12
-2.327329
22
0.501269
32
0.149097
13
-2.327329
23
0.501269
33
0.149097
0
3DFACE
8
0
70
0
10
-1.902443
20
0.501269
30
0.700622
11
-2.327329
21
0.501269
31
0.424859
12
-2.327329
22
0.501269
32
0.700622
13
-2.327329
23
0.501269
33
0.700622
0
3DFACE
8
0
70
0
10
-1.902443
20
0.501269
30
0.700622
11
-1.902443
21
0.501269
31
0.424859
12
-2.327329
22
0.501269
32
0.424859
13
-2.327329
23
0.501269
33
0.424859
0
3DFACE
8
0
70
0
10
-1.902443
20
0.501269
30
0.976385
11
-2.327329
21
0.501269
31
0.700622
12
-2.327329
22
0.501269
32
0.976385
13
-2.327329
23
0.501269
33
0.976385
0
3DFACE
8
0
70
0
10
-1.902443
20
0.501269
30
0.976385
11
-1.902443
21
0.501269
31
0.700622
12
-2.327329
22
0.501269
32
0.700622
13
-2.327329
23
0.501269
33
0.700622
0
3DFACE
8
0
70
0
10
-1.902443
20
0.501269
30
1.252147
11
-2.327329
21
0.501269
31
0.976385
12
-2.327329
22
0.501269
32
1.252147
13
-2.327329
23
0.501269
33
1.252147
0
3DFACE
8
0
70
0
10
-1.902443
20
0.501269
30
1.252147
11
-1.902443
21
0.501269
31
0.976385
12
-2.327329
22
0.501269
32
0.976385
13
-2.327329
23
0.501269
33
0.976385
0
3DFACE
8
0
70
0
10
-1.902443
20
0.501269
30
1.527910
11
-2.327329
21
0.501269
31
1.252147
12
-2.327329
22
0.501269
32
1.527910
13
-2.327329
23
0.501269
33
1.527910
0
3DFACE
8
0
70
0
10
-1.902443
20
0.501269
30
1.527910
11
-1.902443
21
0.501269
31
1.252147
12
-2.327329
22
0.501269
32
1.252147
13
-2.327329
23
0.501269
33
1.252147
0
3DFACE
8
0
70
0
10
-1.902443
20
0.501269
30
1.803673
11
-2.327329
21
0.501269
31
1.527910
12
-2.327329
22
0.501269
32
1.803673
13
-2.327329
23
0.501269
33
1.803673
0
3DFACE
8
0
70
0
10
-1.902443
20
0.501269
30
1.803673
11
-1.902443
21
0.501269
31
1.527910
12
-2.327329
22
0.501269
32
1.527910
13
-2.327329
23
0.501269
33
1.527910
0
3DFACE
8
0
70
0
10
-1.902443
20
0.501269
30
2.079435
11
-2.327329
21
0.501269
31
1.803673
12
-2.327329
22
0.501269
32
2.079435
13
-2.327329
23
0.501269
33
2.079435
0
3DFACE
8
0
70
0
10
-1.902443
20
0.501269
30
2.079435
11
-1.902443
21
0.501269
31
1.803673
12
-2.327329
22
0.501269
32
1.803673
13
-2.327329
23
0.501269
33
1.803673
0
3DFACE
8
0
70
0
10
-3.855677
20
0.495861
30
-5.196185
11
-3.012225
21
0.495861
31
-5.206710
12
-3.402320
22
0.495861
32
-6.147992
13
-3.402320
23
0.495861
33
-6.147992
0
3DFACE
8
0
70
0
10
-3.012225
20
0.495861
30
-5.206710
11
-2.731122
21
0.495861
31
-6.147992
12
-3.402320
22
0.495861
32
-6.147992
13
-3.402320
23
0.495861
33
-6.147992
0
3DFACE
8
0
70
0
10
-3.012225
20
0.495861
30
-4.968716
11
-3.855677
21
0.495861
31
-5.196185
12
-3.855677
22
0.495861
32
-4.972050
13
-3.855677
23
0.495861
33
-4.972050
0
3DFACE
8
0
70
0
10
-3.012225
20
0.495861
30
-4.968716
11
-3.012225
21
0.495861
31
-5.206710
12
-3.855677
22
0.495861
32
-5.196185
13
-3.855677
23
0.495861
33
-5.196185
0
3DFACE
8
0
70
0
10
-2.770919
20
0.495861
30
-2.158343
11
-3.012225
21
0.495861
31
-4.968716
12
-3.132349
22
0.495861
32
-2.266172
13
-3.132349
23
0.495861
33
-2.266172
0
3DFACE
8
0
70
0
10
-3.132349
20
0.495861
30
-2.266172
11
-3.012225
21
0.495861
31
-4.968716
12
-3.855677
22
0.495861
32
-4.972050
13
-3.855677
23
0.495861
33
-4.972050
0
3DFACE
8
0
70
0
10
-2.406100
20
0.421950
30
-1.688622
11
-2.852279
21
0.421950
31
-2.043596
12
-2.852279
22
0.421950
32
-1.688622
13
-2.852279
23
0.421950
33
-1.688622
0
3DFACE
8
0
70
0
10
-2.406100
20
0.421950
30
-1.160333
11
-2.406100
21
0.421950
31
-1.688622
12
-2.852279
22
0.421950
32
-1.170588
13
-2.852279
23
0.421950
33
-1.170588
0
3DFACE
8
0
70
0
10
-2.852279
20
0.421950
30
-1.170588
11
-2.406100
21
0.421950
31
-1.688622
12
-2.852279
22
0.421950
32
-1.688622
13
-2.852279
23
0.421950
33
-1.688622
0
3DFACE
8
0
70
0
10
-2.406100
20
0.421950
30
-1.160333
11
-2.726264
21
0.501269
31
-0.968580
12
-2.327329
22
0.501269
32
-0.953954
13
-2.327329
23
0.501269
33
-0.953954
0
3DFACE
8
0
70
0
10
-2.406100
20
0.421950
30
-1.160333
11
-2.852279
21
0.421950
31
-1.170588
12
-2.726264
22
0.501269
32
-0.968580
13
-2.726264
23
0.501269
33
-0.968580
0
3DFACE
8
0
70
0
10
-2.327329
20
0.501269
30
-0.678192
11
-2.327329
21
0.501269
31
-0.953954
12
-2.520994
22
0.501269
32
-0.685551
13
-2.520994
23
0.501269
33
-0.685551
0
3DFACE
8
0
70
0
10
-2.520994
20
0.501269
30
-0.685551
11
-2.327329
21
0.501269
31
-0.953954
12
-2.726264
22
0.501269
32
-0.968580
13
-2.726264
23
0.501269
33
-0.968580
0
3DFACE
8
0
70
0
10
-2.327329
20
0.501269
30
-0.402429
11
-2.327329
21
0.501269
31
-0.678192
12
-2.520994
22
0.501269
32
-0.402429
13
-2.520994
23
0.501269
33
-0.402429
0
3DFACE
8
0
70
0
10
-2.520994
20
0.501269
30
-0.402429
11
-2.327329
21
0.501269
31
-0.678192
12
-2.520994
22
0.501269
32
-0.685551
13
-2.520994
23
0.501269
33
-0.685551
0
3DFACE
8
0
70
0
10
-2.520994
20
0.501269
30
-0.119306
11
-2.327329
21
0.501269
31
-0.126666
12
-2.520994
22
0.501269
32
-0.402429
13
-2.520994
23
0.501269
33
-0.402429
0
3DFACE
8
0
70
0
10
-2.327329
20
0.501269
30
-0.126666
11
-2.327329
21
0.501269
31
-0.402429
12
-2.520994
22
0.501269
32
-0.402429
13
-2.520994
23
0.501269
33
-0.402429
0
3DFACE
8
0
70
0
10
-2.718270
20
0.501269
30
0.152701
11
-2.327329
21
0.501269
31
0.149097
12
-2.520994
22
0.501269
32
-0.119306
13
-2.520994
23
0.501269
33
-0.119306
0
3DFACE
8
0
70
0
10
-2.327329
20
0.501269
30
0.149097
11
-2.327329
21
0.501269
31
-0.126666
12
-2.520994
22
0.501269
32
-0.119306
13
-2.520994
23
0.501269
33
-0.119306
0
3DFACE
8
0
70
0
10
-2.327329
20
0.501269
30
0.424859
11
-2.327329
21
0.501269
31
0.149097
12
-2.620994
22
0.501269
32
0.420953
13
-2.620994
23
0.501269
33
0.420953
0
3DFACE
8
0
70
0
10
-2.620994
20
0.501269
30
0.420953
11
-2.327329
21
0.501269
31
0.149097
12
-2.718270
22
0.501269
32
0.152701
13
-2.718270
23
0.501269
33
0.152701
0
3DFACE
8
0
70
0
10
-2.620994
20
0.501269
30
0.704528
11
-2.327329
21
0.501269
31
0.700622
12
-2.327329
22
0.501269
32
0.424859
13
-2.327329
23
0.501269
33
0.424859
0
3DFACE
8
0
70
0
10
-2.620994
20
0.501269
30
0.704528
11
-2.327329
21
0.501269
31
0.424859
12
-2.620994
22
0.501269
32
0.420953
13
-2.620994
23
0.501269
33
0.420953
0
3DFACE
8
0
70
0
10
-2.327329
20
0.501269
30
0.976385
11
-2.620994
21
0.501269
31
0.704528
12
-2.717848
22
0.501269
32
0.971615
13
-2.717848
23
0.501269
33
0.971615
0
3DFACE
8
0
70
0
10
-2.327329
20
0.501269
30
0.976385
11
-2.327329
21
0.501269
31
0.700622
12
-2.620994
22
0.501269
32
0.704528
13
-2.620994
23
0.501269
33
0.704528
0
3DFACE
8
0
70
0
10
-2.327329
20
0.501269
30
1.252147
11
-2.327329
21
0.501269
31
0.976385
12
-2.521929
22
0.501269
32
1.200608
13
-2.521929
23
0.501269
33
1.200608
0
3DFACE
8
0
70
0
10
-2.521929
20
0.501269
30
1.200608
11
-2.327329
21
0.501269
31
0.976385
12
-2.717848
22
0.501269
32
0.971615
13
-2.717848
23
0.501269
33
0.971615
0
3DFACE
8
0
70
0
10
-2.470099
20
0.501269
30
1.660612
11
-2.327329
21
0.501269
31
1.527910
12
-2.521929
22
0.501269
32
1.200608
13
-2.521929
23
0.501269
33
1.200608
0
3DFACE
8
0
70
0
10
-2.327329
20
0.501269
30
1.527910
11
-2.327329
21
0.501269
31
1.252147
12
-2.521929
22
0.501269
32
1.200608
13
-2.521929
23
0.501269
33
1.200608
0
3DFACE
8
0
70
0
10
-2.613838
20
0.501269
30
1.844370
11
-2.327329
21
0.501269
31
1.803673
12
-2.470099
22
0.501269
32
1.660612
13
-2.470099
23
0.501269
33
1.660612
0
3DFACE
8
0
70
0
10
-2.327329
20
0.501269
30
1.803673
11
-2.327329
21
0.501269
31
1.527910
12
-2.470099
22
0.501269
32
1.660612
13
-2.470099
23
0.501269
33
1.660612
0
3DFACE
8
0
70
0
10
-2.327329
20
0.501269
30
2.079435
11
-2.327329
21
0.501269
31
1.803673
12
-2.514424
22
0.501269
32
1.951501
13
-2.514424
23
0.501269
33
1.951501
0
3DFACE
8
0
70
0
10
-2.514424
20
0.501269
30
1.951501
11
-2.327329
21
0.501269
31
1.803673
12
-2.613838
22
0.501269
32
1.844370
13
-2.613838
23
0.501269
33
1.844370
0
3DFACE
8
0
70
0
10
-0.827785
20
0.518753
30
2.079435
11
-0.827785
21
0.685689
31
2.079435
12
-0.627785
22
0.518753
32
1.803673
13
-0.627785
23
0.518753
33
1.803673
0
3DFACE
8
0
70
0
10
-0.627785
20
0.518753
30
1.803673
11
-0.827785
21
0.685689
31
2.079435
12
-0.627785
22
0.685689
32
1.803673
13
-0.627785
23
0.685689
33
1.803673
0
3DFACE
8
0
70
0
10
-0.627785
20
0.518753
30
1.803673
11
-0.627785
21
0.685689
31
1.803673
12
-0.727785
22
0.518753
32
1.527910
13
-0.727785
23
0.518753
33
1.527910
0
3DFACE
8
0
70
0
10
-0.727785
20
0.518753
30
1.527910
11
-0.627785
21
0.685689
31
1.803673
12
-0.727785
22
0.685689
32
1.527910
13
-0.727785
23
0.685689
33
1.527910
0
3DFACE
8
0
70
0
10
-0.727785
20
0.518753
30
1.527910
11
-0.727785
21
0.685689
31
1.527910
12
-0.927785
22
0.518753
32
1.252147
13
-0.927785
23
0.518753
33
1.252147
0
3DFACE
8
0
70
0
10
-0.927785
20
0.518753
30
1.252147
11
-0.727785
21
0.685689
31
1.527910
12
-0.927785
22
0.685689
32
1.252147
13
-0.927785
23
0.685689
33
1.252147
0
3DFACE
8
0
70
0
10
-0.927785
20
0.518753
30
1.252147
11
-0.927785
21
0.685689
31
1.252147
12
-0.827785
22
0.518753
32
0.976385
13
-0.827785
23
0.518753
33
0.976385
0
3DFACE
8
0
70
0
10
-0.827785
20
0.518753
30
0.976385
11
-0.927785
21
0.685689
31
1.252147
12
-0.827785
22
0.685689
32
0.976385
13
-0.827785
23
0.685689
33
0.976385
0
3DFACE
8
0
70
0
10
-0.827785
20
0.518753
30
0.976385
11
-0.827785
21
0.685689
31
0.976385
12
-0.927785
22
0.518753
32
0.532622
13
-0.927785
23
0.518753
33
0.532622
0
3DFACE
8
0
70
0
10
-0.927785
20
0.518753
30
0.532622
11
-0.827785
21
0.685689
31
0.976385
12
-0.927785
22
0.685689
32
0.532622
13
-0.927785
23
0.685689
33
0.532622
0
3DFACE
8
0
70
0
10
-0.927785
20
0.518753
30
0.532622
11
-0.927785
21
0.685689
31
0.532622
12
-0.627785
22
0.518753
32
0.172859
13
-0.627785
23
0.518753
33
0.172859
0
3DFACE
8
0
70
0
10
-0.627785
20
0.518753
30
0.172859
11
-0.927785
21
0.685689
31
0.532622
12
-0.627785
22
0.685689
32
0.172859
13
-0.627785
23
0.685689
33
0.172859
0
3DFACE
8
0
70
0
10
-0.627785
20
0.518753
30
0.172859
11
-0.627785
21
0.685689
31
0.172859
12
-0.727785
22
0.518753
32
-0.018903
13
-0.727785
23
0.518753
33
-0.018903
0
3DFACE
8
0
70
0
10
-0.727785
20
0.518753
30
-0.018903
11
-0.627785
21
0.685689
31
0.172859
12
-0.727785
22
0.685689
32
-0.018903
13
-0.727785
23
0.685689
33
-0.018903
0
3DFACE
8
0
70
0
10
-0.727785
20
0.518753
30
-0.018903
11
-0.727785
21
0.685689
31
-0.018903
12
-0.627785
22
0.518753
32
-0.294666
13
-0.627785
23
0.518753
33
-0.294666
0
3DFACE
8
0
70
0
10
-0.627785
20
0.518753
30
-0.294666
11
-0.727785
21
0.685689
31
-0.018903
12
-0.627785
22
0.685689
32
-0.294666
13
-0.627785
23
0.685689
33
-0.294666
0
3DFACE
8
0
70
0
10
-0.627785
20
0.518753
30
-0.294666
11
-0.627785
21
0.685689
31
-0.294666
12
-0.777785
22
0.518753
32
-0.402429
13
-0.777785
23
0.518753
33
-0.402429
0
3DFACE
8
0
70
0
10
-0.777785
20
0.518753
30
-0.402429
11
-0.627785
21
0.685689
31
-0.294666
12
-0.777785
22
0.685689
32
-0.402429
13
-0.777785
23
0.685689
33
-0.402429
0
3DFACE
8
0
70
0
10
-0.777785
20
0.518753
30
-0.402429
11
-0.777785
21
0.685689
31
-0.402429
12
-0.627785
22
0.518753
32
-0.678192
13
-0.627785
23
0.518753
33
-0.678192
0
3DFACE
8
0
70
0
10
-0.627785
20
0.518753
30
-0.678192
11
-0.777785
21
0.685689
31
-0.402429
12
-0.627785
22
0.685689
32
-0.678192
13
-0.627785
23
0.685689
33
-0.678192
0
3DFACE
8
0
70
0
10
-0.627785
20
0.518753
30
-0.678192
11
-0.627785
21
0.685689
31
-0.678192
12
-0.627785
22
0.518753
32
-0.953954
13
-0.627785
23
0.518753
33
-0.953954
0
3DFACE
8
0
70
0
10
-0.627785
20
0.518753
30
-0.953954
11
-0.627785
21
0.685689
31
-0.678192
12
-0.627785
22
0.685689
32
-0.953954
13
-0.627785
23
0.685689
33
-0.953954
0
3DFACE
8
0
70
0
10
-0.496500
20
0.453171
30
-1.160333
11
-0.627785
21
0.518753
31
-0.953954
12
-0.627785
22
0.685689
32
-0.953954
13
-0.627785
23
0.685689
33
-0.953954
0
3DFACE
8
0
70
0
10
-0.496500
20
0.453171
30
-1.160333
11
-0.627785
21
0.685689
31
-0.953954
12
-0.496500
22
0.751270
32
-1.160333
13
-0.496500
23
0.751270
33
-1.160333
0
3DFACE
8
0
70
0
10
-0.496500
20
0.453171
30
-1.160333
11
-0.496500
21
0.751270
31
-1.160333
12
-0.496500
22
0.453171
32
-1.688622
13
-0.496500
23
0.453171
33
-1.688622
0
3DFACE
8
0
70
0
10
-0.496500
20
0.453171
30
-1.688622
11
-0.496500
21
0.751270
31
-1.160333
12
-0.496500
22
0.751270
32
-1.688622
13
-0.496500
23
0.751270
33
-1.688622
0
3DFACE
8
0
70
0
10
-0.496500
20
0.453171
30
-1.688622
11
-0.496500
21
0.751270
31
-1.688622
12
-0.496500
22
0.453171
32
-2.016911
13
-0.496500
23
0.453171
33
-2.016911
0
3DFACE
8
0
70
0
10
-0.496500
20
0.453171
30
-2.016911
11
-0.496500
21
0.751270
31
-1.688622
12
-0.496500
22
0.751270
32
-2.016911
13
-0.496500
23
0.751270
33
-2.016911
0
3DFACE
8
0
70
0
10
-0.496500
20
0.453171
30
-2.016911
11
-0.496500
21
0.751270
31
-2.016911
12
-0.108805
22
0.453171
32
-2.108582
13
-0.108805
23
0.453171
33
-2.108582
0
3DFACE
8
0
70
0
10
-0.108805
20
0.453171
30
-2.108582
11
-0.496500
21
0.751270
31
-2.016911
12
-0.108805
22
0.751270
32
-2.108582
13
-0.108805
23
0.751270
33
-2.108582
0
3DFACE
8
0
70
0
10
-0.108805
20
0.453171
30
-2.108582
11
-0.108805
21
0.751270
31
-2.108582
12
0.679579
22
0.453171
32
-5.049943
13
0.679579
23
0.453171
33
-5.049943
0
3DFACE
8
0
70
0
10
0.679579
20
0.453171
30
-5.049943
11
-0.108805
21
0.751270
31
-2.108582
12
0.679579
22
0.751270
32
-5.049943
13
0.679579
23
0.751270
33
-5.049943
0
3DFACE
8
0
70
0
10
0.679579
20
0.453171
30
-5.049943
11
0.679579
21
0.751270
31
-5.049943
12
0.679579
22
0.453171
32
-5.305851
13
0.679579
23
0.453171
33
-5.305851
0
3DFACE
8
0
70
0
10
0.679579
20
0.453171
30
-5.305851
11
0.679579
21
0.751270
31
-5.049943
12
0.679579
22
0.751270
32
-5.305851
13
0.679579
23
0.751270
33
-5.305851
0
3DFACE
8
0
70
0
10
0.679579
20
0.453171
30
-5.305851
11
0.679579
21
0.751270
31
-5.305851
12
0.175810
22
0.453171
32
-6.363493
13
0.175810
23
0.453171
33
-6.363493
0
3DFACE
8
0
70
0
10
0.175810
20
0.453171
30
-6.363493
11
0.679579
21
0.751270
31
-5.305851
12
0.175810
22
0.751270
32
-6.363493
13
0.175810
23
0.751270
33
-6.363493
0
3DFACE
8
0
70
0
10
0.175810
20
0.453171
30
-6.363493
11
-0.570514
21
0.751270
31
-6.363493
12
-0.570514
22
0.453171
32
-6.363493
13
-0.570514
23
0.453171
33
-6.363493
0
3DFACE
8
0
70
0
10
0.175810
20
0.453171
30
-6.363493
11
0.175810
21
0.751270
31
-6.363493
12
-0.570514
22
0.751270
32
-6.363493
13
-0.570514
23
0.751270
33
-6.363493
0
3DFACE
8
0
70
0
10
-0.570514
20
0.453171
30
-6.363493
11
-1.316838
21
0.751270
31
-6.363493
12
-1.316838
22
0.453171
32
-6.363493
13
-1.316838
23
0.453171
33
-6.363493
0
3DFACE
8
0
70
0
10
-0.570514
20
0.453171
30
-6.363493
11
-0.570514
21
0.751270
31
-6.363493
12
-1.316838
22
0.751270
32
-6.363493
13
-1.316838
23
0.751270
33
-6.363493
0
3DFACE
8
0
70
0
10
-1.316838
20
0.453171
30
-6.363493
11
-2.063162
21
0.751270
31
-6.363493
12
-2.063162
22
0.453171
32
-6.363493
13
-2.063162
23
0.453171
33
-6.363493
0
3DFACE
8
0
70
0
10
-1.316838
20
0.453171
30
-6.363493
11
-1.316838
21
0.751270
31
-6.363493
12
-2.063162
22
0.751270
32
-6.363493
13
-2.063162
23
0.751270
33
-6.363493
0
3DFACE
8
0
70
0
10
-2.063162
20
0.453171
30
-6.363493
11
-2.809486
21
0.751270
31
-6.363493
12
-2.809486
22
0.453171
32
-6.363493
13
-2.809486
23
0.453171
33
-6.363493
0
3DFACE
8
0
70
0
10
-2.063162
20
0.453171
30
-6.363493
11
-2.063162
21
0.751270
31
-6.363493
12
-2.809486
22
0.751270
32
-6.363493
13
-2.809486
23
0.751270
33
-6.363493
0
3DFACE
8
0
70
0
10
-2.809486
20
0.453171
30
-6.363493
11
-3.555810
21
0.751270
31
-6.363493
12
-3.555810
22
0.453171
32
-6.363493
13
-3.555810
23
0.453171
33
-6.363493
0
3DFACE
8
0
70
0
10
-2.809486
20
0.453171
30
-6.363493
11
-2.809486
21
0.751270
31
-6.363493
12
-3.555810
22
0.751270
32
-6.363493
13
-3.555810
23
0.751270
33
-6.363493
0
3DFACE
8
0
70
0
10
-4.059579
20
0.453171
30
-5.305851
11
-3.555810
21
0.453171
31
-6.363493
12
-4.059579
22
0.751270
32
-5.305851
13
-4.059579
23
0.751270
33
-5.305851
0
3DFACE
8
0
70
0
10
-3.555810
20
0.453171
30
-6.363493
11
-3.555810
21
0.751270
31
-6.363493
12
-4.059579
22
0.751270
32
-5.305851
13
-4.059579
23
0.751270
33
-5.305851
0
3DFACE
8
0
70
0
10
-4.059579
20
0.453171
30
-5.049943
11
-4.059579
21
0.453171
31
-5.305851
12
-4.059579
22
0.751270
32
-5.049943
13
-4.059579
23
0.751270
33
-5.049943
0
3DFACE
8
0
70
0
10
-4.059579
20
0.453171
30
-5.305851
11
-4.059579
21
0.751270
31
-5.305851
12
-4.059579
22
0.751270
32
-5.049943
13
-4.059579
23
0.751270
33
-5.049943
0
3DFACE
8
0
70
0
10
-3.271195
20
0.453171
30
-2.108582
11
-4.059579
21
0.453171
31
-5.049943
12
-3.271195
22
0.751270
32
-2.108582
13
-3.271195
23
0.751270
33
-2.108582
0
3DFACE
8
0
70
0
10
-4.059579
20
0.453171
30
-5.049943
11
-4.059579
21
0.751270
31
-5.049943
12
-3.271195
22
0.751270
32
-2.108582
13
-3.271195
23
0.751270
33
-2.108582
0
3DFACE
8
0
70
0
10
-2.883500
20
0.453171
30
-2.016911
11
-3.271195
21
0.453171
31
-2.108582
12
-2.883500
22
0.751270
32
-2.016911
13
-2.883500
23
0.751270
33
-2.016911
0
3DFACE
8
0
70
0
10
-3.271195
20
0.453171
30
-2.108582
11
-3.271195
21
0.751270
31
-2.108582
12
-2.883500
22
0.751270
32
-2.016911
13
-2.883500
23
0.751270
33
-2.016911
0
3DFACE
8
0
70
0
10
-0.727785
20
0.518753
30
2.331435
11
-0.727785
21
0.685689
31
2.331435
12
-0.827785
22
0.518753
32
2.079435
13
-0.827785
23
0.518753
33
2.079435
0
3DFACE
8
0
70
0
10
-0.827785
20
0.518753
30
2.079435
11
-0.727785
21
0.685689
31
2.331435
12
-0.827785
22
0.685689
32
2.079435
13
-0.827785
23
0.685689
33
2.079435
0
3DFACE
8
0
70
0
10
-0.827785
20
0.518753
30
2.583435
11
-0.827785
21
0.685689
31
2.583435
12
-0.727785
22
0.518753
32
2.331435
13
-0.727785
23
0.518753
33
2.331435
0
3DFACE
8
0
70
0
10
-0.727785
20
0.518753
30
2.331435
11
-0.827785
21
0.685689
31
2.583435
12
-0.727785
22
0.685689
32
2.331435
13
-0.727785
23
0.685689
33
2.331435
0
3DFACE
8
0
70
0
10
-2.420994
20
0.501269
30
2.834127
11
-2.471923
21
0.501269
31
2.406324
12
-2.502215
22
0.518753
32
2.415435
13
-2.502215
23
0.518753
33
2.415435
0
3DFACE
8
0
70
0
10
-2.420994
20
0.501269
30
2.834127
11
-2.502215
21
0.518753
31
2.415435
12
-2.452215
22
0.518753
32
2.835435
13
-2.452215
23
0.518753
33
2.835435
0
3DFACE
8
0
70
0
10
-0.859006
20
0.501269
30
2.579179
11
-0.827785
21
0.518753
31
2.583435
12
-0.760695
22
0.501269
32
2.331435
13
-0.760695
23
0.501269
33
2.331435
0
3DFACE
8
0
70
0
10
-0.760695
20
0.501269
30
2.331435
11
-0.827785
21
0.518753
31
2.583435
12
-0.727785
22
0.518753
32
2.331435
13
-0.727785
23
0.518753
33
2.331435
0
3DFACE
8
0
70
0
10
-2.471923
20
0.501269
30
2.406324
11
-2.665278
21
0.501269
31
2.162697
12
-2.502215
22
0.518753
32
2.415435
13
-2.502215
23
0.518753
33
2.415435
0
3DFACE
8
0
70
0
10
-2.665278
20
0.501269
30
2.162697
11
-2.702215
21
0.518753
31
2.163435
12
-2.502215
22
0.518753
32
2.415435
13
-2.502215
23
0.518753
33
2.415435
0
3DFACE
8
0
70
0
10
-0.760695
20
0.501269
30
2.331435
11
-0.827785
21
0.518753
31
2.079435
12
-0.861986
22
0.501269
32
2.076183
13
-0.861986
23
0.501269
33
2.076183
0
3DFACE
8
0
70
0
10
-0.760695
20
0.501269
30
2.331435
11
-0.727785
21
0.518753
31
2.331435
12
-0.827785
22
0.518753
32
2.079435
13
-0.827785
23
0.518753
33
2.079435
0
3DFACE
8
0
70
0
10
-2.665278
20
0.501269
30
2.162697
11
-2.514424
21
0.501269
31
1.951501
12
-2.552215
22
0.518753
32
1.953435
13
-2.552215
23
0.518753
33
1.953435
0
3DFACE
8
0
70
0
10
-2.665278
20
0.501269
30
2.162697
11
-2.552215
21
0.518753
31
1.953435
12
-2.702215
22
0.518753
32
2.163435
13
-2.702215
23
0.518753
33
2.163435
0
3DFACE
8
0
70
0
10
0.151204
20
0.421950
30
-6.317982
11
0.679579
21
0.453171
31
-5.305851
12
0.175810
22
0.453171
32
-6.363493
13
0.175810
23
0.453171
33
-6.363493
0
3DFACE
8
0
70
0
10
0.638685
20
0.421950
30
-5.294534
11
0.679579
21
0.453171
31
-5.305851
12
0.151204
22
0.421950
32
-6.317982
13
0.151204
23
0.421950
33
-6.317982
0
3DFACE
8
0
70
0
10
0.151204
20
0.421950
30
-6.317982
11
-0.570514
21
0.453171
31
-6.363493
12
-0.570514
22
0.421950
32
-6.317982
13
-0.570514
23
0.421950
33
-6.317982
0
3DFACE
8
0
70
0
10
0.151204
20
0.421950
30
-6.317982
11
0.175810
21
0.453171
31
-6.363493
12
-0.570514
22
0.453171
32
-6.363493
13
-0.570514
23
0.453171
33
-6.363493
0
3DFACE
8
0
70
0
10
0.638685
20
0.421950
30
-5.053529
11
0.679579
21
0.453171
31
-5.049943
12
0.638685
22
0.421950
32
-5.294534
13
0.638685
23
0.421950
33
-5.294534
0
3DFACE
8
0
70
0
10
0.638685
20
0.421950
30
-5.294534
11
0.679579
21
0.453171
31
-5.049943
12
0.679579
22
0.453171
32
-5.305851
13
0.679579
23
0.453171
33
-5.305851
0
3DFACE
8
0
70
0
10
-0.527721
20
0.421950
30
-2.043596
11
-0.496500
21
0.453171
31
-2.016911
12
-0.139088
22
0.421950
32
-2.139437
13
-0.139088
23
0.421950
33
-2.139437
0
3DFACE
8
0
70
0
10
-0.139088
20
0.421950
30
-2.139437
11
-0.496500
21
0.453171
31
-2.016911
12
-0.108805
22
0.453171
32
-2.108582
13
-0.108805
23
0.453171
33
-2.108582
0
3DFACE
8
0
70
0
10
-0.139088
20
0.421950
30
-2.139437
11
0.679579
21
0.453171
31
-5.049943
12
0.638685
22
0.421950
32
-5.053529
13
0.638685
23
0.421950
33
-5.053529
0
3DFACE
8
0
70
0
10
-0.139088
20
0.421950
30
-2.139437
11
-0.108805
21
0.453171
31
-2.108582
12
0.679579
22
0.453171
32
-5.049943
13
0.679579
23
0.453171
33
-5.049943
0
3DFACE
8
0
70
0
10
-0.527721
20
0.421950
30
-1.688622
11
-0.496500
21
0.453171
31
-2.016911
12
-0.527721
22
0.421950
32
-2.043596
13
-0.527721
23
0.421950
33
-2.043596
0
3DFACE
8
0
70
0
10
-0.527721
20
0.421950
30
-1.688622
11
-0.496500
21
0.453171
31
-1.688622
12
-0.496500
22
0.453171
32
-2.016911
13
-0.496500
23
0.453171
33
-2.016911
0
3DFACE
8
0
70
0
10
-0.527721
20
0.421950
30
-1.170588
11
-0.496500
21
0.453171
31
-1.688622
12
-0.527721
22
0.421950
32
-1.688622
13
-0.527721
23
0.421950
33
-1.688622
0
3DFACE
8
0
70
0
10
-0.527721
20
0.421950
30
-1.170588
11
-0.496500
21
0.453171
31
-1.160333
12
-0.496500
22
0.453171
32
-1.688622
13
-0.496500
23
0.453171
33
-1.688622
0
3DFACE
8
0
70
0
10
-0.527721
20
0.421950
30
-1.170588
11
-0.659006
21
0.501269
31
-0.962568
12
-0.627785
22
0.518753
32
-0.953954
13
-0.627785
23
0.518753
33
-0.953954
0
3DFACE
8
0
70
0
10
-0.527721
20
0.421950
30
-1.170588
11
-0.627785
21
0.518753
31
-0.953954
12
-0.496500
22
0.453171
32
-1.160333
13
-0.496500
23
0.453171
33
-1.160333
0
3DFACE
8
0
70
0
10
-0.659006
20
0.501269
30
-0.683899
11
-0.627785
21
0.518753
31
-0.953954
12
-0.659006
22
0.501269
32
-0.962568
13
-0.659006
23
0.501269
33
-0.962568
0
3DFACE
8
0
70
0
10
-0.659006
20
0.501269
30
-0.683899
11
-0.627785
21
0.518753
31
-0.678192
12
-0.627785
22
0.518753
32
-0.953954
13
-0.627785
23
0.518753
33
-0.953954
0
3DFACE
8
0
70
0
10
-0.815963
20
0.501269
30
-0.395347
11
-0.777785
21
0.518753
31
-0.402429
12
-0.659006
22
0.501269
32
-0.683899
13
-0.659006
23
0.501269
33
-0.683899
0
3DFACE
8
0
70
0
10
-0.659006
20
0.501269
30
-0.683899
11
-0.777785
21
0.518753
31
-0.402429
12
-0.627785
22
0.518753
32
-0.678192
13
-0.627785
23
0.518753
33
-0.678192
0
3DFACE
8
0
70
0
10
-0.663605
20
0.501269
30
-0.285890
11
-0.777785
21
0.518753
31
-0.402429
12
-0.815963
22
0.501269
32
-0.395347
13
-0.815963
23
0.501269
33
-0.395347
0
3DFACE
8
0
70
0
10
-0.663605
20
0.501269
30
-0.285890
11
-0.627785
21
0.518753
31
-0.294666
12
-0.777785
22
0.518753
32
-0.402429
13
-0.777785
23
0.518753
33
-0.402429
0
3DFACE
8
0
70
0
10
-0.761017
20
0.501269
30
-0.017266
11
-0.727785
21
0.518753
31
-0.018903
12
-0.663605
22
0.501269
32
-0.285890
13
-0.663605
23
0.501269
33
-0.285890
0
3DFACE
8
0
70
0
10
-0.663605
20
0.501269
30
-0.285890
11
-0.727785
21
0.518753
31
-0.018903
12
-0.627785
22
0.518753
32
-0.294666
13
-0.627785
23
0.518753
33
-0.294666
0
3DFACE
8
0
70
0
10
-0.663422
20
0.501269
30
0.169883
11
-0.727785
21
0.518753
31
-0.018903
12
-0.761017
22
0.501269
32
-0.017266
13
-0.761017
23
0.501269
33
-0.017266
0
3DFACE
8
0
70
0
10
-0.663422
20
0.501269
30
0.169883
11
-0.627785
21
0.518753
31
0.172859
12
-0.727785
22
0.518753
32
-0.018903
13
-0.727785
23
0.518753
33
-0.018903
0
3DFACE
8
0
70
0
10
-0.944691
20
0.501269
30
0.598608
11
-0.627785
21
0.518753
31
0.172859
12
-0.663422
22
0.501269
32
0.169883
13
-0.663422
23
0.501269
33
0.169883
0
3DFACE
8
0
70
0
10
-0.944691
20
0.501269
30
0.598608
11
-0.927785
21
0.518753
31
0.532622
12
-0.627785
22
0.518753
32
0.172859
13
-0.627785
23
0.518753
33
0.172859
0
3DFACE
8
0
70
0
10
-0.859891
20
0.501269
30
0.974919
11
-0.827785
21
0.518753
31
0.976385
12
-0.944691
22
0.501269
32
0.598608
13
-0.944691
23
0.501269
33
0.598608
0
3DFACE
8
0
70
0
10
-0.944691
20
0.501269
30
0.598608
11
-0.827785
21
0.518753
31
0.976385
12
-0.927785
22
0.518753
32
0.532622
13
-0.927785
23
0.518753
33
0.532622
0
3DFACE
8
0
70
0
10
-0.961730
20
0.501269
30
1.255752
11
-0.927785
21
0.518753
31
1.252147
12
-0.859891
22
0.501269
32
0.974919
13
-0.859891
23
0.501269
33
0.974919
0
3DFACE
8
0
70
0
10
-0.859891
20
0.501269
30
0.974919
11
-0.927785
21
0.518753
31
1.252147
12
-0.827785
22
0.518753
32
0.976385
13
-0.827785
23
0.518753
33
0.976385
0
3DFACE
8
0
70
0
10
-0.756502
20
0.501269
30
1.538724
11
-0.927785
21
0.518753
31
1.252147
12
-0.961730
22
0.501269
32
1.255752
13
-0.961730
23
0.501269
33
1.255752
0
3DFACE
8
0
70
0
10
-0.756502
20
0.501269
30
1.538724
11
-0.727785
21
0.518753
31
1.527910
12
-0.927785
22
0.518753
32
1.252147
13
-0.927785
23
0.518753
33
1.252147
0
3DFACE
8
0
70
0
10
-0.661730
20
0.501269
30
1.800068
11
-0.727785
21
0.518753
31
1.527910
12
-0.756502
22
0.501269
32
1.538724
13
-0.756502
23
0.501269
33
1.538724
0
3DFACE
8
0
70
0
10
-0.661730
20
0.501269
30
1.800068
11
-0.627785
21
0.518753
31
1.803673
12
-0.727785
22
0.518753
32
1.527910
13
-0.727785
23
0.518753
33
1.527910
0
3DFACE
8
0
70
0
10
-0.861986
20
0.501269
30
2.076183
11
-0.827785
21
0.518753
31
2.079435
12
-0.661730
22
0.501269
32
1.800068
13
-0.661730
23
0.501269
33
1.800068
0
3DFACE
8
0
70
0
10
-0.661730
20
0.501269
30
1.800068
11
-0.827785
21
0.518753
31
2.079435
12
-0.627785
22
0.518753
32
1.803673
13
-0.627785
23
0.518753
33
1.803673
0
3DFACE
8
0
70
0
10
-0.570514
20
0.421950
30
-6.317982
11
-1.316838
21
0.453171
31
-6.363493
12
-1.316838
22
0.421950
32
-6.317982
13
-1.316838
23
0.421950
33
-6.317982
0
3DFACE
8
0
70
0
10
-0.570514
20
0.421950
30
-6.317982
11
-0.570514
21
0.453171
31
-6.363493
12
-1.316838
22
0.453171
32
-6.363493
13
-1.316838
23
0.453171
33
-6.363493
0
3DFACE
8
0
70
0
10
-1.316838
20
0.421950
30
-6.317982
11
-2.063162
21
0.453171
31
-6.363493
12
-2.063162
22
0.421950
32
-6.317982
13
-2.063162
23
0.421950
33
-6.317982
0
3DFACE
8
0
70
0
10
-1.316838
20
0.421950
30
-6.317982
11
-1.316838
21
0.453171
31
-6.363493
12
-2.063162
22
0.453171
32
-6.363493
13
-2.063162
23
0.453171
33
-6.363493
0
3DFACE
8
0
70
0
10
-2.063162
20
0.421950
30
-6.317982
11
-2.809486
21
0.453171
31
-6.363493
12
-2.809486
22
0.421950
32
-6.317982
13
-2.809486
23
0.421950
33
-6.317982
0
3DFACE
8
0
70
0
10
-2.063162
20
0.421950
30
-6.317982
11
-2.063162
21
0.453171
31
-6.363493
12
-2.809486
22
0.453171
32
-6.363493
13
-2.809486
23
0.453171
33
-6.363493
0
3DFACE
8
0
70
0
10
-4.018685
20
0.421950
30
-5.294534
11
-3.531204
21
0.421950
31
-6.317982
12
-4.059579
22
0.453171
32
-5.305851
13
-4.059579
23
0.453171
33
-5.305851
0
3DFACE
8
0
70
0
10
-3.531204
20
0.421950
30
-6.317982
11
-3.555810
21
0.453171
31
-6.363493
12
-4.059579
22
0.453171
32
-5.305851
13
-4.059579
23
0.453171
33
-5.305851
0
3DFACE
8
0
70
0
10
-2.809486
20
0.421950
30
-6.317982
11
-2.809486
21
0.453171
31
-6.363493
12
-3.531204
22
0.421950
32
-6.317982
13
-3.531204
23
0.421950
33
-6.317982
0
3DFACE
8
0
70
0
10
-3.531204
20
0.421950
30
-6.317982
11
-2.809486
21
0.453171
31
-6.363493
12
-3.555810
22
0.453171
32
-6.363493
13
-3.555810
23
0.453171
33
-6.363493
0
3DFACE
8
0
70
0
10
-4.018685
20
0.421950
30
-5.053529
11
-4.018685
21
0.421950
31
-5.294534
12
-4.059579
22
0.453171
32
-5.049943
13
-4.059579
23
0.453171
33
-5.049943
0
3DFACE
8
0
70
0
10
-4.018685
20
0.421950
30
-5.294534
11
-4.059579
21
0.453171
31
-5.305851
12
-4.059579
22
0.453171
32
-5.049943
13
-4.059579
23
0.453171
33
-5.049943
0
3DFACE
8
0
70
0
10
-3.240912
20
0.421950
30
-2.139437
11
-4.018685
21
0.421950
31
-5.053529
12
-4.059579
22
0.453171
32
-5.049943
13
-4.059579
23
0.453171
33
-5.049943
0
3DFACE
8
0
70
0
10
-3.240912
20
0.421950
30
-2.139437
11
-4.059579
21
0.453171
31
-5.049943
12
-3.271195
22
0.453171
32
-2.108582
13
-3.271195
23
0.453171
33
-2.108582
0
3DFACE
8
0
70
0
10
-2.852279
20
0.421950
30
-2.043596
11
-3.240912
21
0.421950
31
-2.139437
12
-2.883500
22
0.453171
32
-2.016911
13
-2.883500
23
0.453171
33
-2.016911
0
3DFACE
8
0
70
0
10
-3.240912
20
0.421950
30
-2.139437
11
-3.271195
21
0.453171
31
-2.108582
12
-2.883500
22
0.453171
32
-2.016911
13
-2.883500
23
0.453171
33
-2.016911
0
3DFACE
8
0
70
0
10
-2.852279
20
0.421950
30
-1.688622
11
-2.852279
21
0.421950
31
-2.043596
12
-2.883500
22
0.453171
32
-2.016911
13
-2.883500
23
0.453171
33
-2.016911
0
3DFACE
8
0
70
0
10
-2.852279
20
0.421950
30
-1.688622
11
-2.883500
21
0.453171
31
-2.016911
12
-2.883500
22
0.453171
32
-1.688622
13
-2.883500
23
0.453171
33
-1.688622
0
3DFACE
8
0
70
0
10
-2.852279
20
0.421950
30
-1.170588
11
-2.852279
21
0.421950
31
-1.688622
12
-2.883500
22
0.453171
32
-1.688622
13
-2.883500
23
0.453171
33
-1.688622
0
3DFACE
8
0
70
0
10
-2.852279
20
0.421950
30
-1.170588
11
-2.883500
21
0.453171
31
-1.688622
12
-2.883500
22
0.453171
32
-1.160333
13
-2.883500
23
0.453171
33
-1.160333
0
3DFACE
8
0
70
0
10
-2.852279
20
0.421950
30
-1.170588
11
-2.752215
21
0.518753
31
-0.953954
12
-2.726264
22
0.501269
32
-0.968580
13
-2.726264
23
0.501269
33
-0.968580
0
3DFACE
8
0
70
0
10
-2.852279
20
0.421950
30
-1.170588
11
-2.883500
21
0.453171
31
-1.160333
12
-2.752215
22
0.518753
32
-0.953954
13
-2.752215
23
0.518753
33
-0.953954
0
3DFACE
8
0
70
0
10
-2.520994
20
0.501269
30
-0.685551
11
-2.726264
21
0.501269
31
-0.968580
12
-2.552215
22
0.518753
32
-0.678192
13
-2.552215
23
0.518753
33
-0.678192
0
3DFACE
8
0
70
0
10
-2.726264
20
0.501269
30
-0.968580
11
-2.752215
21
0.518753
31
-0.953954
12
-2.552215
22
0.518753
32
-0.678192
13
-2.552215
23
0.518753
33
-0.678192
0
3DFACE
8
0
70
0
10
-2.520994
20
0.501269
30
-0.402429
11
-2.520994
21
0.501269
31
-0.685551
12
-2.552215
22
0.518753
32
-0.678192
13
-2.552215
23
0.518753
33
-0.678192
0
3DFACE
8
0
70
0
10
-2.520994
20
0.501269
30
-0.402429
11
-2.552215
21
0.518753
31
-0.678192
12
-2.552215
22
0.518753
32
-0.402429
13
-2.552215
23
0.518753
33
-0.402429
0
3DFACE
8
0
70
0
10
-2.520994
20
0.501269
30
-0.119306
11
-2.520994
21
0.501269
31
-0.402429
12
-2.552215
22
0.518753
32
-0.126666
13
-2.552215
23
0.518753
33
-0.126666
0
3DFACE
8
0
70
0
10
-2.520994
20
0.501269
30
-0.402429
11
-2.552215
21
0.518753
31
-0.402429
12
-2.552215
22
0.518753
32
-0.126666
13
-2.552215
23
0.518753
33
-0.126666
0
3DFACE
8
0
70
0
10
-2.718270
20
0.501269
30
0.152701
11
-2.520994
21
0.501269
31
-0.119306
12
-2.552215
22
0.518753
32
-0.126666
13
-2.552215
23
0.518753
33
-0.126666
0
3DFACE
8
0
70
0
10
-2.718270
20
0.501269
30
0.152701
11
-2.552215
21
0.518753
31
-0.126666
12
-2.752215
22
0.518753
32
0.149097
13
-2.752215
23
0.518753
33
0.149097
0
3DFACE
8
0
70
0
10
-2.620994
20
0.501269
30
0.420953
11
-2.718270
21
0.501269
31
0.152701
12
-2.652215
22
0.518753
32
0.424859
13
-2.652215
23
0.518753
33
0.424859
0
3DFACE
8
0
70
0
10
-2.718270
20
0.501269
30
0.152701
11
-2.752215
21
0.518753
31
0.149097
12
-2.652215
22
0.518753
32
0.424859
13
-2.652215
23
0.518753
33
0.424859
0
3DFACE
8
0
70
0
10
-2.620994
20
0.501269
30
0.704528
11
-2.620994
21
0.501269
31
0.420953
12
-2.652215
22
0.518753
32
0.424859
13
-2.652215
23
0.518753
33
0.424859
0
3DFACE
8
0
70
0
10
-2.620994
20
0.501269
30
0.704528
11
-2.652215
21
0.518753
31
0.424859
12
-2.652215
22
0.518753
32
0.700622
13
-2.652215
23
0.518753
33
0.700622
0
3DFACE
8
0
70
0
10
-2.717848
20
0.501269
30
0.971615
11
-2.620994
21
0.501269
31
0.704528
12
-2.652215
22
0.518753
32
0.700622
13
-2.652215
23
0.518753
33
0.700622
0
3DFACE
8
0
70
0
10
-2.717848
20
0.501269
30
0.971615
11
-2.652215
21
0.518753
31
0.700622
12
-2.752215
22
0.518753
32
0.976385
13
-2.752215
23
0.518753
33
0.976385
0
3DFACE
8
0
70
0
10
-2.521929
20
0.501269
30
1.200608
11
-2.717848
21
0.501269
31
0.971615
12
-2.552215
22
0.518753
32
1.210147
13
-2.552215
23
0.518753
33
1.210147
0
3DFACE
8
0
70
0
10
-2.717848
20
0.501269
30
0.971615
11
-2.752215
21
0.518753
31
0.976385
12
-2.552215
22
0.518753
32
1.210147
13
-2.552215
23
0.518753
33
1.210147
0
3DFACE
8
0
70
0
10
-2.470099
20
0.501269
30
1.660612
11
-2.521929
21
0.501269
31
1.200608
12
-2.502215
22
0.518753
32
1.653910
13
-2.502215
23
0.518753
33
1.653910
0
3DFACE
8
0
70
0
10
-2.521929
20
0.501269
30
1.200608
11
-2.552215
21
0.518753
31
1.210147
12
-2.502215
22
0.518753
32
1.653910
13
-2.502215
23
0.518753
33
1.653910
0
3DFACE
8
0
70
0
10
-2.613838
20
0.501269
30
1.844370
11
-2.470099
21
0.501269
31
1.660612
12
-2.502215
22
0.518753
32
1.653910
13
-2.502215
23
0.518753
33
1.653910
0
3DFACE
8
0
70
0
10
-2.613838
20
0.501269
30
1.844370
11
-2.502215
21
0.518753
31
1.653910
12
-2.652215
22
0.518753
32
1.845673
13
-2.652215
23
0.518753
33
1.845673
0
3DFACE
8
0
70
0
10
-2.514424
20
0.501269
30
1.951501
11
-2.613838
21
0.501269
31
1.844370
12
-2.552215
22
0.518753
32
1.953435
13
-2.552215
23
0.518753
33
1.953435
0
3DFACE
8
0
70
0
10
-2.613838
20
0.501269
30
1.844370
11
-2.652215
21
0.518753
31
1.845673
12
-2.552215
22
0.518753
32
1.953435
13
-2.552215
23
0.518753
33
1.953435
0
3DFACE
8
0
70
0
10
-1.477557
20
0.703173
30
3.380111
11
-1.477557
21
0.703173
31
3.255435
12
-1.329133
22
0.703173
32
3.255435
13
-1.329133
23
0.703173
33
3.255435
0
3DFACE
8
0
70
0
10
-1.902443
20
0.703173
30
3.396911
11
-2.070867
21
0.703173
31
3.255435
12
-1.902443
22
0.703173
32
3.255435
13
-1.902443
23
0.703173
33
3.255435
0
3DFACE
8
0
70
0
10
-1.052671
20
0.703173
30
3.023207
11
-1.052671
21
0.703173
31
2.919435
12
-0.850838
22
0.703173
32
2.853667
13
-0.850838
23
0.703173
33
2.853667
0
3DFACE
8
0
70
0
10
-1.052671
20
0.703173
30
2.919435
11
-0.859006
21
0.703173
31
2.843376
12
-0.850838
22
0.703173
32
2.853667
13
-0.850838
23
0.703173
33
2.853667
0
3DFACE
8
0
70
0
10
-1.329133
20
0.703173
30
3.255435
11
-1.477557
21
0.703173
31
3.255435
12
-1.477557
22
0.703173
32
2.919435
13
-1.477557
23
0.703173
33
2.919435
0
3DFACE
8
0
70
0
10
-1.052671
20
0.703173
30
3.023207
11
-1.477557
21
0.703173
31
2.919435
12
-1.052671
22
0.703173
32
2.919435
13
-1.052671
23
0.703173
33
2.919435
0
3DFACE
8
0
70
0
10
-1.329133
20
0.703173
30
3.255435
11
-1.477557
21
0.703173
31
2.919435
12
-1.052671
22
0.703173
32
3.023207
13
-1.052671
23
0.703173
33
3.023207
0
3DFACE
8
0
70
0
10
-0.829719
20
0.686772
30
2.835927
11
-0.850838
21
0.703173
31
2.853667
12
-0.859006
22
0.703173
32
2.843376
13
-0.859006
23
0.703173
33
2.843376
0
3DFACE
8
0
70
0
10
-0.827785
20
0.685689
30
2.834303
11
-0.859006
21
0.703173
31
2.579179
12
-0.827785
22
0.685689
32
2.583435
13
-0.827785
23
0.685689
33
2.583435
0
3DFACE
8
0
70
0
10
-0.827785
20
0.685689
30
2.834303
11
-0.859006
21
0.703173
31
2.843376
12
-0.859006
22
0.703173
32
2.579179
13
-0.859006
23
0.703173
33
2.579179
0
3DFACE
8
0
70
0
10
-0.827785
20
0.685689
30
2.834303
11
-0.829719
21
0.686772
31
2.835927
12
-0.859006
22
0.703173
32
2.843376
13
-0.859006
23
0.703173
33
2.843376
0
3DFACE
8
0
70
0
10
-1.902443
20
0.501269
30
3.396911
11
-1.477557
21
0.501269
31
3.255435
12
-1.902443
22
0.501269
32
3.255435
13
-1.902443
23
0.501269
33
3.255435
0
3DFACE
8
0
70
0
10
-1.902443
20
0.501269
30
3.396911
11
-1.477557
21
0.501269
31
3.380111
12
-1.477557
22
0.501269
32
3.255435
13
-1.477557
23
0.501269
33
3.255435
0
3DFACE
8
0
70
0
10
-1.697911
20
0.501269
30
3.565209
11
-1.902443
21
0.501269
31
3.396911
12
-1.702088
22
0.501269
32
3.565209
13
-1.702088
23
0.501269
33
3.565209
0
3DFACE
8
0
70
0
10
-1.697911
20
0.501269
30
3.565209
11
-1.477557
21
0.501269
31
3.380111
12
-1.902443
22
0.501269
32
3.396911
13
-1.902443
23
0.501269
33
3.396911
0
3DFACE
8
0
70
0
10
-1.902443
20
0.501269
30
3.396911
11
-1.902443
21
0.501269
31
3.255435
12
-2.070867
22
0.501269
32
3.255435
13
-2.070867
23
0.501269
33
3.255435
0
3DFACE
8
0
70
0
10
-1.902443
20
0.501269
30
3.255435
11
-1.902443
21
0.501269
31
2.919435
12
-2.070867
22
0.501269
32
3.255435
13
-2.070867
23
0.501269
33
3.255435
0
3DFACE
8
0
70
0
10
-2.327329
20
0.501269
30
3.040007
11
-1.902443
21
0.501269
31
2.919435
12
-2.327329
22
0.501269
32
2.919435
13
-2.327329
23
0.501269
33
2.919435
0
3DFACE
8
0
70
0
10
-2.070867
20
0.501269
30
3.255435
11
-1.902443
21
0.501269
31
2.919435
12
-2.327329
22
0.501269
32
3.040007
13
-2.327329
23
0.501269
33
3.040007
0
3DFACE
8
0
70
0
10
-2.420994
20
0.501269
30
2.961328
11
-2.327329
21
0.501269
31
2.919435
12
-2.420994
22
0.501269
32
2.834127
13
-2.420994
23
0.501269
33
2.834127
0
3DFACE
8
0
70
0
10
-2.327329
20
0.501269
30
3.040007
11
-2.327329
21
0.501269
31
2.919435
12
-2.420994
22
0.501269
32
2.961328
13
-2.420994
23
0.501269
33
2.961328
0
3DFACE
8
0
70
0
10
-0.827785
20
0.518753
30
2.583435
11
-0.827785
21
0.685689
31
2.834303
12
-0.827785
22
0.685689
32
2.583435
13
-0.827785
23
0.685689
33
2.583435
0
3DFACE
8
0
70
0
10
-0.827785
20
0.518753
30
2.834303
11
-0.827785
21
0.685689
31
2.834303
12
-0.827785
22
0.518753
32
2.583435
13
-0.827785
23
0.518753
33
2.583435
0
3DFACE
8
0
70
0
10
-1.700000
20
0.518358
30
3.590842
11
-1.700706
21
0.518753
31
3.591435
12
-1.699294
22
0.518753
32
3.591435
13
-1.699294
23
0.518753
33
3.591435
0
3DFACE
8
0
70
0
10
-1.697911
20
0.501269
30
3.565209
11
-1.702088
21
0.501269
31
3.565209
12
-1.700000
22
0.502439
32
3.566963
13
-1.700000
23
0.502439
33
3.566963
0
3DFACE
8
0
70
0
10
-1.700000
20
0.502439
30
3.566963
11
-1.714213
21
0.510398
31
3.578903
12
-1.700000
22
0.518358
32
3.590842
13
-1.700000
23
0.518358
33
3.590842
0
3DFACE
8
0
70
0
10
-1.700000
20
0.502439
30
3.566963
11
-1.700000
21
0.518358
31
3.590842
12
-1.685786
22
0.510398
32
3.578903
13
-1.685786
23
0.510398
33
3.578903
0
3DFACE
8
0
70
0
10
-0.850838
20
0.501269
30
2.853667
11
-0.829719
21
0.517670
31
2.835927
12
-0.859006
22
0.501269
32
2.843376
13
-0.859006
23
0.501269
33
2.843376
0
3DFACE
8
0
70
0
10
-2.420994
20
0.501269
30
2.961328
11
-2.420994
21
0.501269
31
2.834127
12
-2.452215
22
0.518753
32
2.935102
13
-2.452215
23
0.518753
33
2.935102
0
3DFACE
8
0
70
0
10
-2.420994
20
0.501269
30
2.834127
11
-2.452215
21
0.518753
31
2.835435
12
-2.452215
22
0.518753
32
2.935102
13
-2.452215
23
0.518753
33
2.935102
0
3DFACE
8
0
70
0
10
-0.859006
20
0.501269
30
2.579179
11
-0.827785
21
0.518753
31
2.834303
12
-0.827785
22
0.518753
32
2.583435
13
-0.827785
23
0.518753
33
2.583435
0
3DFACE
8
0
70
0
10
-0.859006
20
0.501269
30
2.843376
11
-0.827785
21
0.518753
31
2.834303
12
-0.859006
22
0.501269
32
2.579179
13
-0.859006
23
0.501269
33
2.579179
0
3DFACE
8
0
70
0
10
-0.859006
20
0.501269
30
2.843376
11
-0.829719
21
0.517670
31
2.835927
12
-0.827785
22
0.518753
32
2.834303
13
-0.827785
23
0.518753
33
2.834303
0
3DFACE
8
0
70
0
10
-1.902443
20
0.703173
30
2.919435
11
-2.166999
21
0.703173
31
2.919435
12
-1.902443
22
0.703173
32
2.583435
13
-1.902443
23
0.703173
33
2.583435
0
3DFACE
8
0
70
0
10
-2.166999
20
0.703173
30
2.919435
11
-2.166999
21
0.703173
31
2.583435
12
-1.902443
22
0.703173
32
2.583435
13
-1.902443
23
0.703173
33
2.583435
0
3DFACE
8
0
70
0
10
-1.902443
20
0.703173
30
2.583435
11
-2.166999
21
0.703173
31
2.583435
12
-1.902443
22
0.703173
32
2.331435
13
-1.902443
23
0.703173
33
2.331435
0
3DFACE
8
0
70
0
10
-2.166999
20
0.703173
30
2.583435
11
-2.166999
21
0.703173
31
2.331435
12
-1.902443
22
0.703173
32
2.331435
13
-1.902443
23
0.703173
33
2.331435
0
3DFACE
8
0
70
0
10
-1.902443
20
0.703173
30
2.331435
11
-2.166999
21
0.703173
31
2.331435
12
-1.902443
22
0.703173
32
2.079435
13
-1.902443
23
0.703173
33
2.079435
0
3DFACE
8
0
70
0
10
-2.166999
20
0.703173
30
2.331435
11
-2.166999
21
0.703173
31
2.079435
12
-1.902443
22
0.703173
32
2.079435
13
-1.902443
23
0.703173
33
2.079435
0
3DFACE
8
0
70
0
10
-1.928700
20
0.782492
30
-1.688622
11
-2.166999
21
0.782492
31
-1.688622
12
-1.928700
22
0.782492
32
-2.016911
13
-1.928700
23
0.782492
33
-2.016911
0
3DFACE
8
0
70
0
10
-2.166999
20
0.782492
30
-1.975434
11
-2.766604
21
0.782492
31
-1.975434
12
-2.852279
22
0.782492
32
-2.043596
13
-2.852279
23
0.782492
33
-2.043596
0
3DFACE
8
0
70
0
10
-2.166999
20
0.782492
30
-1.688622
11
-2.166999
21
0.782492
31
-1.737717
12
-1.928700
22
0.782492
32
-2.016911
13
-1.928700
23
0.782492
33
-2.016911
0
3DFACE
8
0
70
0
10
-2.166999
20
0.782492
30
-1.737717
11
-2.166999
21
0.782492
31
-1.856575
12
-1.928700
22
0.782492
32
-2.016911
13
-1.928700
23
0.782492
33
-2.016911
0
3DFACE
8
0
70
0
10
-2.166999
20
0.782492
30
-1.856575
11
-2.166999
21
0.782492
31
-1.975434
12
-1.928700
22
0.782492
32
-2.016911
13
-1.928700
23
0.782492
33
-2.016911
0
3DFACE
8
0
70
0
10
-2.166999
20
0.782492
30
-1.975434
11
-2.852279
21
0.782492
31
-2.043596
12
-1.928700
22
0.782492
32
-2.016911
13
-1.928700
23
0.782492
33
-2.016911
0
3DFACE
8
0
70
0
10
-1.928700
20
0.782492
30
-1.160333
11
-2.166999
21
0.782492
31
-1.160333
12
-2.166999
22
0.782492
32
-1.618859
13
-2.166999
23
0.782492
33
-1.618859
0
3DFACE
8
0
70
0
10
-1.928700
20
0.782492
30
-1.160333
11
-2.166999
21
0.782492
31
-1.618859
12
-1.928700
22
0.782492
32
-1.688622
13
-1.928700
23
0.782492
33
-1.688622
0
3DFACE
8
0
70
0
10
-2.166999
20
0.782492
30
-1.618859
11
-2.166999
21
0.782492
31
-1.688622
12
-1.928700
22
0.782492
32
-1.688622
13
-1.928700
23
0.782492
33
-1.688622
0
3DFACE
8
0
70
0
10
-1.902443
20
0.703173
30
-0.953954
11
-2.166999
21
0.703173
31
-0.953954
12
-1.928700
22
0.782492
32
-1.160333
13
-1.928700
23
0.782492
33
-1.160333
0
3DFACE
8
0
70
0
10
-2.166999
20
0.703173
30
-0.953954
11
-2.166999
21
0.782492
31
-1.160333
12
-1.928700
22
0.782492
32
-1.160333
13
-1.928700
23
0.782492
33
-1.160333
0
3DFACE
8
0
70
0
10
-1.902443
20
0.703173
30
-0.678192
11
-2.166999
21
0.703173
31
-0.953954
12
-1.902443
22
0.703173
32
-0.953954
13
-1.902443
23
0.703173
33
-0.953954
0
3DFACE
8
0
70
0
10
-1.902443
20
0.703173
30
-0.678192
11
-2.166999
21
0.703173
31
-0.678192
12
-2.166999
22
0.703173
32
-0.953954
13
-2.166999
23
0.703173
33
-0.953954
0
3DFACE
8
0
70
0
10
-1.902443
20
0.703173
30
-0.402429
11
-2.166999
21
0.703173
31
-0.678192
12
-1.902443
22
0.703173
32
-0.678192
13
-1.902443
23
0.703173
33
-0.678192
0
3DFACE
8
0
70
0
10
-1.902443
20
0.703173
30
-0.402429
11
-2.166999
21
0.703173
31
-0.402429
12
-2.166999
22
0.703173
32
-0.678192
13
-2.166999
23
0.703173
33
-0.678192
0
3DFACE
8
0
70
0
10
-1.902443
20
0.703173
30
-0.126666
11
-2.166999
21
0.703173
31
-0.402429
12
-1.902443
22
0.703173
32
-0.402429
13
-1.902443
23
0.703173
33
-0.402429
0
3DFACE
8
0
70
0
10
-1.902443
20
0.703173
30
-0.126666
11
-2.166999
21
0.703173
31
-0.126666
12
-2.166999
22
0.703173
32
-0.402429
13
-2.166999
23
0.703173
33
-0.402429
0
3DFACE
8
0
70
0
10
-1.902443
20
0.703173
30
0.149097
11
-2.166999
21
0.703173
31
-0.126666
12
-1.902443
22
0.703173
32
-0.126666
13
-1.902443
23
0.703173
33
-0.126666
0
3DFACE
8
0
70
0
10
-1.902443
20
0.703173
30
0.149097
11
-2.166999
21
0.703173
31
0.149097
12
-2.166999
22
0.703173
32
-0.126666
13
-2.166999
23
0.703173
33
-0.126666
0
3DFACE
8
0
70
0
10
-1.902443
20
0.703173
30
0.424859
11
-2.166999
21
0.703173
31
0.149097
12
-1.902443
22
0.703173
32
0.149097
13
-1.902443
23
0.703173
33
0.149097
0
3DFACE
8
0
70
0
10
-1.902443
20
0.703173
30
0.424859
11
-2.166999
21
0.703173
31
0.424859
12
-2.166999
22
0.703173
32
0.149097
13
-2.166999
23
0.703173
33
0.149097
0
3DFACE
8
0
70
0
10
-1.902443
20
0.703173
30
0.700622
11
-2.166999
21
0.703173
31
0.424859
12
-1.902443
22
0.703173
32
0.424859
13
-1.902443
23
0.703173
33
0.424859
0
3DFACE
8
0
70
0
10
-1.902443
20
0.703173
30
0.700622
11
-2.166999
21
0.703173
31
0.700622
12
-2.166999
22
0.703173
32
0.424859
13
-2.166999
23
0.703173
33
0.424859
0
3DFACE
8
0
70
0
10
-1.902443
20
0.703173
30
0.976385
11
-2.166999
21
0.703173
31
0.700622
12
-1.902443
22
0.703173
32
0.700622
13
-1.902443
23
0.703173
33
0.700622
0
3DFACE
8
0
70
0
10
-1.902443
20
0.703173
30
0.976385
11
-2.166999
21
0.703173
31
0.976385
12
-2.166999
22
0.703173
32
0.700622
13
-2.166999
23
0.703173
33
0.700622
0
3DFACE
8
0
70
0
10
-1.902443
20
0.703173
30
1.252147
11
-2.166999
21
0.703173
31
0.976385
12
-1.902443
22
0.703173
32
0.976385
13
-1.902443
23
0.703173
33
0.976385
0
3DFACE
8
0
70
0
10
-1.902443
20
0.703173
30
1.252147
11
-2.166999
21
0.703173
31
1.252147
12
-2.166999
22
0.703173
32
0.976385
13
-2.166999
23
0.703173
33
0.976385
0
3DFACE
8
0
70
0
10
-1.902443
20
0.703173
30
1.527910
11
-2.166999
21
0.703173
31
1.252147
12
-1.902443
22
0.703173
32
1.252147
13
-1.902443
23
0.703173
33
1.252147
0
3DFACE
8
0
70
0
10
-1.902443
20
0.703173
30
1.527910
11
-2.166999
21
0.703173
31
1.527910
12
-2.166999
22
0.703173
32
1.252147
13
-2.166999
23
0.703173
33
1.252147
0
3DFACE
8
0
70
0
10
-1.902443
20
0.703173
30
1.803673
11
-2.166999
21
0.703173
31
1.527910
12
-1.902443
22
0.703173
32
1.527910
13
-1.902443
23
0.703173
33
1.527910
0
3DFACE
8
0
70
0
10
-1.902443
20
0.703173
30
1.803673
11
-2.166999
21
0.703173
31
1.803673
12
-2.166999
22
0.703173
32
1.527910
13
-2.166999
23
0.703173
33
1.527910
0
3DFACE
8
0
70
0
10
-1.902443
20
0.703173
30
2.079435
11
-2.166999
21
0.703173
31
1.803673
12
-1.902443
22
0.703173
32
1.803673
13
-1.902443
23
0.703173
33
1.803673
0
3DFACE
8
0
70
0
10
-1.902443
20
0.703173
30
2.079435
11
-2.166999
21
0.703173
31
2.079435
12
-2.166999
22
0.703173
32
1.803673
13
-2.166999
23
0.703173
33
1.803673
0
3DFACE
8
0
70
0
10
-2.766604
20
0.782492
30
-1.975434
11
-2.852279
21
0.782492
31
-1.975434
12
-2.852279
22
0.782492
32
-2.043596
13
-2.852279
23
0.782492
33
-2.043596
0
3DFACE
8
0
70
0
10
-2.883500
20
0.751270
30
-2.016911
11
-2.852279
21
0.782492
31
-2.043596
12
-2.852279
22
0.782492
32
-1.975434
13
-2.852279
23
0.782492
33
-1.975434
0
3DFACE
8
0
70
0
10
-2.883500
20
0.751270
30
-1.975434
11
-2.883500
21
0.751270
31
-2.016911
12
-2.852279
22
0.782492
32
-1.975434
13
-2.852279
23
0.782492
33
-1.975434
0
3DFACE
8
0
70
0
10
-2.883500
20
0.453171
30
-1.688622
11
-2.883500
21
0.560000
31
-1.737717
12
-2.883500
22
0.560000
32
-1.688622
13
-2.883500
23
0.560000
33
-1.688622
0
3DFACE
8
0
70
0
10
-2.883500
20
0.453171
30
-1.688622
11
-2.883500
21
0.453171
31
-2.016911
12
-2.883500
22
0.560000
32
-1.737717
13
-2.883500
23
0.560000
33
-1.737717
0
3DFACE
8
0
70
0
10
-2.883500
20
0.453171
30
-2.016911
11
-2.883500
21
0.600000
31
-1.856575
12
-2.883500
22
0.560000
32
-1.737717
13
-2.883500
23
0.560000
33
-1.737717
0
3DFACE
8
0
70
0
10
-2.883500
20
0.453171
30
-2.016911
11
-2.883500
21
0.751270
31
-2.016911
12
-2.883500
22
0.600000
32
-1.856575
13
-2.883500
23
0.600000
33
-1.856575
0
3DFACE
8
0
70
0
10
-2.883500
20
0.740000
30
-1.975434
11
-2.883500
21
0.751270
31
-2.016911
12
-2.883500
22
0.751270
32
-1.975434
13
-2.883500
23
0.751270
33
-1.975434
0
3DFACE
8
0
70
0
10
-2.883500
20
0.600000
30
-1.856575
11
-2.883500
21
0.751270
31
-2.016911
12
-2.883500
22
0.740000
32
-1.975434
13
-2.883500
23
0.740000
33
-1.975434
0
3DFACE
8
0
70
0
10
-2.883500
20
0.453171
30
-1.688622
11
-2.883500
21
0.560000
31
-1.688622
12
-2.883500
22
0.560000
32
-1.618859
13
-2.883500
23
0.560000
33
-1.618859
0
3DFACE
8
0
70
0
10
-2.883500
20
0.453171
30
-1.160333
11
-2.883500
21
0.453171
31
-1.688622
12
-2.883500
22
0.560000
32
-1.618859
13
-2.883500
23
0.560000
33
-1.618859
0
3DFACE
8
0
70
0
10
-2.883500
20
0.453171
30
-1.160333
11
-2.883500
21
0.560000
31
-1.618859
12
-2.883500
22
0.560000
32
-1.160333
13
-2.883500
23
0.560000
33
-1.160333
0
3DFACE
8
0
70
0
10
-2.883500
20
0.453171
30
-1.160333
11
-2.883500
21
0.560000
31
-1.160333
12
-2.752215
22
0.518753
32
-0.953954
13
-2.752215
23
0.518753
33
-0.953954
0
3DFACE
8
0
70
0
10
-2.752215
20
0.518753
30
-0.953954
11
-2.883500
21
0.560000
31
-1.160333
12
-2.752215
22
0.578577
32
-0.953954
13
-2.752215
23
0.578577
33
-0.953954
0
3DFACE
8
0
70
0
10
-2.552215
20
0.518753
30
-0.678192
11
-2.752215
21
0.518753
31
-0.953954
12
-2.752215
22
0.578577
32
-0.953954
13
-2.752215
23
0.578577
33
-0.953954
0
3DFACE
8
0
70
0
10
-2.552215
20
0.518753
30
-0.678192
11
-2.752215
21
0.578577
31
-0.953954
12
-2.552215
22
0.578577
32
-0.678192
13
-2.552215
23
0.578577
33
-0.678192
0
3DFACE
8
0
70
0
10
-2.552215
20
0.518753
30
-0.402429
11
-2.552215
21
0.518753
31
-0.678192
12
-2.552215
22
0.578577
32
-0.678192
13
-2.552215
23
0.578577
33
-0.678192
0
3DFACE
8
0
70
0
10
-2.552215
20
0.518753
30
-0.402429
11
-2.552215
21
0.578577
31
-0.678192
12
-2.552215
22
0.578577
32
-0.402429
13
-2.552215
23
0.578577
33
-0.402429
0
3DFACE
8
0
70
0
10
-2.552215
20
0.518753
30
-0.126666
11
-2.552215
21
0.518753
31
-0.402429
12
-2.552215
22
0.578577
32
-0.402429
13
-2.552215
23
0.578577
33
-0.402429
0
3DFACE
8
0
70
0
10
-2.552215
20
0.518753
30
-0.126666
11
-2.552215
21
0.578577
31
-0.402429
12
-2.552215
22
0.578577
32
-0.126666
13
-2.552215
23
0.578577
33
-0.126666
0
3DFACE
8
0
70
0
10
-2.752215
20
0.518753
30
0.149097
11
-2.552215
21
0.518753
31
-0.126666
12
-2.552215
22
0.578577
32
-0.126666
13
-2.552215
23
0.578577
33
-0.126666
0
3DFACE
8
0
70
0
10
-2.752215
20
0.518753
30
0.149097
11
-2.552215
21
0.578577
31
-0.126666
12
-2.752215
22
0.578577
32
0.149097
13
-2.752215
23
0.578577
33
0.149097
0
3DFACE
8
0
70
0
10
-2.652215
20
0.518753
30
0.424859
11
-2.752215
21
0.518753
31
0.149097
12
-2.752215
22
0.578577
32
0.149097
13
-2.752215
23
0.578577
33
0.149097
0
3DFACE
8
0
70
0
10
-2.652215
20
0.518753
30
0.424859
11
-2.752215
21
0.578577
31
0.149097
12
-2.652215
22
0.578577
32
0.424859
13
-2.652215
23
0.578577
33
0.424859
0
3DFACE
8
0
70
0
10
-2.652215
20
0.518753
30
0.700622
11
-2.652215
21
0.518753
31
0.424859
12
-2.652215
22
0.578577
32
0.424859
13
-2.652215
23
0.578577
33
0.424859
0
3DFACE
8
0
70
0
10
-2.652215
20
0.518753
30
0.700622
11
-2.652215
21
0.578577
31
0.424859
12
-2.652215
22
0.578577
32
0.700622
13
-2.652215
23
0.578577
33
0.700622
0
3DFACE
8
0
70
0
10
-2.752215
20
0.518753
30
0.976385
11
-2.652215
21
0.518753
31
0.700622
12
-2.652215
22
0.578577
32
0.700622
13
-2.652215
23
0.578577
33
0.700622
0
3DFACE
8
0
70
0
10
-2.752215
20
0.518753
30
0.976385
11
-2.652215
21
0.578577
31
0.700622
12
-2.752215
22
0.578577
32
0.976385
13
-2.752215
23
0.578577
33
0.976385
0
3DFACE
8
0
70
0
10
-2.552215
20
0.518753
30
1.210147
11
-2.752215
21
0.518753
31
0.976385
12
-2.752215
22
0.578577
32
0.976385
13
-2.752215
23
0.578577
33
0.976385
0
3DFACE
8
0
70
0
10
-2.552215
20
0.518753
30
1.210147
11
-2.752215
21
0.578577
31
0.976385
12
-2.552215
22
0.578577
32
1.210147
13
-2.552215
23
0.578577
33
1.210147
0
3DFACE
8
0
70
0
10
-2.502215
20
0.518753
30
1.653910
11
-2.552215
21
0.518753
31
1.210147
12
-2.552215
22
0.578577
32
1.210147
13
-2.552215
23
0.578577
33
1.210147
0
3DFACE
8
0
70
0
10
-2.502215
20
0.518753
30
1.653910
11
-2.552215
21
0.578577
31
1.210147
12
-2.502215
22
0.578577
32
1.653910
13
-2.502215
23
0.578577
33
1.653910
0
3DFACE
8
0
70
0
10
-2.652215
20
0.518753
30
1.845673
11
-2.502215
21
0.518753
31
1.653910
12
-2.502215
22
0.578577
32
1.653910
13
-2.502215
23
0.578577
33
1.653910
0
3DFACE
8
0
70
0
10
-2.652215
20
0.518753
30
1.845673
11
-2.502215
21
0.578577
31
1.653910
12
-2.652215
22
0.578577
32
1.845673
13
-2.652215
23
0.578577
33
1.845673
0
3DFACE
8
0
70
0
10
-2.552215
20
0.518753
30
1.953435
11
-2.652215
21
0.518753
31
1.845673
12
-2.652215
22
0.578577
32
1.845673
13
-2.652215
23
0.578577
33
1.845673
0
3DFACE
8
0
70
0
10
-2.552215
20
0.518753
30
1.953435
11
-2.652215
21
0.578577
31
1.845673
12
-2.552215
22
0.578577
32
1.953435
13
-2.552215
23
0.578577
33
1.953435
0
3DFACE
8
0
70
0
10
-2.702215
20
0.518753
30
2.163435
11
-2.552215
21
0.518753
31
1.953435
12
-2.552215
22
0.578577
32
1.953435
13
-2.552215
23
0.578577
33
1.953435
0
3DFACE
8
0
70
0
10
-2.702215
20
0.518753
30
2.163435
11
-2.552215
21
0.578577
31
1.953435
12
-2.702215
22
0.578577
32
2.163435
13
-2.702215
23
0.578577
33
2.163435
0
3DFACE
8
0
70
0
10
-2.502215
20
0.518753
30
2.415435
11
-2.702215
21
0.518753
31
2.163435
12
-2.702215
22
0.578577
32
2.163435
13
-2.702215
23
0.578577
33
2.163435
0
3DFACE
8
0
70
0
10
-2.502215
20
0.518753
30
2.415435
11
-2.702215
21
0.578577
31
2.163435
12
-2.502215
22
0.578577
32
2.415435
13
-2.502215
23
0.578577
33
2.415435
0
3DFACE
8
0
70
0
10
-2.452215
20
0.518753
30
2.835435
11
-2.502215
21
0.518753
31
2.415435
12
-2.502215
22
0.578577
32
2.415435
13
-2.502215
23
0.578577
33
2.415435
0
3DFACE
8
0
70
0
10
-2.452215
20
0.518753
30
2.835435
11
-2.502215
21
0.578577
31
2.415435
12
-2.452215
22
0.578577
32
2.835435
13
-2.452215
23
0.578577
33
2.835435
0
3DFACE
8
0
70
0
10
-2.166999
20
0.703173
30
3.174684
11
-2.166999
21
0.703173
31
2.919435
12
-1.902443
22
0.703173
32
2.919435
13
-1.902443
23
0.703173
33
2.919435
0
3DFACE
8
0
70
0
10
-1.902443
20
0.703173
30
3.255435
11
-2.070867
21
0.703173
31
3.255435
12
-1.902443
22
0.703173
32
2.919435
13
-1.902443
23
0.703173
33
2.919435
0
3DFACE
8
0
70
0
10
-2.070867
20
0.703173
30
3.255435
11
-2.166999
21
0.703173
31
3.174684
12
-1.902443
22
0.703173
32
2.919435
13
-1.902443
23
0.703173
33
2.919435
0
3DFACE
8
0
70
0
10
-2.452215
20
0.518753
30
2.935102
11
-2.452215
21
0.518753
31
2.835435
12
-2.452215
22
0.578577
32
2.935102
13
-2.452215
23
0.578577
33
2.935102
0
3DFACE
8
0
70
0
10
-2.452215
20
0.518753
30
2.835435
11
-2.452215
21
0.578577
31
2.835435
12
-2.452215
22
0.578577
32
2.935102
13
-2.452215
23
0.578577
33
2.935102
0
3DFACE
8
0
70
0
10
-2.166999
20
0.560000
30
-1.618859
11
-2.166999
21
0.782492
31
-1.618859
12
-2.166999
22
0.782492
32
-1.160333
13
-2.166999
23
0.782492
33
-1.160333
0
3DFACE
8
0
70
0
10
-2.166999
20
0.578577
30
3.174684
11
-2.166999
21
0.703173
31
2.919435
12
-2.166999
22
0.703173
32
3.174684
13
-2.166999
23
0.703173
33
3.174684
0
3DFACE
8
0
70
0
10
-2.166999
20
0.560000
30
-1.618859
11
-2.166999
21
0.782492
31
-1.160333
12
-2.166999
22
0.703173
32
-0.953954
13
-2.166999
23
0.703173
33
-0.953954
0
3DFACE
8
0
70
0
10
-2.166999
20
0.578577
30
3.174684
11
-2.166999
21
0.703173
31
2.583435
12
-2.166999
22
0.703173
32
2.919435
13
-2.166999
23
0.703173
33
2.919435
0
3DFACE
8
0
70
0
10
-2.166999
20
0.560000
30
-1.618859
11
-2.166999
21
0.703173
31
-0.953954
12
-2.166999
22
0.703173
32
-0.678192
13
-2.166999
23
0.703173
33
-0.678192
0
3DFACE
8
0
70
0
10
-2.166999
20
0.578577
30
3.174684
11
-2.166999
21
0.703173
31
2.331435
12
-2.166999
22
0.703173
32
2.583435
13
-2.166999
23
0.703173
33
2.583435
0
3DFACE
8
0
70
0
10
-2.166999
20
0.560000
30
-1.618859
11
-2.166999
21
0.703173
31
-0.678192
12
-2.166999
22
0.703173
32
-0.402429
13
-2.166999
23
0.703173
33
-0.402429
0
3DFACE
8
0
70
0
10
-2.166999
20
0.560000
30
-1.618859
11
-2.166999
21
0.703173
31
-0.402429
12
-2.166999
22
0.578577
32
3.174684
13
-2.166999
23
0.578577
33
3.174684
0
3DFACE
8
0
70
0
10
-2.166999
20
0.578577
30
3.174684
11
-2.166999
21
0.703173
31
2.079435
12
-2.166999
22
0.703173
32
2.331435
13
-2.166999
23
0.703173
33
2.331435
0
3DFACE
8
0
70
0
10
-2.166999
20
0.578577
30
3.174684
11
-2.166999
21
0.703173
31
1.803673
12
-2.166999
22
0.703173
32
2.079435
13
-2.166999
23
0.703173
33
2.079435
0
3DFACE
8
0
70
0
10
-2.166999
20
0.578577
30
3.174684
11
-2.166999
21
0.703173
31
1.527910
12
-2.166999
22
0.703173
32
1.803673
13
-2.166999
23
0.703173
33
1.803673
0
3DFACE
8
0
70
0
10
-2.166999
20
0.578577
30
3.174684
11
-2.166999
21
0.703173
31
1.252147
12
-2.166999
22
0.703173
32
1.527910
13
-2.166999
23
0.703173
33
1.527910
0
3DFACE
8
0
70
0
10
-2.166999
20
0.578577
30
3.174684
11
-2.166999
21
0.703173
31
0.976385
12
-2.166999
22
0.703173
32
1.252147
13
-2.166999
23
0.703173
33
1.252147
0
3DFACE
8
0
70
0
10
-2.166999
20
0.578577
30
3.174684
11
-2.166999
21
0.703173
31
0.700622
12
-2.166999
22
0.703173
32
0.976385
13
-2.166999
23
0.703173
33
0.976385
0
3DFACE
8
0
70
0
10
-2.166999
20
0.578577
30
3.174684
11
-2.166999
21
0.703173
31
0.424859
12
-2.166999
22
0.703173
32
0.700622
13
-2.166999
23
0.703173
33
0.700622
0
3DFACE
8
0
70
0
10
-2.166999
20
0.578577
30
3.174684
11
-2.166999
21
0.703173
31
0.149097
12
-2.166999
22
0.703173
32
0.424859
13
-2.166999
23
0.703173
33
0.424859
0
3DFACE
8
0
70
0
10
-2.166999
20
0.578577
30
3.174684
11
-2.166999
21
0.703173
31
-0.402429
12
-2.166999
22
0.703173
32
-0.126666
13
-2.166999
23
0.703173
33
-0.126666
0
3DFACE
8
0
70
0
10
-2.166999
20
0.578577
30
3.174684
11
-2.166999
21
0.703173
31
-0.126666
12
-2.166999
22
0.703173
32
0.149097
13
-2.166999
23
0.703173
33
0.149097
0
3DFACE
8
0
70
0
10
-2.883500
20
0.560000
30
-1.160333
11
-2.883500
21
0.560000
31
-1.618859
12
-2.166999
22
0.560000
32
-1.618859
13
-2.166999
23
0.560000
33
-1.618859
0
3DFACE
8
0
70
0
10
-2.883500
20
0.560000
30
-1.160333
11
-2.166999
21
0.560000
31
-1.618859
12
-2.752215
22
0.578577
32
-0.953954
13
-2.752215
23
0.578577
33
-0.953954
0
3DFACE
8
0
70
0
10
-2.166999
20
0.578577
30
3.174684
11
-2.452215
21
0.578577
31
2.935102
12
-2.452215
22
0.578577
32
2.835435
13
-2.452215
23
0.578577
33
2.835435
0
3DFACE
8
0
70
0
10
-2.552215
20
0.578577
30
1.953435
11
-2.652215
21
0.578577
31
1.845673
12
-2.502215
22
0.578577
32
1.653910
13
-2.502215
23
0.578577
33
1.653910
0
3DFACE
8
0
70
0
10
-2.166999
20
0.578577
30
3.174684
11
-2.452215
21
0.578577
31
2.835435
12
-2.502215
22
0.578577
32
2.415435
13
-2.502215
23
0.578577
33
2.415435
0
3DFACE
8
0
70
0
10
-2.652215
20
0.578577
30
0.424859
11
-2.752215
21
0.578577
31
0.149097
12
-2.552215
22
0.578577
32
-0.126666
13
-2.552215
23
0.578577
33
-0.126666
0
3DFACE
8
0
70
0
10
-2.166999
20
0.560000
30
-1.618859
11
-2.552215
21
0.578577
31
-0.678192
12
-2.752215
22
0.578577
32
-0.953954
13
-2.752215
23
0.578577
33
-0.953954
0
3DFACE
8
0
70
0
10
-2.552215
20
0.578577
30
1.210147
11
-2.752215
21
0.578577
31
0.976385
12
-2.652215
22
0.578577
32
0.700622
13
-2.652215
23
0.578577
33
0.700622
0
3DFACE
8
0
70
0
10
-2.166999
20
0.560000
30
-1.618859
11
-2.166999
21
0.578577
31
3.174684
12
-2.552215
22
0.578577
32
-0.678192
13
-2.552215
23
0.578577
33
-0.678192
0
3DFACE
8
0
70
0
10
-2.502215
20
0.578577
30
2.415435
11
-2.702215
21
0.578577
31
2.163435
12
-2.552215
22
0.578577
32
1.953435
13
-2.552215
23
0.578577
33
1.953435
0
3DFACE
8
0
70
0
10
-2.166999
20
0.578577
30
3.174684
11
-2.502215
21
0.578577
31
2.415435
12
-2.552215
22
0.578577
32
1.953435
13
-2.552215
23
0.578577
33
1.953435
0
3DFACE
8
0
70
0
10
-2.166999
20
0.578577
30
3.174684
11
-2.552215
21
0.578577
31
1.953435
12
-2.502215
22
0.578577
32
1.653910
13
-2.502215
23
0.578577
33
1.653910
0
3DFACE
8
0
70
0
10
-2.166999
20
0.578577
30
3.174684
11
-2.502215
21
0.578577
31
1.653910
12
-2.552215
22
0.578577
32
-0.678192
13
-2.552215
23
0.578577
33
-0.678192
0
3DFACE
8
0
70
0
10
-2.552215
20
0.578577
30
1.210147
11
-2.652215
21
0.578577
31
0.700622
12
-2.652215
22
0.578577
32
0.424859
13
-2.652215
23
0.578577
33
0.424859
0
3DFACE
8
0
70
0
10
-2.552215
20
0.578577
30
1.210147
11
-2.652215
21
0.578577
31
0.424859
12
-2.552215
22
0.578577
32
-0.126666
13
-2.552215
23
0.578577
33
-0.126666
0
3DFACE
8
0
70
0
10
-2.502215
20
0.578577
30
1.653910
11
-2.552215
21
0.578577
31
1.210147
12
-2.552215
22
0.578577
32
-0.126666
13
-2.552215
23
0.578577
33
-0.126666
0
3DFACE
8
0
70
0
10
-2.502215
20
0.578577
30
1.653910
11
-2.552215
21
0.578577
31
-0.126666
12
-2.552215
22
0.578577
32
-0.402429
13
-2.552215
23
0.578577
33
-0.402429
0
3DFACE
8
0
70
0
10
-2.502215
20
0.578577
30
1.653910
11
-2.552215
21
0.578577
31
-0.402429
12
-2.552215
22
0.578577
32
-0.678192
13
-2.552215
23
0.578577
33
-0.678192
0
3DFACE
8
0
70
0
10
-2.166999
20
0.560000
30
-1.618859
11
-2.166999
21
0.560000
31
-1.737717
12
-2.166999
22
0.782492
32
-1.618859
13
-2.166999
23
0.782492
33
-1.618859
0
3DFACE
8
0
70
0
10
-2.166999
20
0.560000
30
-1.737717
11
-2.166999
21
0.782492
31
-1.737717
12
-2.166999
22
0.782492
32
-1.688622
13
-2.166999
23
0.782492
33
-1.688622
0
3DFACE
8
0
70
0
10
-2.166999
20
0.560000
30
-1.737717
11
-2.166999
21
0.782492
31
-1.688622
12
-2.166999
22
0.782492
32
-1.618859
13
-2.166999
23
0.782492
33
-1.618859
0
3DFACE
8
0
70
0
10
-2.166999
20
0.560000
30
-1.618859
11
-2.883500
21
0.560000
31
-1.737717
12
-2.166999
22
0.560000
32
-1.737717
13
-2.166999
23
0.560000
33
-1.737717
0
3DFACE
8
0
70
0
10
-2.166999
20
0.560000
30
-1.618859
11
-2.883500
21
0.560000
31
-1.618859
12
-2.883500
22
0.560000
32
-1.688622
13
-2.883500
23
0.560000
33
-1.688622
0
3DFACE
8
0
70
0
10
-2.166999
20
0.560000
30
-1.618859
11
-2.883500
21
0.560000
31
-1.688622
12
-2.883500
22
0.560000
32
-1.737717
13
-2.883500
23
0.560000
33
-1.737717
0
3DFACE
8
0
70
0
10
-2.166999
20
0.560000
30
-1.737717
11
-2.166999
21
0.600000
31
-1.856575
12
-2.166999
22
0.782492
32
-1.737717
13
-2.166999
23
0.782492
33
-1.737717
0
3DFACE
8
0
70
0
10
-2.166999
20
0.600000
30
-1.856575
11
-2.166999
21
0.782492
31
-1.856575
12
-2.166999
22
0.782492
32
-1.737717
13
-2.166999
23
0.782492
33
-1.737717
0
3DFACE
8
0
70
0
10
-2.166999
20
0.560000
30
-1.737717
11
-2.883500
21
0.600000
31
-1.856575
12
-2.166999
22
0.600000
32
-1.856575
13
-2.166999
23
0.600000
33
-1.856575
0
3DFACE
8
0
70
0
10
-2.166999
20
0.560000
30
-1.737717
11
-2.883500
21
0.560000
31
-1.737717
12
-2.883500
22
0.600000
32
-1.856575
13
-2.883500
23
0.600000
33
-1.856575
0
3DFACE
8
0
70
0
10
-2.166999
20
0.600000
30
-1.856575
11
-2.166999
21
0.740000
31
-1.975434
12
-2.166999
22
0.782492
32
-1.856575
13
-2.166999
23
0.782492
33
-1.856575
0
3DFACE
8
0
70
0
10
-2.166999
20
0.740000
30
-1.975434
11
-2.166999
21
0.782492
31
-1.975434
12
-2.166999
22
0.782492
32
-1.856575
13
-2.166999
23
0.782492
33
-1.856575
0
3DFACE
8
0
70
0
10
-2.166999
20
0.600000
30
-1.856575
11
-2.883500
21
0.740000
31
-1.975434
12
-2.166999
22
0.740000
32
-1.975434
13
-2.166999
23
0.740000
33
-1.975434
0
3DFACE
8
0
70
0
10
-2.166999
20
0.600000
30
-1.856575
11
-2.883500
21
0.600000
31
-1.856575
12
-2.883500
22
0.740000
32
-1.975434
13
-2.883500
23
0.740000
33
-1.975434
0
3DFACE
8
0
70
0
10
-2.883500
20
0.740000
30
-1.975434
11
-2.883500
21
0.751270
31
-1.975434
12
-2.852279
22
0.782492
32
-1.975434
13
-2.852279
23
0.782492
33
-1.975434
0
3DFACE
8
0
70
0
10
-2.883500
20
0.740000
30
-1.975434
11
-2.852279
21
0.782492
31
-1.975434
12
-2.766604
22
0.782492
32
-1.975434
13
-2.766604
23
0.782492
33
-1.975434
0
3DFACE
8
0
70
0
10
-2.166999
20
0.740000
30
-1.975434
11
-2.883500
21
0.740000
31
-1.975434
12
-2.766604
22
0.782492
32
-1.975434
13
-2.766604
23
0.782492
33
-1.975434
0
3DFACE
8
0
70
0
10
-2.166999
20
0.740000
30
-1.975434
11
-2.766604
21
0.782492
31
-1.975434
12
-2.166999
22
0.782492
32
-1.975434
13
-2.166999
23
0.782492
33
-1.975434
0
3DFACE
8
0
70
0
10
-1.902443
20
0.703173
30
3.255435
11
-1.902443
21
0.703173
31
2.919435
12
-1.775790
22
0.703173
32
2.919435
13
-1.775790
23
0.703173
33
2.919435
0
3DFACE
8
0
70
0
10
-1.775790
20
0.703173
30
3.255435
11
-1.902443
21
0.703173
31
3.255435
12
-1.775790
22
0.703173
32
2.919435
13
-1.775790
23
0.703173
33
2.919435
0
3DFACE
8
0
70
0
10
-1.477557
20
0.703173
30
3.255435
11
-1.604210
21
0.703173
31
3.255435
12
-1.477557
22
0.703173
32
2.919435
13
-1.477557
23
0.703173
33
2.919435
0
3DFACE
8
0
70
0
10
-1.604210
20
0.703173
30
3.255435
11
-1.604210
21
0.703173
31
2.919435
12
-1.477557
22
0.703173
32
2.919435
13
-1.477557
23
0.703173
33
2.919435
0
3DFACE
8
0
70
0
10
-1.902443
20
0.703173
30
2.919435
11
-1.902443
21
0.703173
31
2.583435
12
-1.775790
22
0.703173
32
2.583435
13
-1.775790
23
0.703173
33
2.583435
0
3DFACE
8
0
70
0
10
-1.775790
20
0.703173
30
2.919435
11
-1.902443
21
0.703173
31
2.919435
12
-1.775790
22
0.703173
32
2.583435
13
-1.775790
23
0.703173
33
2.583435
0
3DFACE
8
0
70
0
10
-1.477557
20
0.703173
30
2.919435
11
-1.604210
21
0.703173
31
2.919435
12
-1.477557
22
0.703173
32
2.583435
13
-1.477557
23
0.703173
33
2.583435
0
3DFACE
8
0
70
0
10
-1.604210
20
0.703173
30
2.919435
11
-1.604210
21
0.703173
31
2.583435
12
-1.477557
22
0.703173
32
2.583435
13
-1.477557
23
0.703173
33
2.583435
0
3DFACE
8
0
70
0
10
-1.902443
20
0.703173
30
2.583435
11
-1.902443
21
0.703173
31
2.331435
12
-1.775790
22
0.703173
32
2.331435
13
-1.775790
23
0.703173
33
2.331435
0
3DFACE
8
0
70
0
10
-1.775790
20
0.703173
30
2.583435
11
-1.902443
21
0.703173
31
2.583435
12
-1.775790
22
0.703173
32
2.331435
13
-1.775790
23
0.703173
33
2.331435
0
3DFACE
8
0
70
0
10
-1.477557
20
0.703173
30
2.583435
11
-1.604210
21
0.703173
31
2.583435
12
-1.477557
22
0.703173
32
2.331435
13
-1.477557
23
0.703173
33
2.331435
0
3DFACE
8
0
70
0
10
-1.604210
20
0.703173
30
2.583435
11
-1.604210
21
0.703173
31
2.331435
12
-1.477557
22
0.703173
32
2.331435
13
-1.477557
23
0.703173
33
2.331435
0
3DFACE
8
0
70
0
10
-1.902443
20
0.703173
30
2.331435
11
-1.902443
21
0.703173
31
2.079435
12
-1.775790
22
0.703173
32
2.079435
13
-1.775790
23
0.703173
33
2.079435
0
3DFACE
8
0
70
0
10
-1.775790
20
0.703173
30
2.331435
11
-1.902443
21
0.703173
31
2.331435
12
-1.775790
22
0.703173
32
2.079435
13
-1.775790
23
0.703173
33
2.079435
0
3DFACE
8
0
70
0
10
-1.477557
20
0.703173
30
2.331435
11
-1.604210
21
0.703173
31
2.331435
12
-1.477557
22
0.703173
32
2.079435
13
-1.477557
23
0.703173
33
2.079435
0
3DFACE
8
0
70
0
10
-1.604210
20
0.703173
30
2.331435
11
-1.604210
21
0.703173
31
2.079435
12
-1.477557
22
0.703173
32
2.079435
13
-1.477557
23
0.703173
33
2.079435
0
3DFACE
8
0
70
0
10
-1.477557
20
0.703173
30
-0.678192
11
-1.902443
21
0.703173
31
-0.953954
12
-1.477557
22
0.703173
32
-0.953954
13
-1.477557
23
0.703173
33
-0.953954
0
3DFACE
8
0
70
0
10
-1.775790
20
0.703173
30
-0.678192
11
-1.902443
21
0.703173
31
-0.678192
12
-1.902443
22
0.703173
32
-0.953954
13
-1.902443
23
0.703173
33
-0.953954
0
3DFACE
8
0
70
0
10
-1.477557
20
0.703173
30
-0.678192
11
-1.604210
21
0.703173
31
-0.678192
12
-1.604210
22
0.703173
32
-0.696401
13
-1.604210
23
0.703173
33
-0.696401
0
3DFACE
8
0
70
0
10
-1.477557
20
0.703173
30
-0.678192
11
-1.604210
21
0.703173
31
-0.696401
12
-1.902443
22
0.703173
32
-0.953954
13
-1.902443
23
0.703173
33
-0.953954
0
3DFACE
8
0
70
0
10
-1.604210
20
0.703173
30
-0.696401
11
-1.775790
21
0.703173
31
-0.696401
12
-1.902443
22
0.703173
32
-0.953954
13
-1.902443
23
0.703173
33
-0.953954
0
3DFACE
8
0
70
0
10
-1.775790
20
0.703173
30
-0.678192
11
-1.902443
21
0.703173
31
-0.953954
12
-1.775790
22
0.703173
32
-0.696401
13
-1.775790
23
0.703173
33
-0.696401
0
3DFACE
8
0
70
0
10
-1.477557
20
0.703173
30
-0.402429
11
-1.604210
21
0.703173
31
-0.402429
12
-1.604210
22
0.703173
32
-0.496719
13
-1.604210
23
0.703173
33
-0.496719
0
3DFACE
8
0
70
0
10
-1.477557
20
0.703173
30
-0.402429
11
-1.604210
21
0.703173
31
-0.496719
12
-1.477557
22
0.703173
32
-0.678192
13
-1.477557
23
0.703173
33
-0.678192
0
3DFACE
8
0
70
0
10
-1.604210
20
0.703173
30
-0.496719
11
-1.604210
21
0.703173
31
-0.596560
12
-1.477557
22
0.703173
32
-0.678192
13
-1.477557
23
0.703173
33
-0.678192
0
3DFACE
8
0
70
0
10
-1.604210
20
0.703173
30
-0.596560
11
-1.604210
21
0.703173
31
-0.678192
12
-1.477557
22
0.703173
32
-0.678192
13
-1.477557
23
0.703173
33
-0.678192
0
3DFACE
8
0
70
0
10
-1.775790
20
0.703173
30
-0.402429
11
-1.902443
21
0.703173
31
-0.402429
12
-1.775790
22
0.703173
32
-0.496719
13
-1.775790
23
0.703173
33
-0.496719
0
3DFACE
8
0
70
0
10
-1.902443
20
0.703173
30
-0.402429
11
-1.902443
21
0.703173
31
-0.678192
12
-1.775790
22
0.703173
32
-0.496719
13
-1.775790
23
0.703173
33
-0.496719
0
3DFACE
8
0
70
0
10
-1.775790
20
0.703173
30
-0.596560
11
-1.902443
21
0.703173
31
-0.678192
12
-1.775790
22
0.703173
32
-0.678192
13
-1.775790
23
0.703173
33
-0.678192
0
3DFACE
8
0
70
0
10
-1.775790
20
0.703173
30
-0.496719
11
-1.902443
21
0.703173
31
-0.678192
12
-1.775790
22
0.703173
32
-0.596560
13
-1.775790
23
0.703173
33
-0.596560
0
3DFACE
8
0
70
0
10
-1.477557
20
0.703173
30
-0.126666
11
-1.604210
21
0.703173
31
-0.126666
12
-1.604210
22
0.703173
32
-0.396878
13
-1.604210
23
0.703173
33
-0.396878
0
3DFACE
8
0
70
0
10
-1.477557
20
0.703173
30
-0.126666
11
-1.604210
21
0.703173
31
-0.396878
12
-1.477557
22
0.703173
32
-0.402429
13
-1.477557
23
0.703173
33
-0.402429
0
3DFACE
8
0
70
0
10
-1.604210
20
0.703173
30
-0.396878
11
-1.604210
21
0.703173
31
-0.402429
12
-1.477557
22
0.703173
32
-0.402429
13
-1.477557
23
0.703173
33
-0.402429
0
3DFACE
8
0
70
0
10
-1.775790
20
0.703173
30
-0.126666
11
-1.902443
21
0.703173
31
-0.126666
12
-1.775790
22
0.703173
32
-0.396878
13
-1.775790
23
0.703173
33
-0.396878
0
3DFACE
8
0
70
0
10
-1.775790
20
0.703173
30
-0.396878
11
-1.902443
21
0.703173
31
-0.402429
12
-1.775790
22
0.703173
32
-0.402429
13
-1.775790
23
0.703173
33
-0.402429
0
3DFACE
8
0
70
0
10
-1.902443
20
0.703173
30
-0.126666
11
-1.902443
21
0.703173
31
-0.402429
12
-1.775790
22
0.703173
32
-0.396878
13
-1.775790
23
0.703173
33
-0.396878
0
3DFACE
8
0
70
0
10
-1.477557
20
0.703173
30
0.149097
11
-1.604210
21
0.703173
31
-0.126666
12
-1.477557
22
0.703173
32
-0.126666
13
-1.477557
23
0.703173
33
-0.126666
0
3DFACE
8
0
70
0
10
-1.477557
20
0.703173
30
0.149097
11
-1.604210
21
0.703173
31
0.149097
12
-1.604210
22
0.703173
32
-0.126666
13
-1.604210
23
0.703173
33
-0.126666
0
3DFACE
8
0
70
0
10
-1.902443
20
0.703173
30
0.149097
11
-1.902443
21
0.703173
31
-0.126666
12
-1.775790
22
0.703173
32
-0.126666
13
-1.775790
23
0.703173
33
-0.126666
0
3DFACE
8
0
70
0
10
-1.775790
20
0.703173
30
0.149097
11
-1.902443
21
0.703173
31
0.149097
12
-1.775790
22
0.703173
32
-0.126666
13
-1.775790
23
0.703173
33
-0.126666
0
3DFACE
8
0
70
0
10
-1.477557
20
0.703173
30
0.424859
11
-1.604210
21
0.703173
31
0.149097
12
-1.477557
22
0.703173
32
0.149097
13
-1.477557
23
0.703173
33
0.149097
0
3DFACE
8
0
70
0
10
-1.477557
20
0.703173
30
0.424859
11
-1.604210
21
0.703173
31
0.424859
12
-1.604210
22
0.703173
32
0.149097
13
-1.604210
23
0.703173
33
0.149097
0
3DFACE
8
0
70
0
10
-1.902443
20
0.703173
30
0.424859
11
-1.902443
21
0.703173
31
0.149097
12
-1.775790
22
0.703173
32
0.149097
13
-1.775790
23
0.703173
33
0.149097
0
3DFACE
8
0
70
0
10
-1.775790
20
0.703173
30
0.424859
11
-1.902443
21
0.703173
31
0.424859
12
-1.775790
22
0.703173
32
0.149097
13
-1.775790
23
0.703173
33
0.149097
0
3DFACE
8
0
70
0
10
-1.477557
20
0.703173
30
0.700622
11
-1.604210
21
0.703173
31
0.424859
12
-1.477557
22
0.703173
32
0.424859
13
-1.477557
23
0.703173
33
0.424859
0
3DFACE
8
0
70
0
10
-1.477557
20
0.703173
30
0.700622
11
-1.604210
21
0.703173
31
0.700622
12
-1.604210
22
0.703173
32
0.424859
13
-1.604210
23
0.703173
33
0.424859
0
3DFACE
8
0
70
0
10
-1.902443
20
0.703173
30
0.700622
11
-1.902443
21
0.703173
31
0.424859
12
-1.775790
22
0.703173
32
0.424859
13
-1.775790
23
0.703173
33
0.424859
0
3DFACE
8
0
70
0
10
-1.775790
20
0.703173
30
0.700622
11
-1.902443
21
0.703173
31
0.700622
12
-1.775790
22
0.703173
32
0.424859
13
-1.775790
23
0.703173
33
0.424859
0
3DFACE
8
0
70
0
10
-1.477557
20
0.703173
30
0.976385
11
-1.604210
21
0.703173
31
0.700622
12
-1.477557
22
0.703173
32
0.700622
13
-1.477557
23
0.703173
33
0.700622
0
3DFACE
8
0
70
0
10
-1.477557
20
0.703173
30
0.976385
11
-1.604210
21
0.703173
31
0.976385
12
-1.604210
22
0.703173
32
0.700622
13
-1.604210
23
0.703173
33
0.700622
0
3DFACE
8
0
70
0
10
-1.902443
20
0.703173
30
0.976385
11
-1.902443
21
0.703173
31
0.700622
12
-1.775790
22
0.703173
32
0.700622
13
-1.775790
23
0.703173
33
0.700622
0
3DFACE
8
0
70
0
10
-1.775790
20
0.703173
30
0.976385
11
-1.902443
21
0.703173
31
0.976385
12
-1.775790
22
0.703173
32
0.700622
13
-1.775790
23
0.703173
33
0.700622
0
3DFACE
8
0
70
0
10
-1.477557
20
0.703173
30
1.252147
11
-1.604210
21
0.703173
31
0.976385
12
-1.477557
22
0.703173
32
0.976385
13
-1.477557
23
0.703173
33
0.976385
0
3DFACE
8
0
70
0
10
-1.477557
20
0.703173
30
1.252147
11
-1.604210
21
0.703173
31
1.252147
12
-1.604210
22
0.703173
32
0.976385
13
-1.604210
23
0.703173
33
0.976385
0
3DFACE
8
0
70
0
10
-1.902443
20
0.703173
30
1.252147
11
-1.902443
21
0.703173
31
0.976385
12
-1.775790
22
0.703173
32
0.976385
13
-1.775790
23
0.703173
33
0.976385
0
3DFACE
8
0
70
0
10
-1.775790
20
0.703173
30
1.252147
11
-1.902443
21
0.703173
31
1.252147
12
-1.775790
22
0.703173
32
0.976385
13
-1.775790
23
0.703173
33
0.976385
0
3DFACE
8
0
70
0
10
-1.477557
20
0.703173
30
1.527910
11
-1.604210
21
0.703173
31
1.252147
12
-1.477557
22
0.703173
32
1.252147
13
-1.477557
23
0.703173
33
1.252147
0
3DFACE
8
0
70
0
10
-1.477557
20
0.703173
30
1.527910
11
-1.604210
21
0.703173
31
1.527910
12
-1.604210
22
0.703173
32
1.252147
13
-1.604210
23
0.703173
33
1.252147
0
3DFACE
8
0
70
0
10
-1.902443
20
0.703173
30
1.527910
11
-1.902443
21
0.703173
31
1.252147
12
-1.775790
22
0.703173
32
1.252147
13
-1.775790
23
0.703173
33
1.252147
0
3DFACE
8
0
70
0
10
-1.775790
20
0.703173
30
1.527910
11
-1.902443
21
0.703173
31
1.527910
12
-1.775790
22
0.703173
32
1.252147
13
-1.775790
23
0.703173
33
1.252147
0
3DFACE
8
0
70
0
10
-1.477557
20
0.703173
30
1.803673
11
-1.604210
21
0.703173
31
1.527910
12
-1.477557
22
0.703173
32
1.527910
13
-1.477557
23
0.703173
33
1.527910
0
3DFACE
8
0
70
0
10
-1.477557
20
0.703173
30
1.803673
11
-1.604210
21
0.703173
31
1.803673
12
-1.604210
22
0.703173
32
1.527910
13
-1.604210
23
0.703173
33
1.527910
0
3DFACE
8
0
70
0
10
-1.902443
20
0.703173
30
1.803673
11
-1.902443
21
0.703173
31
1.527910
12
-1.775790
22
0.703173
32
1.527910
13
-1.775790
23
0.703173
33
1.527910
0
3DFACE
8
0
70
0
10
-1.775790
20
0.703173
30
1.803673
11
-1.902443
21
0.703173
31
1.803673
12
-1.775790
22
0.703173
32
1.527910
13
-1.775790
23
0.703173
33
1.527910
0
3DFACE
8
0
70
0
10
-1.477557
20
0.703173
30
2.079435
11
-1.604210
21
0.703173
31
1.803673
12
-1.477557
22
0.703173
32
1.803673
13
-1.477557
23
0.703173
33
1.803673
0
3DFACE
8
0
70
0
10
-1.477557
20
0.703173
30
2.079435
11
-1.604210
21
0.703173
31
2.079435
12
-1.604210
22
0.703173
32
1.803673
13
-1.604210
23
0.703173
33
1.803673
0
3DFACE
8
0
70
0
10
-1.902443
20
0.703173
30
2.079435
11
-1.902443
21
0.703173
31
1.803673
12
-1.775790
22
0.703173
32
1.803673
13
-1.775790
23
0.703173
33
1.803673
0
3DFACE
8
0
70
0
10
-1.775790
20
0.703173
30
2.079435
11
-1.902443
21
0.703173
31
2.079435
12
-1.775790
22
0.703173
32
1.803673
13
-1.775790
23
0.703173
33
1.803673
0
3DFACE
8
0
70
0
10
-1.604210
20
0.703173
30
3.486499
11
-1.604210
21
0.703173
31
3.255435
12
-1.477557
22
0.703173
32
3.380111
13
-1.477557
23
0.703173
33
3.380111
0
3DFACE
8
0
70
0
10
-1.477557
20
0.703173
30
3.380111
11
-1.604210
21
0.703173
31
3.255435
12
-1.477557
22
0.703173
32
3.255435
13
-1.477557
23
0.703173
33
3.255435
0
3DFACE
8
0
70
0
10
-1.775790
20
0.703173
30
3.503299
11
-1.902443
21
0.703173
31
3.396911
12
-1.775790
22
0.703173
32
3.255435
13
-1.775790
23
0.703173
33
3.255435
0
3DFACE
8
0
70
0
10
-1.902443
20
0.703173
30
3.396911
11
-1.902443
21
0.703173
31
3.255435
12
-1.775790
22
0.703173
32
3.255435
13
-1.775790
23
0.703173
33
3.255435
0
3DFACE
8
0
70
0
10
-1.699294
20
0.518753
30
3.591435
11
-1.700706
21
0.518753
31
3.591435
12
-1.700706
22
0.578577
32
3.591435
13
-1.700706
23
0.578577
33
3.591435
0
3DFACE
8
0
70
0
10
-1.699294
20
0.518753
30
3.591435
11
-1.700706
21
0.578577
31
3.591435
12
-1.699294
22
0.578577
32
3.591435
13
-1.699294
23
0.578577
33
3.591435
0
3DFACE
8
0
70
0
10
-1.714213
20
0.510398
30
3.578903
11
-1.699294
21
0.518753
31
3.591435
12
-1.714213
22
0.578577
32
3.578903
13
-1.714213
23
0.578577
33
3.578903
0
3DFACE
8
0
70
0
10
-1.699294
20
0.518753
30
3.591435
11
-1.699294
21
0.578577
31
3.591435
12
-1.714213
22
0.578577
32
3.578903
13
-1.714213
23
0.578577
33
3.578903
0
3DFACE
8
0
70
0
10
-1.685786
20
0.510398
30
3.578903
11
-1.685786
21
0.578577
31
3.578903
12
-1.700706
22
0.518753
32
3.591435
13
-1.700706
23
0.518753
33
3.591435
0
3DFACE
8
0
70
0
10
-1.700706
20
0.518753
30
3.591435
11
-1.685786
21
0.578577
31
3.578903
12
-1.700706
22
0.578577
32
3.591435
13
-1.700706
23
0.578577
33
3.591435
0
3DFACE
8
0
70
0
10
-1.775790
20
0.578577
30
3.503299
11
-1.902443
21
0.703173
31
3.396911
12
-1.775790
22
0.703173
32
3.503299
13
-1.775790
23
0.703173
33
3.503299
0
3DFACE
8
0
70
0
10
-2.166999
20
0.578577
30
3.174684
11
-2.166999
21
0.703173
31
3.174684
12
-2.070867
22
0.703173
32
3.255435
13
-2.070867
23
0.703173
33
3.255435
0
3DFACE
8
0
70
0
10
-1.685786
20
0.510398
30
3.578903
11
-1.775790
21
0.578577
31
3.503299
12
-1.685786
22
0.578577
32
3.578903
13
-1.685786
23
0.578577
33
3.578903
0
3DFACE
8
0
70
0
10
-2.420994
20
0.501269
30
2.961328
11
-2.452215
21
0.518753
31
2.935102
12
-2.452215
22
0.578577
32
2.935102
13
-2.452215
23
0.578577
33
2.935102
0
3DFACE
8
0
70
0
10
-2.327329
20
0.501269
30
3.040007
11
-2.420994
21
0.501269
31
2.961328
12
-2.452215
22
0.578577
32
2.935102
13
-2.452215
23
0.578577
33
2.935102
0
3DFACE
8
0
70
0
10
-2.327329
20
0.501269
30
3.040007
11
-2.452215
21
0.578577
31
2.935102
12
-2.166999
22
0.578577
32
3.174684
13
-2.166999
23
0.578577
33
3.174684
0
3DFACE
8
0
70
0
10
-2.070867
20
0.501269
30
3.255435
11
-2.327329
21
0.501269
31
3.040007
12
-2.166999
22
0.578577
32
3.174684
13
-2.166999
23
0.578577
33
3.174684
0
3DFACE
8
0
70
0
10
-2.070867
20
0.501269
30
3.255435
11
-2.166999
21
0.578577
31
3.174684
12
-2.070867
22
0.703173
32
3.255435
13
-2.070867
23
0.703173
33
3.255435
0
3DFACE
8
0
70
0
10
-2.070867
20
0.501269
30
3.255435
11
-2.070867
21
0.703173
31
3.255435
12
-1.902443
22
0.703173
32
3.396911
13
-1.902443
23
0.703173
33
3.396911
0
3DFACE
8
0
70
0
10
-1.902443
20
0.501269
30
3.396911
11
-2.070867
21
0.501269
31
3.255435
12
-1.902443
22
0.703173
32
3.396911
13
-1.902443
23
0.703173
33
3.396911
0
3DFACE
8
0
70
0
10
-1.902443
20
0.501269
30
3.396911
11
-1.902443
21
0.703173
31
3.396911
12
-1.775790
22
0.578577
32
3.503299
13
-1.775790
23
0.578577
33
3.503299
0
3DFACE
8
0
70
0
10
-1.702088
20
0.501269
30
3.565209
11
-1.775790
21
0.578577
31
3.503299
12
-1.685786
22
0.510398
32
3.578903
13
-1.685786
23
0.510398
33
3.578903
0
3DFACE
8
0
70
0
10
-1.702088
20
0.501269
30
3.565209
11
-1.902443
21
0.501269
31
3.396911
12
-1.775790
22
0.578577
32
3.503299
13
-1.775790
23
0.578577
33
3.503299
0
3DFACE
8
0
70
0
10
-1.604210
20
0.578577
30
-0.396878
11
-1.775790
21
0.578577
31
-0.396878
12
-1.775790
22
0.578577
32
-0.496719
13
-1.775790
23
0.578577
33
-0.496719
0
3DFACE
8
0
70
0
10
-1.604210
20
0.578577
30
-0.396878
11
-1.775790
21
0.578577
31
-0.496719
12
-1.604210
22
0.578577
32
-0.496719
13
-1.604210
23
0.578577
33
-0.496719
0
3DFACE
8
0
70
0
10
-1.604210
20
0.578577
30
-0.496719
11
-1.775790
21
0.578577
31
-0.496719
12
-1.775790
22
0.600977
32
-0.596560
13
-1.775790
23
0.600977
33
-0.596560
0
3DFACE
8
0
70
0
10
-1.604210
20
0.578577
30
-0.496719
11
-1.775790
21
0.600977
31
-0.596560
12
-1.604210
22
0.600977
32
-0.596560
13
-1.604210
23
0.600977
33
-0.596560
0
3DFACE
8
0
70
0
10
-1.604210
20
0.600977
30
-0.596560
11
-1.775790
21
0.600977
31
-0.596560
12
-1.775790
22
0.679377
32
-0.696401
13
-1.775790
23
0.679377
33
-0.696401
0
3DFACE
8
0
70
0
10
-1.604210
20
0.600977
30
-0.596560
11
-1.775790
21
0.679377
31
-0.696401
12
-1.604210
22
0.679377
32
-0.696401
13
-1.604210
23
0.679377
33
-0.696401
0
3DFACE
8
0
70
0
10
-1.775790
20
0.578577
30
3.503299
11
-1.775790
21
0.703173
31
3.503299
12
-1.775790
22
0.703173
32
3.255435
13
-1.775790
23
0.703173
33
3.255435
0
3DFACE
8
0
70
0
10
-1.775790
20
0.578577
30
-0.396878
11
-1.775790
21
0.703173
31
-0.126666
12
-1.775790
22
0.703173
32
-0.396878
13
-1.775790
23
0.703173
33
-0.396878
0
3DFACE
8
0
70
0
10
-1.775790
20
0.578577
30
-0.396878
11
-1.775790
21
0.703173
31
0.149097
12
-1.775790
22
0.703173
32
-0.126666
13
-1.775790
23
0.703173
33
-0.126666
0
3DFACE
8
0
70
0
10
-1.775790
20
0.578577
30
3.503299
11
-1.775790
21
0.703173
31
3.255435
12
-1.775790
22
0.703173
32
2.919435
13
-1.775790
23
0.703173
33
2.919435
0
3DFACE
8
0
70
0
10
-1.775790
20
0.578577
30
-0.396878
11
-1.775790
21
0.703173
31
0.424859
12
-1.775790
22
0.703173
32
0.149097
13
-1.775790
23
0.703173
33
0.149097
0
3DFACE
8
0
70
0
10
-1.775790
20
0.578577
30
3.503299
11
-1.775790
21
0.703173
31
2.919435
12
-1.775790
22
0.703173
32
2.583435
13
-1.775790
23
0.703173
33
2.583435
0
3DFACE
8
0
70
0
10
-1.775790
20
0.578577
30
3.503299
11
-1.775790
21
0.703173
31
2.583435
12
-1.775790
22
0.578577
32
-0.396878
13
-1.775790
23
0.578577
33
-0.396878
0
3DFACE
8
0
70
0
10
-1.775790
20
0.578577
30
-0.396878
11
-1.775790
21
0.703173
31
0.700622
12
-1.775790
22
0.703173
32
0.424859
13
-1.775790
23
0.703173
33
0.424859
0
3DFACE
8
0
70
0
10
-1.775790
20
0.578577
30
-0.396878
11
-1.775790
21
0.703173
31
0.976385
12
-1.775790
22
0.703173
32
0.700622
13
-1.775790
23
0.703173
33
0.700622
0
3DFACE
8
0
70
0
10
-1.775790
20
0.578577
30
-0.396878
11
-1.775790
21
0.703173
31
1.252147
12
-1.775790
22
0.703173
32
0.976385
13
-1.775790
23
0.703173
33
0.976385
0
3DFACE
8
0
70
0
10
-1.775790
20
0.578577
30
-0.396878
11
-1.775790
21
0.703173
31
1.527910
12
-1.775790
22
0.703173
32
1.252147
13
-1.775790
23
0.703173
33
1.252147
0
3DFACE
8
0
70
0
10
-1.775790
20
0.578577
30
-0.396878
11
-1.775790
21
0.703173
31
1.803673
12
-1.775790
22
0.703173
32
1.527910
13
-1.775790
23
0.703173
33
1.527910
0
3DFACE
8
0
70
0
10
-1.775790
20
0.578577
30
-0.396878
11
-1.775790
21
0.703173
31
2.079435
12
-1.775790
22
0.703173
32
1.803673
13
-1.775790
23
0.703173
33
1.803673
0
3DFACE
8
0
70
0
10
-1.775790
20
0.578577
30
-0.396878
11
-1.775790
21
0.703173
31
2.583435
12
-1.775790
22
0.703173
32
2.331435
13
-1.775790
23
0.703173
33
2.331435
0
3DFACE
8
0
70
0
10
-1.775790
20
0.578577
30
-0.396878
11
-1.775790
21
0.703173
31
2.331435
12
-1.775790
22
0.703173
32
2.079435
13
-1.775790
23
0.703173
33
2.079435
0
3DFACE
8
0
70
0
10
-1.604211
20
0.578577
30
3.486501
11
-1.604210
21
0.703173
31
3.255435
12
-1.604210
22
0.703173
32
3.486499
13
-1.604210
23
0.703173
33
3.486499
0
3DFACE
8
0
70
0
10
-1.604210
20
0.578577
30
-0.396878
11
-1.604210
21
0.703173
31
-0.396878
12
-1.604210
22
0.703173
32
-0.126666
13
-1.604210
23
0.703173
33
-0.126666
0
3DFACE
8
0
70
0
10
-1.604210
20
0.578577
30
-0.396878
11
-1.604210
21
0.703173
31
-0.126666
12
-1.604210
22
0.703173
32
0.149097
13
-1.604210
23
0.703173
33
0.149097
0
3DFACE
8
0
70
0
10
-1.604211
20
0.578577
30
3.486501
11
-1.604210
21
0.703173
31
2.919435
12
-1.604210
22
0.703173
32
3.255435
13
-1.604210
23
0.703173
33
3.255435
0
3DFACE
8
0
70
0
10
-1.604210
20
0.578577
30
-0.396878
11
-1.604210
21
0.703173
31
0.149097
12
-1.604210
22
0.703173
32
0.424859
13
-1.604210
23
0.703173
33
0.424859
0
3DFACE
8
0
70
0
10
-1.604211
20
0.578577
30
3.486501
11
-1.604210
21
0.703173
31
2.583435
12
-1.604210
22
0.703173
32
2.919435
13
-1.604210
23
0.703173
33
2.919435
0
3DFACE
8
0
70
0
10
-1.604211
20
0.578577
30
3.486501
11
-1.604210
21
0.578577
31
-0.396878
12
-1.604210
22
0.703173
32
2.583435
13
-1.604210
23
0.703173
33
2.583435
0
3DFACE
8
0
70
0
10
-1.604210
20
0.578577
30
-0.396878
11
-1.604210
21
0.703173
31
0.424859
12
-1.604210
22
0.703173
32
0.700622
13
-1.604210
23
0.703173
33
0.700622
0
3DFACE
8
0
70
0
10
-1.604210
20
0.578577
30
-0.396878
11
-1.604210
21
0.703173
31
0.700622
12
-1.604210
22
0.703173
32
0.976385
13
-1.604210
23
0.703173
33
0.976385
0
3DFACE
8
0
70
0
10
-1.604210
20
0.578577
30
-0.396878
11
-1.604210
21
0.703173
31
0.976385
12
-1.604210
22
0.703173
32
1.252147
13
-1.604210
23
0.703173
33
1.252147
0
3DFACE
8
0
70
0
10
-1.604210
20
0.578577
30
-0.396878
11
-1.604210
21
0.703173
31
1.252147
12
-1.604210
22
0.703173
32
1.527910
13
-1.604210
23
0.703173
33
1.527910
0
3DFACE
8
0
70
0
10
-1.604210
20
0.578577
30
-0.396878
11
-1.604210
21
0.703173
31
1.527910
12
-1.604210
22
0.703173
32
1.803673
13
-1.604210
23
0.703173
33
1.803673
0
3DFACE
8
0
70
0
10
-1.604210
20
0.578577
30
-0.396878
11
-1.604210
21
0.703173
31
1.803673
12
-1.604210
22
0.703173
32
2.079435
13
-1.604210
23
0.703173
33
2.079435
0
3DFACE
8
0
70
0
10
-1.604210
20
0.578577
30
-0.396878
11
-1.604210
21
0.703173
31
2.079435
12
-1.604210
22
0.703173
32
2.331435
13
-1.604210
23
0.703173
33
2.331435
0
3DFACE
8
0
70
0
10
-1.604210
20
0.578577
30
-0.396878
11
-1.604210
21
0.703173
31
2.331435
12
-1.604210
22
0.703173
32
2.583435
13
-1.604210
23
0.703173
33
2.583435
0
3DFACE
8
0
70
0
10
-1.604211
20
0.578577
30
3.486501
11
-1.775790
21
0.578577
31
-0.396878
12
-1.604210
22
0.578577
32
-0.396878
13
-1.604210
23
0.578577
33
-0.396878
0
3DFACE
8
0
70
0
10
-1.775790
20
0.578577
30
3.503299
11
-1.775790
21
0.578577
31
-0.396878
12
-1.604211
22
0.578577
32
3.486501
13
-1.604211
23
0.578577
33
3.486501
0
3DFACE
8
0
70
0
10
-1.700000
20
0.578577
30
3.566963
11
-1.775790
21
0.578577
31
3.503299
12
-1.604211
22
0.578577
32
3.486501
13
-1.604211
23
0.578577
33
3.486501
0
3DFACE
8
0
70
0
10
-1.699294
20
0.578577
30
3.591435
11
-1.700706
21
0.578577
31
3.591435
12
-1.700000
22
0.578577
32
3.590842
13
-1.700000
23
0.578577
33
3.590842
0
3DFACE
8
0
70
0
10
-1.700000
20
0.578577
30
3.590842
11
-1.714213
21
0.578577
31
3.578903
12
-1.700000
22
0.578577
32
3.566963
13
-1.700000
23
0.578577
33
3.566963
0
3DFACE
8
0
70
0
10
-1.700000
20
0.578577
30
3.590842
11
-1.700000
21
0.578577
31
3.566963
12
-1.685786
22
0.578577
32
3.578903
13
-1.685786
23
0.578577
33
3.578903
0
3DFACE
8
0
70
0
10
-1.775790
20
0.578577
30
-0.396878
11
-1.775790
21
0.703173
31
-0.496719
12
-1.775790
22
0.578577
32
-0.496719
13
-1.775790
23
0.578577
33
-0.496719
0
3DFACE
8
0
70
0
10
-1.775790
20
0.578577
30
-0.396878
11
-1.775790
21
0.703173
31
-0.396878
12
-1.775790
22
0.703173
32
-0.402429
13
-1.775790
23
0.703173
33
-0.402429
0
3DFACE
8
0
70
0
10
-1.775790
20
0.578577
30
-0.396878
11
-1.775790
21
0.703173
31
-0.402429
12
-1.775790
22
0.703173
32
-0.496719
13
-1.775790
23
0.703173
33
-0.496719
0
3DFACE
8
0
70
0
10
-1.604210
20
0.578577
30
-0.396878
11
-1.604210
21
0.578577
31
-0.496719
12
-1.604210
22
0.703173
32
-0.396878
13
-1.604210
23
0.703173
33
-0.396878
0
3DFACE
8
0
70
0
10
-1.604210
20
0.578577
30
-0.496719
11
-1.604210
21
0.703173
31
-0.496719
12
-1.604210
22
0.703173
32
-0.402429
13
-1.604210
23
0.703173
33
-0.402429
0
3DFACE
8
0
70
0
10
-1.604210
20
0.578577
30
-0.496719
11
-1.604210
21
0.703173
31
-0.402429
12
-1.604210
22
0.703173
32
-0.396878
13
-1.604210
23
0.703173
33
-0.396878
0
3DFACE
8
0
70
0
10
-1.775790
20
0.600977
30
-0.596560
11
-1.775790
21
0.703173
31
-0.496719
12
-1.775790
22
0.703173
32
-0.596560
13
-1.775790
23
0.703173
33
-0.596560
0
3DFACE
8
0
70
0
10
-1.775790
20
0.578577
30
-0.496719
11
-1.775790
21
0.703173
31
-0.496719
12
-1.775790
22
0.600977
32
-0.596560
13
-1.775790
23
0.600977
33
-0.596560
0
3DFACE
8
0
70
0
10
-1.604210
20
0.578577
30
-0.496719
11
-1.604210
21
0.600977
31
-0.596560
12
-1.604210
22
0.703173
32
-0.496719
13
-1.604210
23
0.703173
33
-0.496719
0
3DFACE
8
0
70
0
10
-1.604210
20
0.600977
30
-0.596560
11
-1.604210
21
0.703173
31
-0.596560
12
-1.604210
22
0.703173
32
-0.496719
13
-1.604210
23
0.703173
33
-0.496719
0
3DFACE
8
0
70
0
10
-1.775790
20
0.600977
30
-0.596560
11
-1.775790
21
0.703173
31
-0.596560
12
-1.775790
22
0.679377
32
-0.696401
13
-1.775790
23
0.679377
33
-0.696401
0
3DFACE
8
0
70
0
10
-1.775790
20
0.679377
30
-0.696401
11
-1.775790
21
0.703173
31
-0.596560
12
-1.775790
22
0.703173
32
-0.678192
13
-1.775790
23
0.703173
33
-0.678192
0
3DFACE
8
0
70
0
10
-1.775790
20
0.679377
30
-0.696401
11
-1.775790
21
0.703173
31
-0.678192
12
-1.775790
22
0.703173
32
-0.696401
13
-1.775790
23
0.703173
33
-0.696401
0
3DFACE
8
0
70
0
10
-1.604210
20
0.600977
30
-0.596560
11
-1.604210
21
0.679377
31
-0.696401
12
-1.604210
22
0.703173
32
-0.596560
13
-1.604210
23
0.703173
33
-0.596560
0
3DFACE
8
0
70
0
10
-1.604210
20
0.679377
30
-0.696401
11
-1.604210
21
0.703173
31
-0.696401
12
-1.604210
22
0.703173
32
-0.678192
13
-1.604210
23
0.703173
33
-0.678192
0
3DFACE
8
0
70
0
10
-1.604210
20
0.679377
30
-0.696401
11
-1.604210
21
0.703173
31
-0.678192
12
-1.604210
22
0.703173
32
-0.596560
13
-1.604210
23
0.703173
33
-0.596560
0
3DFACE
8
0
70
0
10
-1.604210
20
0.679377
30
-0.696401
11
-1.775790
21
0.679377
31
-0.696401
12
-1.604210
22
0.703173
32
-0.696401
13
-1.604210
23
0.703173
33
-0.696401
0
3DFACE
8
0
70
0
10
-1.775790
20
0.679377
30
-0.696401
11
-1.775790
21
0.703173
31
-0.696401
12
-1.604210
22
0.703173
32
-0.696401
13
-1.604210
23
0.703173
33
-0.696401
0
3DFACE
8
0
70
0
10
-1.026141
20
0.501269
30
2.909016
11
-0.859006
21
0.501269
31
2.843376
12
-1.026141
22
0.501269
32
2.582852
13
-1.026141
23
0.501269
33
2.582852
0
3DFACE
8
0
70
0
10
-0.859006
20
0.501269
30
2.843376
11
-0.859006
21
0.501269
31
2.579179
12
-1.026141
22
0.501269
32
2.582852
13
-1.026141
23
0.501269
33
2.582852
0
3DFACE
8
0
70
0
10
-1.477557
20
0.501269
30
2.919435
11
-1.353859
21
0.501269
31
2.583435
12
-1.477557
22
0.501269
32
2.583435
13
-1.477557
23
0.501269
33
2.583435
0
3DFACE
8
0
70
0
10
-1.353859
20
0.501269
30
2.919435
11
-1.353859
21
0.501269
31
2.583435
12
-1.477557
22
0.501269
32
2.919435
13
-1.477557
23
0.501269
33
2.919435
0
3DFACE
8
0
70
0
10
-1.026141
20
0.501269
30
2.582852
11
-0.859006
21
0.501269
31
2.579179
12
-1.026141
22
0.501269
32
2.331435
13
-1.026141
23
0.501269
33
2.331435
0
3DFACE
8
0
70
0
10
-0.859006
20
0.501269
30
2.579179
11
-0.760695
21
0.501269
31
2.331435
12
-1.026141
22
0.501269
32
2.331435
13
-1.026141
23
0.501269
33
2.331435
0
3DFACE
8
0
70
0
10
-1.477557
20
0.501269
30
2.583435
11
-1.353859
21
0.501269
31
2.331435
12
-1.477557
22
0.501269
32
2.331435
13
-1.477557
23
0.501269
33
2.331435
0
3DFACE
8
0
70
0
10
-1.353859
20
0.501269
30
2.583435
11
-1.353859
21
0.501269
31
2.331435
12
-1.477557
22
0.501269
32
2.583435
13
-1.477557
23
0.501269
33
2.583435
0
3DFACE
8
0
70
0
10
-0.760695
20
0.501269
30
2.331435
11
-0.861986
21
0.501269
31
2.076183
12
-1.026141
22
0.501269
32
2.331435
13
-1.026141
23
0.501269
33
2.331435
0
3DFACE
8
0
70
0
10
-1.026141
20
0.501269
30
2.331435
11
-0.861986
21
0.501269
31
2.076183
12
-1.026141
22
0.501269
32
2.078983
13
-1.026141
23
0.501269
33
2.078983
0
3DFACE
8
0
70
0
10
-1.477557
20
0.501269
30
2.331435
11
-1.353859
21
0.501269
31
2.079435
12
-1.477557
22
0.501269
32
2.079435
13
-1.477557
23
0.501269
33
2.079435
0
3DFACE
8
0
70
0
10
-1.353859
20
0.501269
30
2.331435
11
-1.353859
21
0.501269
31
2.079435
12
-1.477557
22
0.501269
32
2.331435
13
-1.477557
23
0.501269
33
2.331435
0
3DFACE
8
0
70
0
10
-0.973900
20
0.421950
30
-1.160333
11
-0.659006
21
0.501269
31
-0.962568
12
-0.527721
22
0.421950
32
-1.170588
13
-0.527721
23
0.421950
33
-1.170588
0
3DFACE
8
0
70
0
10
-0.973900
20
0.421950
30
-1.160333
11
-1.026141
21
0.501269
31
-1.004394
12
-0.659006
22
0.501269
32
-0.962568
13
-0.659006
23
0.501269
33
-0.962568
0
3DFACE
8
0
70
0
10
-1.026141
20
0.501269
30
-0.954534
11
-0.659006
21
0.501269
31
-0.962568
12
-1.026141
22
0.501269
32
-1.004394
13
-1.026141
23
0.501269
33
-1.004394
0
3DFACE
8
0
70
0
10
-0.659006
20
0.501269
30
-0.683899
11
-0.659006
21
0.501269
31
-0.962568
12
-1.026141
22
0.501269
32
-0.954534
13
-1.026141
23
0.501269
33
-0.954534
0
3DFACE
8
0
70
0
10
-1.026141
20
0.501269
30
-0.678576
11
-0.659006
21
0.501269
31
-0.683899
12
-1.026141
22
0.501269
32
-0.954534
13
-1.026141
23
0.501269
33
-0.954534
0
3DFACE
8
0
70
0
10
-0.815963
20
0.501269
30
-0.395347
11
-0.659006
21
0.501269
31
-0.683899
12
-1.026141
22
0.501269
32
-0.678576
13
-1.026141
23
0.501269
33
-0.678576
0
3DFACE
8
0
70
0
10
-0.815963
20
0.501269
30
-0.395347
11
-1.026141
21
0.501269
31
-0.678576
12
-1.026141
22
0.501269
32
-0.401635
13
-1.026141
23
0.501269
33
-0.401635
0
3DFACE
8
0
70
0
10
-1.026141
20
0.501269
30
-0.137523
11
-0.663605
21
0.501269
31
-0.285890
12
-0.815963
22
0.501269
32
-0.395347
13
-0.815963
23
0.501269
33
-0.395347
0
3DFACE
8
0
70
0
10
-1.026141
20
0.501269
30
-0.137523
11
-0.815963
21
0.501269
31
-0.395347
12
-1.026141
22
0.501269
32
-0.401635
13
-1.026141
23
0.501269
33
-0.401635
0
3DFACE
8
0
70
0
10
-1.026141
20
0.501269
30
0.133963
11
-0.761017
21
0.501269
31
-0.017266
12
-1.026141
22
0.501269
32
-0.137523
13
-1.026141
23
0.501269
33
-0.137523
0
3DFACE
8
0
70
0
10
-0.761017
20
0.501269
30
-0.017266
11
-0.663605
21
0.501269
31
-0.285890
12
-1.026141
22
0.501269
32
-0.137523
13
-1.026141
23
0.501269
33
-0.137523
0
3DFACE
8
0
70
0
10
-1.026141
20
0.501269
30
0.407481
11
-0.663422
21
0.501269
31
0.169883
12
-1.026141
22
0.501269
32
0.133963
13
-1.026141
23
0.501269
33
0.133963
0
3DFACE
8
0
70
0
10
-0.663422
20
0.501269
30
0.169883
11
-0.761017
21
0.501269
31
-0.017266
12
-1.026141
22
0.501269
32
0.133963
13
-1.026141
23
0.501269
33
0.133963
0
3DFACE
8
0
70
0
10
-1.026141
20
0.501269
30
0.675558
11
-0.944691
21
0.501269
31
0.598608
12
-1.026141
22
0.501269
32
0.407481
13
-1.026141
23
0.501269
33
0.407481
0
3DFACE
8
0
70
0
10
-0.944691
20
0.501269
30
0.598608
11
-0.663422
21
0.501269
31
0.169883
12
-1.026141
22
0.501269
32
0.407481
13
-1.026141
23
0.501269
33
0.407481
0
3DFACE
8
0
70
0
10
-0.859891
20
0.501269
30
0.974919
11
-0.944691
21
0.501269
31
0.598608
12
-1.026141
22
0.501269
32
0.675558
13
-1.026141
23
0.501269
33
0.675558
0
3DFACE
8
0
70
0
10
-1.026141
20
0.501269
30
0.976183
11
-0.859891
21
0.501269
31
0.974919
12
-1.026141
22
0.501269
32
0.675558
13
-1.026141
23
0.501269
33
0.675558
0
3DFACE
8
0
70
0
10
-0.961730
20
0.501269
30
1.255752
11
-0.859891
21
0.501269
31
0.974919
12
-1.026141
22
0.501269
32
0.976183
13
-1.026141
23
0.501269
33
0.976183
0
3DFACE
8
0
70
0
10
-0.961730
20
0.501269
30
1.255752
11
-1.026141
21
0.501269
31
0.976183
12
-1.026141
22
0.501269
32
1.253199
13
-1.026141
23
0.501269
33
1.253199
0
3DFACE
8
0
70
0
10
-0.756502
20
0.501269
30
1.538724
11
-0.961730
21
0.501269
31
1.255752
12
-1.026141
22
0.501269
32
1.528879
13
-1.026141
23
0.501269
33
1.528879
0
3DFACE
8
0
70
0
10
-1.026141
20
0.501269
30
1.528879
11
-0.961730
21
0.501269
31
1.255752
12
-1.026141
22
0.501269
32
1.253199
13
-1.026141
23
0.501269
33
1.253199
0
3DFACE
8
0
70
0
10
-1.026141
20
0.501269
30
1.803428
11
-0.661730
21
0.501269
31
1.800068
12
-0.756502
22
0.501269
32
1.538724
13
-0.756502
23
0.501269
33
1.538724
0
3DFACE
8
0
70
0
10
-1.026141
20
0.501269
30
1.803428
11
-0.756502
21
0.501269
31
1.538724
12
-1.026141
22
0.501269
32
1.528879
13
-1.026141
23
0.501269
33
1.528879
0
3DFACE
8
0
70
0
10
-1.026141
20
0.501269
30
2.078983
11
-0.861986
21
0.501269
31
2.076183
12
-1.026141
22
0.501269
32
1.803428
13
-1.026141
23
0.501269
33
1.803428
0
3DFACE
8
0
70
0
10
-0.861986
20
0.501269
30
2.076183
11
-0.661730
21
0.501269
31
1.800068
12
-1.026141
22
0.501269
32
1.803428
13
-1.026141
23
0.501269
33
1.803428
0
3DFACE
8
0
70
0
10
-1.353859
20
0.421950
30
-1.688622
11
-1.353859
21
0.421950
31
-1.775434
12
-1.451300
22
0.421950
32
-1.688622
13
-1.451300
23
0.421950
33
-1.688622
0
3DFACE
8
0
70
0
10
-1.451300
20
0.421950
30
-1.688622
11
-1.353859
21
0.421950
31
-1.775434
12
-1.451300
22
0.421950
32
-2.016911
13
-1.451300
23
0.421950
33
-2.016911
0
3DFACE
8
0
70
0
10
-1.026141
20
0.421950
30
-1.775434
11
-1.451300
21
0.421950
31
-2.016911
12
-1.353859
22
0.421950
32
-1.775434
13
-1.353859
23
0.421950
33
-1.775434
0
3DFACE
8
0
70
0
10
-1.026141
20
0.421950
30
-1.775434
11
-0.527721
21
0.421950
31
-2.043596
12
-1.451300
22
0.421950
32
-2.016911
13
-1.451300
23
0.421950
33
-2.016911
0
3DFACE
8
0
70
0
10
-0.973900
20
0.421950
30
-1.688622
11
-0.527721
21
0.421950
31
-2.043596
12
-1.026141
22
0.421950
32
-1.775434
13
-1.026141
23
0.421950
33
-1.775434
0
3DFACE
8
0
70
0
10
-0.973900
20
0.421950
30
-1.688622
11
-1.026141
21
0.421950
31
-1.775434
12
-1.026141
22
0.421950
32
-1.688622
13
-1.026141
23
0.421950
33
-1.688622
0
3DFACE
8
0
70
0
10
-1.026141
20
0.421950
30
-1.656575
11
-0.973900
21
0.421950
31
-1.688622
12
-1.026141
22
0.421950
32
-1.688622
13
-1.026141
23
0.421950
33
-1.688622
0
3DFACE
8
0
70
0
10
-0.973900
20
0.421950
30
-1.160333
11
-1.026141
21
0.421950
31
-1.418859
12
-1.026141
22
0.421950
32
-1.160333
13
-1.026141
23
0.421950
33
-1.160333
0
3DFACE
8
0
70
0
10
-0.973900
20
0.421950
30
-1.160333
11
-0.973900
21
0.421950
31
-1.688622
12
-1.026141
22
0.421950
32
-1.418859
13
-1.026141
23
0.421950
33
-1.418859
0
3DFACE
8
0
70
0
10
-1.026141
20
0.421950
30
-1.537717
11
-0.973900
21
0.421950
31
-1.688622
12
-1.026141
22
0.421950
32
-1.656575
13
-1.026141
23
0.421950
33
-1.656575
0
3DFACE
8
0
70
0
10
-1.026141
20
0.421950
30
-1.418859
11
-0.973900
21
0.421950
31
-1.688622
12
-1.026141
22
0.421950
32
-1.537717
13
-1.026141
23
0.421950
33
-1.537717
0
3DFACE
8
0
70
0
10
-1.353859
20
0.421950
30
-1.656575
11
-1.353859
21
0.421950
31
-1.688622
12
-1.451300
22
0.421950
32
-1.688622
13
-1.451300
23
0.421950
33
-1.688622
0
3DFACE
8
0
70
0
10
-1.353859
20
0.421950
30
-1.160333
11
-1.353859
21
0.421950
31
-1.418859
12
-1.451300
22
0.421950
32
-1.160333
13
-1.451300
23
0.421950
33
-1.160333
0
3DFACE
8
0
70
0
10
-1.451300
20
0.421950
30
-1.160333
11
-1.353859
21
0.421950
31
-1.418859
12
-1.451300
22
0.421950
32
-1.688622
13
-1.451300
23
0.421950
33
-1.688622
0
3DFACE
8
0
70
0
10
-1.353859
20
0.421950
30
-1.418859
11
-1.353859
21
0.421950
31
-1.537717
12
-1.451300
22
0.421950
32
-1.688622
13
-1.451300
23
0.421950
33
-1.688622
0
3DFACE
8
0
70
0
10
-1.353859
20
0.421950
30
-1.537717
11
-1.353859
21
0.421950
31
-1.656575
12
-1.451300
22
0.421950
32
-1.688622
13
-1.451300
23
0.421950
33
-1.688622
0
3DFACE
8
0
70
0
10
-0.973900
20
0.421950
30
-1.160333
11
-1.026141
21
0.421950
31
-1.160333
12
-1.026141
22
0.501269
32
-1.004394
13
-1.026141
23
0.501269
33
-1.004394
0
3DFACE
8
0
70
0
10
-1.451300
20
0.421950
30
-1.160333
11
-1.477557
21
0.501269
31
-0.953954
12
-1.353859
22
0.501269
32
-0.953954
13
-1.353859
23
0.501269
33
-0.953954
0
3DFACE
8
0
70
0
10
-1.353859
20
0.421950
30
-1.160333
11
-1.451300
21
0.421950
31
-1.160333
12
-1.353859
22
0.501269
32
-0.953954
13
-1.353859
23
0.501269
33
-0.953954
0
3DFACE
8
0
70
0
10
-1.353859
20
0.501269
30
-0.678192
11
-1.477557
21
0.501269
31
-0.953954
12
-1.477557
22
0.501269
32
-0.678192
13
-1.477557
23
0.501269
33
-0.678192
0
3DFACE
8
0
70
0
10
-1.353859
20
0.501269
30
-0.678192
11
-1.353859
21
0.501269
31
-0.953954
12
-1.477557
22
0.501269
32
-0.953954
13
-1.477557
23
0.501269
33
-0.953954
0
3DFACE
8
0
70
0
10
-1.353859
20
0.501269
30
-0.402429
11
-1.477557
21
0.501269
31
-0.678192
12
-1.477557
22
0.501269
32
-0.402429
13
-1.477557
23
0.501269
33
-0.402429
0
3DFACE
8
0
70
0
10
-1.353859
20
0.501269
30
-0.402429
11
-1.353859
21
0.501269
31
-0.678192
12
-1.477557
22
0.501269
32
-0.678192
13
-1.477557
23
0.501269
33
-0.678192
0
3DFACE
8
0
70
0
10
-1.353859
20
0.501269
30
-0.126666
11
-1.477557
21
0.501269
31
-0.402429
12
-1.477557
22
0.501269
32
-0.126666
13
-1.477557
23
0.501269
33
-0.126666
0
3DFACE
8
0
70
0
10
-1.353859
20
0.501269
30
-0.126666
11
-1.353859
21
0.501269
31
-0.402429
12
-1.477557
22
0.501269
32
-0.402429
13
-1.477557
23
0.501269
33
-0.402429
0
3DFACE
8
0
70
0
10
-1.353859
20
0.501269
30
0.149097
11
-1.477557
21
0.501269
31
-0.126666
12
-1.477557
22
0.501269
32
0.149097
13
-1.477557
23
0.501269
33
0.149097
0
3DFACE
8
0
70
0
10
-1.353859
20
0.501269
30
0.149097
11
-1.353859
21
0.501269
31
-0.126666
12
-1.477557
22
0.501269
32
-0.126666
13
-1.477557
23
0.501269
33
-0.126666
0
3DFACE
8
0
70
0
10
-1.353859
20
0.501269
30
0.424859
11
-1.477557
21
0.501269
31
0.149097
12
-1.477557
22
0.501269
32
0.424859
13
-1.477557
23
0.501269
33
0.424859
0
3DFACE
8
0
70
0
10
-1.353859
20
0.501269
30
0.424859
11
-1.353859
21
0.501269
31
0.149097
12
-1.477557
22
0.501269
32
0.149097
13
-1.477557
23
0.501269
33
0.149097
0
3DFACE
8
0
70
0
10
-1.353859
20
0.501269
30
0.700622
11
-1.477557
21
0.501269
31
0.424859
12
-1.477557
22
0.501269
32
0.700622
13
-1.477557
23
0.501269
33
0.700622
0
3DFACE
8
0
70
0
10
-1.353859
20
0.501269
30
0.700622
11
-1.353859
21
0.501269
31
0.424859
12
-1.477557
22
0.501269
32
0.424859
13
-1.477557
23
0.501269
33
0.424859
0
3DFACE
8
0
70
0
10
-1.353859
20
0.501269
30
0.976385
11
-1.477557
21
0.501269
31
0.700622
12
-1.477557
22
0.501269
32
0.976385
13
-1.477557
23
0.501269
33
0.976385
0
3DFACE
8
0
70
0
10
-1.353859
20
0.501269
30
0.976385
11
-1.353859
21
0.501269
31
0.700622
12
-1.477557
22
0.501269
32
0.700622
13
-1.477557
23
0.501269
33
0.700622
0
3DFACE
8
0
70
0
10
-1.353859
20
0.501269
30
1.252147
11
-1.477557
21
0.501269
31
0.976385
12
-1.477557
22
0.501269
32
1.252147
13
-1.477557
23
0.501269
33
1.252147
0
3DFACE
8
0
70
0
10
-1.353859
20
0.501269
30
1.252147
11
-1.353859
21
0.501269
31
0.976385
12
-1.477557
22
0.501269
32
0.976385
13
-1.477557
23
0.501269
33
0.976385
0
3DFACE
8
0
70
0
10
-1.353859
20
0.501269
30
1.527910
11
-1.477557
21
0.501269
31
1.252147
12
-1.477557
22
0.501269
32
1.527910
13
-1.477557
23
0.501269
33
1.527910
0
3DFACE
8
0
70
0
10
-1.353859
20
0.501269
30
1.527910
11
-1.353859
21
0.501269
31
1.252147
12
-1.477557
22
0.501269
32
1.252147
13
-1.477557
23
0.501269
33
1.252147
0
3DFACE
8
0
70
0
10
-1.353859
20
0.501269
30
1.803673
11
-1.477557
21
0.501269
31
1.527910
12
-1.477557
22
0.501269
32
1.803673
13
-1.477557
23
0.501269
33
1.803673
0
3DFACE
8
0
70
0
10
-1.353859
20
0.501269
30
1.803673
11
-1.353859
21
0.501269
31
1.527910
12
-1.477557
22
0.501269
32
1.527910
13
-1.477557
23
0.501269
33
1.527910
0
3DFACE
8
0
70
0
10
-1.353859
20
0.501269
30
2.079435
11
-1.477557
21
0.501269
31
1.803673
12
-1.477557
22
0.501269
32
2.079435
13
-1.477557
23
0.501269
33
2.079435
0
3DFACE
8
0
70
0
10
-1.353859
20
0.501269
30
2.079435
11
-1.353859
21
0.501269
31
1.803673
12
-1.477557
22
0.501269
32
1.803673
13
-1.477557
23
0.501269
33
1.803673
0
3DFACE
8
0
70
0
10
-1.477557
20
0.501269
30
3.380111
11
-1.353859
21
0.501269
31
3.276205
12
-1.477557
22
0.501269
32
3.255435
13
-1.477557
23
0.501269
33
3.255435
0
3DFACE
8
0
70
0
10
-1.353859
20
0.501269
30
3.276205
11
-1.353859
21
0.501269
31
3.255435
12
-1.477557
22
0.501269
32
3.255435
13
-1.477557
23
0.501269
33
3.255435
0
3DFACE
8
0
70
0
10
-1.026141
20
0.501269
30
3.000921
11
-0.850838
21
0.501269
31
2.853667
12
-1.026141
22
0.501269
32
2.909016
13
-1.026141
23
0.501269
33
2.909016
0
3DFACE
8
0
70
0
10
-1.026141
20
0.501269
30
2.909016
11
-0.850838
21
0.501269
31
2.853667
12
-0.859006
22
0.501269
32
2.843376
13
-0.859006
23
0.501269
33
2.843376
0
3DFACE
8
0
70
0
10
-1.353859
20
0.501269
30
3.255435
11
-1.477557
21
0.501269
31
2.919435
12
-1.477557
22
0.501269
32
3.255435
13
-1.477557
23
0.501269
33
3.255435
0
3DFACE
8
0
70
0
10
-1.353859
20
0.501269
30
3.255435
11
-1.353859
21
0.501269
31
2.919435
12
-1.477557
22
0.501269
32
2.919435
13
-1.477557
23
0.501269
33
2.919435
0
3DFACE
8
0
70
0
10
-1.477557
20
0.501269
30
3.380111
11
-1.353859
21
0.623377
31
3.276205
12
-1.353859
22
0.501269
32
3.276205
13
-1.353859
23
0.501269
33
3.276205
0
3DFACE
8
0
70
0
10
-1.604211
20
0.578577
30
3.486501
11
-1.604210
21
0.703173
31
3.486499
12
-1.477557
22
0.703173
32
3.380111
13
-1.477557
23
0.703173
33
3.380111
0
3DFACE
8
0
70
0
10
-1.026141
20
0.501269
30
3.000921
11
-1.026141
21
0.623377
31
3.000921
12
-0.850838
22
0.501269
32
2.853667
13
-0.850838
23
0.501269
33
2.853667
0
3DFACE
8
0
70
0
10
-1.714213
20
0.510398
30
3.578903
11
-1.714213
21
0.578577
31
3.578903
12
-1.604211
22
0.578577
32
3.486501
13
-1.604211
23
0.578577
33
3.486501
0
3DFACE
8
0
70
0
10
-1.604211
20
0.578577
30
3.486501
11
-1.477557
21
0.703173
31
3.380111
12
-1.329133
22
0.703173
32
3.255435
13
-1.329133
23
0.703173
33
3.255435
0
3DFACE
8
0
70
0
10
-1.697911
20
0.501269
30
3.565209
11
-1.353859
21
0.623377
31
3.276205
12
-1.477557
22
0.501269
32
3.380111
13
-1.477557
23
0.501269
33
3.380111
0
3DFACE
8
0
70
0
10
-1.604211
20
0.578577
30
3.486501
11
-1.329133
21
0.703173
31
3.255435
12
-1.052671
22
0.703173
32
3.023207
13
-1.052671
23
0.703173
33
3.023207
0
3DFACE
8
0
70
0
10
-1.697911
20
0.501269
30
3.565209
11
-1.714213
21
0.510398
31
3.578903
12
-1.604211
22
0.578577
32
3.486501
13
-1.604211
23
0.578577
33
3.486501
0
3DFACE
8
0
70
0
10
-1.697911
20
0.501269
30
3.565209
11
-1.604211
21
0.578577
31
3.486501
12
-1.353859
22
0.623377
32
3.276205
13
-1.353859
23
0.623377
33
3.276205
0
3DFACE
8
0
70
0
10
-0.850838
20
0.501269
30
2.853667
11
-1.026141
21
0.623377
31
3.000921
12
-0.829719
22
0.517670
32
2.835927
13
-0.829719
23
0.517670
33
2.835927
0
3DFACE
8
0
70
0
10
-0.829719
20
0.686772
30
2.835927
11
-1.052671
21
0.703173
31
3.023207
12
-0.850838
22
0.703173
32
2.853667
13
-0.850838
23
0.703173
33
2.853667
0
3DFACE
8
0
70
0
10
-1.604211
20
0.578577
30
3.486501
11
-1.052671
21
0.703173
31
3.023207
12
-1.353859
22
0.623377
32
3.276205
13
-1.353859
23
0.623377
33
3.276205
0
3DFACE
8
0
70
0
10
-1.353859
20
0.623377
30
3.276205
11
-1.052671
21
0.703173
31
3.023207
12
-1.026141
22
0.623377
32
3.000921
13
-1.026141
23
0.623377
33
3.000921
0
3DFACE
8
0
70
0
10
-1.026141
20
0.623377
30
3.000921
11
-1.052671
21
0.703173
31
3.023207
12
-0.829719
22
0.686772
32
2.835927
13
-0.829719
23
0.686772
33
2.835927
0
3DFACE
8
0
70
0
10
-0.829719
20
0.517670
30
2.835927
11
-1.026141
21
0.623377
31
3.000921
12
-0.829719
22
0.686772
32
2.835927
13
-0.829719
23
0.686772
33
2.835927
0
3DFACE
8
0
70
0
10
-0.829719
20
0.517670
30
2.835927
11
-0.829719
21
0.686772
31
2.835927
12
-0.827785
22
0.685689
32
2.834303
13
-0.827785
23
0.685689
33
2.834303
0
3DFACE
8
0
70
0
10
-0.829719
20
0.517670
30
2.835927
11
-0.827785
21
0.685689
31
2.834303
12
-0.827785
22
0.518753
32
2.834303
13
-0.827785
23
0.518753
33
2.834303
0
3DFACE
8
0
70
0
10
-1.026141
20
0.640000
30
-1.418859
11
-1.353859
21
0.640000
31
-1.537717
12
-1.353859
22
0.640000
32
-1.418859
13
-1.353859
23
0.640000
33
-1.418859
0
3DFACE
8
0
70
0
10
-1.026141
20
0.640000
30
-1.418859
11
-1.026141
21
0.640000
31
-1.537717
12
-1.353859
22
0.640000
32
-1.537717
13
-1.353859
23
0.640000
33
-1.537717
0
3DFACE
8
0
70
0
10
-1.353859
20
0.600000
30
-1.656575
11
-1.353859
21
0.640000
31
-1.537717
12
-1.026141
22
0.640000
32
-1.537717
13
-1.026141
23
0.640000
33
-1.537717
0
3DFACE
8
0
70
0
10
-1.026141
20
0.600000
30
-1.656575
11
-1.353859
21
0.600000
31
-1.656575
12
-1.026141
22
0.640000
32
-1.537717
13
-1.026141
23
0.640000
33
-1.537717
0
3DFACE
8
0
70
0
10
-1.353859
20
0.460000
30
-1.775434
11
-1.353859
21
0.600000
31
-1.656575
12
-1.026141
22
0.600000
32
-1.656575
13
-1.026141
23
0.600000
33
-1.656575
0
3DFACE
8
0
70
0
10
-1.026141
20
0.460000
30
-1.775434
11
-1.353859
21
0.460000
31
-1.775434
12
-1.026141
22
0.600000
32
-1.656575
13
-1.026141
23
0.600000
33
-1.656575
0
3DFACE
8
0
70
0
10
-1.353859
20
0.421950
30
-1.160333
11
-1.353859
21
0.640000
31
-1.418859
12
-1.353859
22
0.421950
32
-1.418859
13
-1.353859
23
0.421950
33
-1.418859
0
3DFACE
8
0
70
0
10
-1.353859
20
0.501269
30
3.276205
11
-1.353859
21
0.623377
31
3.276205
12
-1.353859
22
0.501269
32
3.255435
13
-1.353859
23
0.501269
33
3.255435
0
3DFACE
8
0
70
0
10
-1.353859
20
0.501269
30
3.255435
11
-1.353859
21
0.623377
31
3.276205
12
-1.353859
22
0.501269
32
2.919435
13
-1.353859
23
0.501269
33
2.919435
0
3DFACE
8
0
70
0
10
-1.353859
20
0.421950
30
-1.160333
11
-1.353859
21
0.501269
31
-0.953954
12
-1.353859
22
0.640000
32
-1.418859
13
-1.353859
23
0.640000
33
-1.418859
0
3DFACE
8
0
70
0
10
-1.353859
20
0.501269
30
-0.678192
11
-1.353859
21
0.640000
31
-1.418859
12
-1.353859
22
0.501269
32
-0.953954
13
-1.353859
23
0.501269
33
-0.953954
0
3DFACE
8
0
70
0
10
-1.353859
20
0.501269
30
2.919435
11
-1.353859
21
0.623377
31
3.276205
12
-1.353859
22
0.501269
32
2.583435
13
-1.353859
23
0.501269
33
2.583435
0
3DFACE
8
0
70
0
10
-1.353859
20
0.501269
30
-0.402429
11
-1.353859
21
0.640000
31
-1.418859
12
-1.353859
22
0.501269
32
-0.678192
13
-1.353859
23
0.501269
33
-0.678192
0
3DFACE
8
0
70
0
10
-1.353859
20
0.501269
30
2.583435
11
-1.353859
21
0.623377
31
3.276205
12
-1.353859
22
0.501269
32
2.331435
13
-1.353859
23
0.501269
33
2.331435
0
3DFACE
8
0
70
0
10
-1.353859
20
0.501269
30
2.331435
11
-1.353859
21
0.623377
31
3.276205
12
-1.353859
22
0.640000
32
-1.418859
13
-1.353859
23
0.640000
33
-1.418859
0
3DFACE
8
0
70
0
10
-1.353859
20
0.501269
30
-0.126666
11
-1.353859
21
0.640000
31
-1.418859
12
-1.353859
22
0.501269
32
-0.402429
13
-1.353859
23
0.501269
33
-0.402429
0
3DFACE
8
0
70
0
10
-1.353859
20
0.501269
30
0.149097
11
-1.353859
21
0.640000
31
-1.418859
12
-1.353859
22
0.501269
32
-0.126666
13
-1.353859
23
0.501269
33
-0.126666
0
3DFACE
8
0
70
0
10
-1.353859
20
0.501269
30
0.424859
11
-1.353859
21
0.640000
31
-1.418859
12
-1.353859
22
0.501269
32
0.149097
13
-1.353859
23
0.501269
33
0.149097
0
3DFACE
8
0
70
0
10
-1.353859
20
0.501269
30
0.700622
11
-1.353859
21
0.640000
31
-1.418859
12
-1.353859
22
0.501269
32
0.424859
13
-1.353859
23
0.501269
33
0.424859
0
3DFACE
8
0
70
0
10
-1.353859
20
0.501269
30
0.976385
11
-1.353859
21
0.640000
31
-1.418859
12
-1.353859
22
0.501269
32
0.700622
13
-1.353859
23
0.501269
33
0.700622
0
3DFACE
8
0
70
0
10
-1.353859
20
0.501269
30
1.252147
11
-1.353859
21
0.640000
31
-1.418859
12
-1.353859
22
0.501269
32
0.976385
13
-1.353859
23
0.501269
33
0.976385
0
3DFACE
8
0
70
0
10
-1.353859
20
0.501269
30
1.527910
11
-1.353859
21
0.640000
31
-1.418859
12
-1.353859
22
0.501269
32
1.252147
13
-1.353859
23
0.501269
33
1.252147
0
3DFACE
8
0
70
0
10
-1.353859
20
0.501269
30
1.803673
11
-1.353859
21
0.640000
31
-1.418859
12
-1.353859
22
0.501269
32
1.527910
13
-1.353859
23
0.501269
33
1.527910
0
3DFACE
8
0
70
0
10
-1.353859
20
0.501269
30
2.079435
11
-1.353859
21
0.640000
31
-1.418859
12
-1.353859
22
0.501269
32
1.803673
13
-1.353859
23
0.501269
33
1.803673
0
3DFACE
8
0
70
0
10
-1.353859
20
0.501269
30
2.331435
11
-1.353859
21
0.640000
31
-1.418859
12
-1.353859
22
0.501269
32
2.079435
13
-1.353859
23
0.501269
33
2.079435
0
3DFACE
8
0
70
0
10
-1.026141
20
0.421950
30
-1.160333
11
-1.026141
21
0.421950
31
-1.418859
12
-1.026141
22
0.640000
32
-1.418859
13
-1.026141
23
0.640000
33
-1.418859
0
3DFACE
8
0
70
0
10
-1.026141
20
0.501269
30
3.000921
11
-1.026141
21
0.501269
31
2.909016
12
-1.026141
22
0.623377
32
3.000921
13
-1.026141
23
0.623377
33
3.000921
0
3DFACE
8
0
70
0
10
-1.026141
20
0.421950
30
-1.160333
11
-1.026141
21
0.640000
31
-1.418859
12
-1.026141
22
0.501269
32
-1.004394
13
-1.026141
23
0.501269
33
-1.004394
0
3DFACE
8
0
70
0
10
-1.026141
20
0.501269
30
2.909016
11
-1.026141
21
0.501269
31
2.582852
12
-1.026141
22
0.623377
32
3.000921
13
-1.026141
23
0.623377
33
3.000921
0
3DFACE
8
0
70
0
10
-1.026141
20
0.501269
30
2.582852
11
-1.026141
21
0.501269
31
2.331435
12
-1.026141
22
0.623377
32
3.000921
13
-1.026141
23
0.623377
33
3.000921
0
3DFACE
8
0
70
0
10
-1.026141
20
0.501269
30
2.331435
11
-1.026141
21
0.501269
31
2.078983
12
-1.026141
22
0.623377
32
3.000921
13
-1.026141
23
0.623377
33
3.000921
0
3DFACE
8
0
70
0
10
-1.026141
20
0.501269
30
2.078983
11
-1.026141
21
0.640000
31
-1.418859
12
-1.026141
22
0.623377
32
3.000921
13
-1.026141
23
0.623377
33
3.000921
0
3DFACE
8
0
70
0
10
-1.026141
20
0.501269
30
-0.954534
11
-1.026141
21
0.501269
31
-1.004394
12
-1.026141
22
0.640000
32
-1.418859
13
-1.026141
23
0.640000
33
-1.418859
0
3DFACE
8
0
70
0
10
-1.026141
20
0.501269
30
-0.678576
11
-1.026141
21
0.501269
31
-0.954534
12
-1.026141
22
0.640000
32
-1.418859
13
-1.026141
23
0.640000
33
-1.418859
0
3DFACE
8
0
70
0
10
-1.026141
20
0.501269
30
-0.401635
11
-1.026141
21
0.501269
31
-0.678576
12
-1.026141
22
0.640000
32
-1.418859
13
-1.026141
23
0.640000
33
-1.418859
0
3DFACE
8
0
70
0
10
-1.026141
20
0.501269
30
-0.137523
11
-1.026141
21
0.501269
31
-0.401635
12
-1.026141
22
0.640000
32
-1.418859
13
-1.026141
23
0.640000
33
-1.418859
0
3DFACE
8
0
70
0
10
-1.026141
20
0.501269
30
0.133963
11
-1.026141
21
0.501269
31
-0.137523
12
-1.026141
22
0.640000
32
-1.418859
13
-1.026141
23
0.640000
33
-1.418859
0
3DFACE
8
0
70
0
10
-1.026141
20
0.501269
30
0.407481
11
-1.026141
21
0.501269
31
0.133963
12
-1.026141
22
0.640000
32
-1.418859
13
-1.026141
23
0.640000
33
-1.418859
0
3DFACE
8
0
70
0
10
-1.026141
20
0.501269
30
0.675558
11
-1.026141
21
0.501269
31
0.407481
12
-1.026141
22
0.640000
32
-1.418859
13
-1.026141
23
0.640000
33
-1.418859
0
3DFACE
8
0
70
0
10
-1.026141
20
0.501269
30
0.976183
11
-1.026141
21
0.501269
31
0.675558
12
-1.026141
22
0.640000
32
-1.418859
13
-1.026141
23
0.640000
33
-1.418859
0
3DFACE
8
0
70
0
10
-1.026141
20
0.501269
30
1.253199
11
-1.026141
21
0.501269
31
0.976183
12
-1.026141
22
0.640000
32
-1.418859
13
-1.026141
23
0.640000
33
-1.418859
0
3DFACE
8
0
70
0
10
-1.026141
20
0.501269
30
1.528879
11
-1.026141
21
0.501269
31
1.253199
12
-1.026141
22
0.640000
32
-1.418859
13
-1.026141
23
0.640000
33
-1.418859
0
3DFACE
8
0
70
0
10
-1.026141
20
0.501269
30
2.078983
11
-1.026141
21
0.501269
31
1.803428
12
-1.026141
22
0.640000
32
-1.418859
13
-1.026141
23
0.640000
33
-1.418859
0
3DFACE
8
0
70
0
10
-1.026141
20
0.501269
30
1.803428
11
-1.026141
21
0.501269
31
1.528879
12
-1.026141
22
0.640000
32
-1.418859
13
-1.026141
23
0.640000
33
-1.418859
0
3DFACE
8
0
70
0
10
-1.353859
20
0.623377
30
3.276205
11
-1.026141
21
0.623377
31
3.000921
12
-1.353859
22
0.640000
32
-1.418859
13
-1.353859
23
0.640000
33
-1.418859
0
3DFACE
8
0
70
0
10
-1.026141
20
0.623377
30
3.000921
11
-1.026141
21
0.640000
31
-1.418859
12
-1.353859
22
0.640000
32
-1.418859
13
-1.353859
23
0.640000
33
-1.418859
0
3DFACE
8
0
70
0
10
-1.353859
20
0.421950
30
-1.418859
11
-1.353859
21
0.640000
31
-1.418859
12
-1.353859
22
0.640000
32
-1.537717
13
-1.353859
23
0.640000
33
-1.537717
0
3DFACE
8
0
70
0
10
-1.353859
20
0.421950
30
-1.418859
11
-1.353859
21
0.640000
31
-1.537717
12
-1.353859
22
0.421950
32
-1.537717
13
-1.353859
23
0.421950
33
-1.537717
0
3DFACE
8
0
70
0
10
-1.026141
20
0.421950
30
-1.537717
11
-1.026141
21
0.640000
31
-1.537717
12
-1.026141
22
0.640000
32
-1.418859
13
-1.026141
23
0.640000
33
-1.418859
0
3DFACE
8
0
70
0
10
-1.026141
20
0.421950
30
-1.418859
11
-1.026141
21
0.421950
31
-1.537717
12
-1.026141
22
0.640000
32
-1.418859
13
-1.026141
23
0.640000
33
-1.418859
0
3DFACE
8
0
70
0
10
-1.353859
20
0.421950
30
-1.537717
11
-1.353859
21
0.640000
31
-1.537717
12
-1.353859
22
0.600000
32
-1.656575
13
-1.353859
23
0.600000
33
-1.656575
0
3DFACE
8
0
70
0
10
-1.353859
20
0.421950
30
-1.537717
11
-1.353859
21
0.600000
31
-1.656575
12
-1.353859
22
0.421950
32
-1.656575
13
-1.353859
23
0.421950
33
-1.656575
0
3DFACE
8
0
70
0
10
-1.026141
20
0.421950
30
-1.537717
11
-1.026141
21
0.421950
31
-1.656575
12
-1.026141
22
0.600000
32
-1.656575
13
-1.026141
23
0.600000
33
-1.656575
0
3DFACE
8
0
70
0
10
-1.026141
20
0.421950
30
-1.537717
11
-1.026141
21
0.600000
31
-1.656575
12
-1.026141
22
0.640000
32
-1.537717
13
-1.026141
23
0.640000
33
-1.537717
0
3DFACE
8
0
70
0
10
-1.353859
20
0.421950
30
-1.688622
11
-1.353859
21
0.460000
31
-1.775434
12
-1.353859
22
0.421950
32
-1.775434
13
-1.353859
23
0.421950
33
-1.775434
0
3DFACE
8
0
70
0
10
-1.353859
20
0.421950
30
-1.688622
11
-1.353859
21
0.600000
31
-1.656575
12
-1.353859
22
0.460000
32
-1.775434
13
-1.353859
23
0.460000
33
-1.775434
0
3DFACE
8
0
70
0
10
-1.353859
20
0.421950
30
-1.656575
11
-1.353859
21
0.600000
31
-1.656575
12
-1.353859
22
0.421950
32
-1.688622
13
-1.353859
23
0.421950
33
-1.688622
0
3DFACE
8
0
70
0
10
-1.026141
20
0.421950
30
-1.688622
11
-1.026141
21
0.421950
31
-1.775434
12
-1.026141
22
0.460000
32
-1.775434
13
-1.026141
23
0.460000
33
-1.775434
0
3DFACE
8
0
70
0
10
-1.026141
20
0.421950
30
-1.656575
11
-1.026141
21
0.421950
31
-1.688622
12
-1.026141
22
0.600000
32
-1.656575
13
-1.026141
23
0.600000
33
-1.656575
0
3DFACE
8
0
70
0
10
-1.026141
20
0.421950
30
-1.688622
11
-1.026141
21
0.460000
31
-1.775434
12
-1.026141
22
0.600000
32
-1.656575
13
-1.026141
23
0.600000
33
-1.656575
0
3DFACE
8
0
70
0
10
-1.353859
20
0.421950
30
-1.775434
11
-1.353859
21
0.460000
31
-1.775434
12
-1.026141
22
0.460000
32
-1.775434
13
-1.026141
23
0.460000
33
-1.775434
0
3DFACE
8
0
70
0
10
-1.026141
20
0.421950
30
-1.775434
11
-1.353859
21
0.421950
31
-1.775434
12
-1.026141
22
0.460000
32
-1.775434
13
-1.026141
23
0.460000
33
-1.775434
0
3DFACE
8
0
70
0
10
0.022319
20
0.708581
30
-6.147992
11
-0.648878
21
0.708581
31
-6.147992
12
-0.570514
22
0.782492
32
-6.317982
13
-0.570514
23
0.782492
33
-6.317982
0
3DFACE
8
0
70
0
10
0.022319
20
0.708581
30
-6.147992
11
-0.570514
21
0.782492
31
-6.317982
12
0.151204
22
0.782492
32
-6.317982
13
0.151204
23
0.782492
33
-6.317982
0
3DFACE
8
0
70
0
10
0.475677
20
0.708581
30
-5.196185
11
0.022319
21
0.708581
31
-6.147992
12
0.638685
22
0.782492
32
-5.294534
13
0.638685
23
0.782492
33
-5.294534
0
3DFACE
8
0
70
0
10
0.022319
20
0.708581
30
-6.147992
11
0.151204
21
0.782492
31
-6.317982
12
0.638685
22
0.782492
32
-5.294534
13
0.638685
23
0.782492
33
-5.294534
0
3DFACE
8
0
70
0
10
0.475677
20
0.708581
30
-4.972050
11
0.475677
21
0.708581
31
-5.196185
12
0.638685
22
0.782492
32
-5.053529
13
0.638685
23
0.782492
33
-5.053529
0
3DFACE
8
0
70
0
10
0.475677
20
0.708581
30
-5.196185
11
0.638685
21
0.782492
31
-5.294534
12
0.638685
22
0.782492
32
-5.053529
13
0.638685
23
0.782492
33
-5.053529
0
3DFACE
8
0
70
0
10
-0.247652
20
0.708581
30
-2.266172
11
0.475677
21
0.708581
31
-4.972050
12
-0.139088
22
0.782492
32
-2.139437
13
-0.139088
23
0.782492
33
-2.139437
0
3DFACE
8
0
70
0
10
0.475677
20
0.708581
30
-4.972050
11
0.638685
21
0.782492
31
-5.053529
12
-0.139088
22
0.782492
32
-2.139437
13
-0.139088
23
0.782492
33
-2.139437
0
3DFACE
8
0
70
0
10
-0.609081
20
0.708581
30
-2.158343
11
-0.247652
21
0.708581
31
-2.266172
12
-0.527721
22
0.782492
32
-2.043596
13
-0.527721
23
0.782492
33
-2.043596
0
3DFACE
8
0
70
0
10
-0.247652
20
0.708581
30
-2.266172
11
-0.139088
21
0.782492
31
-2.139437
12
-0.527721
22
0.782492
32
-2.043596
13
-0.527721
23
0.782492
33
-2.043596
0
3DFACE
8
0
70
0
10
-0.648878
20
0.708581
30
-6.147992
11
-1.342959
21
0.708581
31
-6.147992
12
-1.316838
22
0.782492
32
-6.317982
13
-1.316838
23
0.782492
33
-6.317982
0
3DFACE
8
0
70
0
10
-0.648878
20
0.708581
30
-6.147992
11
-1.316838
21
0.782492
31
-6.317982
12
-0.570514
22
0.782492
32
-6.317982
13
-0.570514
23
0.782492
33
-6.317982
0
3DFACE
8
0
70
0
10
-1.468009
20
0.708581
30
-2.133527
11
-0.609081
21
0.708581
31
-2.158343
12
-1.451300
22
0.782492
32
-2.016911
13
-1.451300
23
0.782492
33
-2.016911
0
3DFACE
8
0
70
0
10
-0.609081
20
0.708581
30
-2.158343
11
-0.527721
21
0.782492
31
-2.043596
12
-1.451300
22
0.782492
32
-2.016911
13
-1.451300
23
0.782492
33
-2.016911
0
3DFACE
8
0
70
0
10
-1.342959
20
0.708581
30
-6.147992
11
-2.037040
21
0.708581
31
-6.147992
12
-1.316838
22
0.782492
32
-6.317982
13
-1.316838
23
0.782492
33
-6.317982
0
3DFACE
8
0
70
0
10
-2.037040
20
0.708581
30
-6.147992
11
-2.063162
21
0.782492
31
-6.317982
12
-1.316838
22
0.782492
32
-6.317982
13
-1.316838
23
0.782492
33
-6.317982
0
3DFACE
8
0
70
0
10
-1.468009
20
0.708581
30
-2.133527
11
-1.451300
21
0.782492
31
-2.016911
12
-1.911991
22
0.708581
32
-2.133527
13
-1.911991
23
0.708581
33
-2.133527
0
3DFACE
8
0
70
0
10
-1.911991
20
0.708581
30
-2.133527
11
-1.451300
21
0.782492
31
-2.016911
12
-1.928700
22
0.782492
32
-2.016911
13
-1.928700
23
0.782492
33
-2.016911
0
3DFACE
8
0
70
0
10
-2.037040
20
0.708581
30
-6.147992
11
-2.731122
21
0.708581
31
-6.147992
12
-2.063162
22
0.782492
32
-6.317982
13
-2.063162
23
0.782492
33
-6.317982
0
3DFACE
8
0
70
0
10
-2.731122
20
0.708581
30
-6.147992
11
-2.809486
21
0.782492
31
-6.317982
12
-2.063162
22
0.782492
32
-6.317982
13
-2.063162
23
0.782492
33
-6.317982
0
3DFACE
8
0
70
0
10
-1.911991
20
0.708581
30
-2.133527
11
-1.928700
21
0.782492
31
-2.016911
12
-2.770919
22
0.708581
32
-2.158343
13
-2.770919
23
0.708581
33
-2.158343
0
3DFACE
8
0
70
0
10
-2.770919
20
0.708581
30
-2.158343
11
-1.928700
21
0.782492
31
-2.016911
12
-2.852279
22
0.782492
32
-2.043596
13
-2.852279
23
0.782492
33
-2.043596
0
3DFACE
8
0
70
0
10
-3.855677
20
0.708581
30
-5.196185
11
-4.018685
21
0.782492
31
-5.294534
12
-3.402320
22
0.708581
32
-6.147992
13
-3.402320
23
0.708581
33
-6.147992
0
3DFACE
8
0
70
0
10
-3.402320
20
0.708581
30
-6.147992
11
-4.018685
21
0.782492
31
-5.294534
12
-3.531204
22
0.782492
32
-6.317982
13
-3.531204
23
0.782492
33
-6.317982
0
3DFACE
8
0
70
0
10
-2.731122
20
0.708581
30
-6.147992
11
-3.402320
21
0.708581
31
-6.147992
12
-2.809486
22
0.782492
32
-6.317982
13
-2.809486
23
0.782492
33
-6.317982
0
3DFACE
8
0
70
0
10
-3.402320
20
0.708581
30
-6.147992
11
-3.531204
21
0.782492
31
-6.317982
12
-2.809486
22
0.782492
32
-6.317982
13
-2.809486
23
0.782492
33
-6.317982
0
3DFACE
8
0
70
0
10
-3.855677
20
0.708581
30
-4.972050
11
-4.018685
21
0.782492
31
-5.053529
12
-3.855677
22
0.708581
32
-5.196185
13
-3.855677
23
0.708581
33
-5.196185
0
3DFACE
8
0
70
0
10
-3.855677
20
0.708581
30
-5.196185
11
-4.018685
21
0.782492
31
-5.053529
12
-4.018685
22
0.782492
32
-5.294534
13
-4.018685
23
0.782492
33
-5.294534
0
3DFACE
8
0
70
0
10
-3.132349
20
0.708581
30
-2.266172
11
-3.240912
21
0.782492
31
-2.139437
12
-3.855677
22
0.708581
32
-4.972050
13
-3.855677
23
0.708581
33
-4.972050
0
3DFACE
8
0
70
0
10
-3.855677
20
0.708581
30
-4.972050
11
-3.240912
21
0.782492
31
-2.139437
12
-4.018685
22
0.782492
32
-5.053529
13
-4.018685
23
0.782492
33
-5.053529
0
3DFACE
8
0
70
0
10
-2.770919
20
0.708581
30
-2.158343
11
-2.852279
21
0.782492
31
-2.043596
12
-3.132349
22
0.708581
32
-2.266172
13
-3.132349
23
0.708581
33
-2.266172
0
3DFACE
8
0
70
0
10
-3.132349
20
0.708581
30
-2.266172
11
-2.852279
21
0.782492
31
-2.043596
12
-3.240912
22
0.782492
32
-2.139437
13
-3.240912
23
0.782492
33
-2.139437
0
3DFACE
8
0
70
0
10
0.638685
20
0.421950
30
-5.294534
11
0.151204
21
0.421950
31
-6.317982
12
0.022319
22
0.495861
32
-6.147992
13
0.022319
23
0.495861
33
-6.147992
0
3DFACE
8
0
70
0
10
0.638685
20
0.421950
30
-5.294534
11
0.022319
21
0.495861
31
-6.147992
12
0.475677
22
0.495861
32
-5.196185
13
0.475677
23
0.495861
33
-5.196185
0
3DFACE
8
0
70
0
10
0.151204
20
0.421950
30
-6.317982
11
-0.570514
21
0.421950
31
-6.317982
12
0.022319
22
0.495861
32
-6.147992
13
0.022319
23
0.495861
33
-6.147992
0
3DFACE
8
0
70
0
10
-0.570514
20
0.421950
30
-6.317982
11
-0.648878
21
0.495861
31
-6.147992
12
0.022319
22
0.495861
32
-6.147992
13
0.022319
23
0.495861
33
-6.147992
0
3DFACE
8
0
70
0
10
0.638685
20
0.421950
30
-5.053529
11
0.475677
21
0.495861
31
-5.196185
12
0.475677
22
0.495861
32
-4.972050
13
0.475677
23
0.495861
33
-4.972050
0
3DFACE
8
0
70
0
10
0.638685
20
0.421950
30
-5.053529
11
0.638685
21
0.421950
31
-5.294534
12
0.475677
22
0.495861
32
-5.196185
13
0.475677
23
0.495861
33
-5.196185
0
3DFACE
8
0
70
0
10
-0.527721
20
0.421950
30
-2.043596
11
-0.247652
21
0.495861
31
-2.266172
12
-0.609081
22
0.495861
32
-2.158343
13
-0.609081
23
0.495861
33
-2.158343
0
3DFACE
8
0
70
0
10
-0.527721
20
0.421950
30
-2.043596
11
-0.139088
21
0.421950
31
-2.139437
12
-0.247652
22
0.495861
32
-2.266172
13
-0.247652
23
0.495861
33
-2.266172
0
3DFACE
8
0
70
0
10
-0.139088
20
0.421950
30
-2.139437
11
0.475677
21
0.495861
31
-4.972050
12
-0.247652
22
0.495861
32
-2.266172
13
-0.247652
23
0.495861
33
-2.266172
0
3DFACE
8
0
70
0
10
-0.139088
20
0.421950
30
-2.139437
11
0.638685
21
0.421950
31
-5.053529
12
0.475677
22
0.495861
32
-4.972050
13
0.475677
23
0.495861
33
-4.972050
0
3DFACE
8
0
70
0
10
-0.570514
20
0.421950
30
-6.317982
11
-1.316838
21
0.421950
31
-6.317982
12
-0.648878
22
0.495861
32
-6.147992
13
-0.648878
23
0.495861
33
-6.147992
0
3DFACE
8
0
70
0
10
-1.316838
20
0.421950
30
-6.317982
11
-1.342959
21
0.495861
31
-6.147992
12
-0.648878
22
0.495861
32
-6.147992
13
-0.648878
23
0.495861
33
-6.147992
0
3DFACE
8
0
70
0
10
-1.451300
20
0.421950
30
-2.016911
11
-0.609081
21
0.495861
31
-2.158343
12
-1.468009
22
0.495861
32
-2.133527
13
-1.468009
23
0.495861
33
-2.133527
0
3DFACE
8
0
70
0
10
-1.451300
20
0.421950
30
-2.016911
11
-0.527721
21
0.421950
31
-2.043596
12
-0.609081
22
0.495861
32
-2.158343
13
-0.609081
23
0.495861
33
-2.158343
0
3DFACE
8
0
70
0
10
-1.316838
20
0.421950
30
-6.317982
11
-2.037040
21
0.495861
31
-6.147992
12
-1.342959
22
0.495861
32
-6.147992
13
-1.342959
23
0.495861
33
-6.147992
0
3DFACE
8
0
70
0
10
-1.316838
20
0.421950
30
-6.317982
11
-2.063162
21
0.421950
31
-6.317982
12
-2.037040
22
0.495861
32
-6.147992
13
-2.037040
23
0.495861
33
-6.147992
0
3DFACE
8
0
70
0
10
-1.451300
20
0.421950
30
-2.016911
11
-1.468009
21
0.495861
31
-2.133527
12
-1.911991
22
0.495861
32
-2.133527
13
-1.911991
23
0.495861
33
-2.133527
0
3DFACE
8
0
70
0
10
-1.451300
20
0.421950
30
-2.016911
11
-1.911991
21
0.495861
31
-2.133527
12
-1.928700
22
0.421950
32
-2.016911
13
-1.928700
23
0.421950
33
-2.016911
0
3DFACE
8
0
70
0
10
-2.063162
20
0.421950
30
-6.317982
11
-2.731122
21
0.495861
31
-6.147992
12
-2.037040
22
0.495861
32
-6.147992
13
-2.037040
23
0.495861
33
-6.147992
0
3DFACE
8
0
70
0
10
-2.063162
20
0.421950
30
-6.317982
11
-2.809486
21
0.421950
31
-6.317982
12
-2.731122
22
0.495861
32
-6.147992
13
-2.731122
23
0.495861
33
-6.147992
0
3DFACE
8
0
70
0
10
-1.928700
20
0.421950
30
-2.016911
11
-1.911991
21
0.495861
31
-2.133527
12
-2.770919
22
0.495861
32
-2.158343
13
-2.770919
23
0.495861
33
-2.158343
0
3DFACE
8
0
70
0
10
-1.928700
20
0.421950
30
-2.016911
11
-2.770919
21
0.495861
31
-2.158343
12
-2.852279
22
0.421950
32
-2.043596
13
-2.852279
23
0.421950
33
-2.043596
0
3DFACE
8
0
70
0
10
-2.809486
20
0.421950
30
-6.317982
11
-3.402320
21
0.495861
31
-6.147992
12
-2.731122
22
0.495861
32
-6.147992
13
-2.731122
23
0.495861
33
-6.147992
0
3DFACE
8
0
70
0
10
-2.809486
20
0.421950
30
-6.317982
11
-3.531204
21
0.421950
31
-6.317982
12
-3.402320
22
0.495861
32
-6.147992
13
-3.402320
23
0.495861
33
-6.147992
0
3DFACE
8
0
70
0
10
-4.018685
20
0.421950
30
-5.294534
11
-3.855677
21
0.495861
31
-5.196185
12
-3.402320
22
0.495861
32
-6.147992
13
-3.402320
23
0.495861
33
-6.147992
0
3DFACE
8
0
70
0
10
-4.018685
20
0.421950
30
-5.294534
11
-3.402320
21
0.495861
31
-6.147992
12
-3.531204
22
0.421950
32
-6.317982
13
-3.531204
23
0.421950
33
-6.317982
0
3DFACE
8
0
70
0
10
-4.018685
20
0.421950
30
-5.053529
11
-3.855677
21
0.495861
31
-4.972050
12
-3.855677
22
0.495861
32
-5.196185
13
-3.855677
23
0.495861
33
-5.196185
0
3DFACE
8
0
70
0
10
-4.018685
20
0.421950
30
-5.053529
11
-3.855677
21
0.495861
31
-5.196185
12
-4.018685
22
0.421950
32
-5.294534
13
-4.018685
23
0.421950
33
-5.294534
0
3DFACE
8
0
70
0
10
-2.852279
20
0.421950
30
-2.043596
11
-2.770919
21
0.495861
31
-2.158343
12
-3.132349
22
0.495861
32
-2.266172
13
-3.132349
23
0.495861
33
-2.266172
0
3DFACE
8
0
70
0
10
-2.852279
20
0.421950
30
-2.043596
11
-3.132349
21
0.495861
31
-2.266172
12
-3.240912
22
0.421950
32
-2.139437
13
-3.240912
23
0.421950
33
-2.139437
0
3DFACE
8
0
70
0
10
-3.240912
20
0.421950
30
-2.139437
11
-3.132349
21
0.495861
31
-2.266172
12
-3.855677
22
0.495861
32
-4.972050
13
-3.855677
23
0.495861
33
-4.972050
0
3DFACE
8
0
70
0
10
-3.240912
20
0.421950
30
-2.139437
11
-3.855677
21
0.495861
31
-4.972050
12
-4.018685
22
0.421950
32
-5.053529
13
-4.018685
23
0.421950
33
-5.053529
0
3DFACE
8
0
70
0
10
-1.262426
20
0.708581
30
-5.338988
11
-1.342959
21
0.708581
31
-6.147992
12
-0.648878
22
0.708581
32
-6.147992
13
-0.648878
23
0.708581
33
-6.147992
0
3DFACE
8
0
70
0
10
-0.367775
20
0.708581
30
-5.206710
11
-1.262426
21
0.708581
31
-5.338988
12
-0.648878
22
0.708581
32
-6.147992
13
-0.648878
23
0.708581
33
-6.147992
0
3DFACE
8
0
70
0
10
-0.367775
20
0.708581
30
-5.206710
11
-1.214049
21
0.708581
31
-5.206710
12
-1.217037
22
0.708581
32
-5.229410
13
-1.217037
23
0.708581
33
-5.229410
0
3DFACE
8
0
70
0
10
-0.367775
20
0.708581
30
-5.206710
11
-1.217037
21
0.708581
31
-5.229410
12
-1.262426
22
0.708581
32
-5.338988
13
-1.262426
23
0.708581
33
-5.338988
0
3DFACE
8
0
70
0
10
-0.367775
20
0.708581
30
-4.968716
11
-1.214049
21
0.708581
31
-5.206710
12
-0.367775
22
0.708581
32
-5.206710
13
-0.367775
23
0.708581
33
-5.206710
0
3DFACE
8
0
70
0
10
-0.367775
20
0.708581
30
-4.968716
11
-1.200000
21
0.708581
31
-5.100000
12
-1.214049
22
0.708581
32
-5.206710
13
-1.214049
23
0.708581
33
-5.206710
0
3DFACE
8
0
70
0
10
-0.367775
20
0.708581
30
-4.968716
11
-1.217814
21
0.708581
31
-4.968716
12
-1.217037
22
0.708581
32
-4.970591
13
-1.217037
23
0.708581
33
-4.970591
0
3DFACE
8
0
70
0
10
-0.367775
20
0.708581
30
-4.968716
11
-1.217037
21
0.708581
31
-4.970591
12
-1.200000
22
0.708581
32
-5.100000
13
-1.200000
23
0.708581
33
-5.100000
0
3DFACE
8
0
70
0
10
-1.468009
20
0.708581
30
-2.133527
11
-1.256456
21
0.708581
31
-4.875424
12
-0.609081
22
0.708581
32
-2.158343
13
-0.609081
23
0.708581
33
-2.158343
0
3DFACE
8
0
70
0
10
-0.609081
20
0.708581
30
-2.158343
11
-1.256456
21
0.708581
31
-4.875424
12
-0.367775
22
0.708581
32
-4.968716
13
-0.367775
23
0.708581
33
-4.968716
0
3DFACE
8
0
70
0
10
-1.256456
20
0.708581
30
-4.875424
11
-1.217814
21
0.708581
31
-4.968716
12
-0.367775
22
0.708581
32
-4.968716
13
-0.367775
23
0.708581
33
-4.968716
0
3DFACE
8
0
70
0
10
-2.114012
20
0.708581
30
-5.374762
11
-2.037040
21
0.708581
31
-6.147992
12
-2.053553
22
0.708581
32
-5.453553
13
-2.053553
23
0.708581
33
-5.453553
0
3DFACE
8
0
70
0
10
-2.053553
20
0.708581
30
-5.453553
11
-2.037040
21
0.708581
31
-6.147992
12
-1.342959
22
0.708581
32
-6.147992
13
-1.342959
23
0.708581
33
-6.147992
0
3DFACE
8
0
70
0
10
-2.053553
20
0.708581
30
-5.453553
11
-1.342959
21
0.708581
31
-6.147992
12
-1.950000
22
0.708581
32
-5.533013
13
-1.950000
23
0.708581
33
-5.533013
0
3DFACE
8
0
70
0
10
-1.950000
20
0.708581
30
-5.533013
11
-1.342959
21
0.708581
31
-6.147992
12
-1.829409
22
0.708581
32
-5.582963
13
-1.829409
23
0.708581
33
-5.582963
0
3DFACE
8
0
70
0
10
-1.829409
20
0.708581
30
-5.582963
11
-1.342959
21
0.708581
31
-6.147992
12
-1.700000
22
0.708581
32
-5.600000
13
-1.700000
23
0.708581
33
-5.600000
0
3DFACE
8
0
70
0
10
-1.570590
20
0.708581
30
-5.582963
11
-1.700000
21
0.708581
31
-5.600000
12
-1.342959
22
0.708581
32
-6.147992
13
-1.342959
23
0.708581
33
-6.147992
0
3DFACE
8
0
70
0
10
-1.450000
20
0.708581
30
-5.533013
11
-1.570590
21
0.708581
31
-5.582963
12
-1.342959
22
0.708581
32
-6.147992
13
-1.342959
23
0.708581
33
-6.147992
0
3DFACE
8
0
70
0
10
-1.346447
20
0.708581
30
-5.453553
11
-1.450000
21
0.708581
31
-5.533013
12
-1.342959
22
0.708581
32
-6.147992
13
-1.342959
23
0.708581
33
-6.147992
0
3DFACE
8
0
70
0
10
-1.262426
20
0.708581
30
-5.338988
11
-1.266987
21
0.708581
31
-5.350000
12
-1.342959
22
0.708581
32
-6.147992
13
-1.342959
23
0.708581
33
-6.147992
0
3DFACE
8
0
70
0
10
-1.266987
20
0.708581
30
-5.350000
11
-1.346447
21
0.708581
31
-5.453553
12
-1.342959
22
0.708581
32
-6.147992
13
-1.342959
23
0.708581
33
-6.147992
0
3DFACE
8
0
70
0
10
-1.468009
20
0.708581
30
-2.133527
11
-1.911991
21
0.708581
31
-2.133527
12
-2.120304
22
0.708581
32
-4.833437
13
-2.120304
23
0.708581
33
-4.833437
0
3DFACE
8
0
70
0
10
-1.468009
20
0.708581
30
-2.133527
11
-2.120304
21
0.708581
31
-4.833437
12
-2.053553
22
0.708581
32
-4.746447
13
-2.053553
23
0.708581
33
-4.746447
0
3DFACE
8
0
70
0
10
-1.468009
20
0.708581
30
-2.133527
11
-2.053553
21
0.708581
31
-4.746447
12
-1.950000
22
0.708581
32
-4.666987
13
-1.950000
23
0.708581
33
-4.666987
0
3DFACE
8
0
70
0
10
-1.468009
20
0.708581
30
-2.133527
11
-1.950000
21
0.708581
31
-4.666987
12
-1.829409
22
0.708581
32
-4.617037
13
-1.829409
23
0.708581
33
-4.617037
0
3DFACE
8
0
70
0
10
-1.468009
20
0.708581
30
-2.133527
11
-1.829409
21
0.708581
31
-4.617037
12
-1.700000
22
0.708581
32
-4.600000
13
-1.700000
23
0.708581
33
-4.600000
0
3DFACE
8
0
70
0
10
-1.468009
20
0.708581
30
-2.133527
11
-1.700000
21
0.708581
31
-4.600000
12
-1.570590
22
0.708581
32
-4.617037
13
-1.570590
23
0.708581
33
-4.617037
0
3DFACE
8
0
70
0
10
-1.468009
20
0.708581
30
-2.133527
11
-1.570590
21
0.708581
31
-4.617037
12
-1.450000
22
0.708581
32
-4.666987
13
-1.450000
23
0.708581
33
-4.666987
0
3DFACE
8
0
70
0
10
-1.468009
20
0.708581
30
-2.133527
11
-1.450000
21
0.708581
31
-4.666987
12
-1.346447
22
0.708581
32
-4.746447
13
-1.346447
23
0.708581
33
-4.746447
0
3DFACE
8
0
70
0
10
-1.468009
20
0.708581
30
-2.133527
11
-1.346447
21
0.708581
31
-4.746447
12
-1.266987
22
0.708581
32
-4.850000
13
-1.266987
23
0.708581
33
-4.850000
0
3DFACE
8
0
70
0
10
-1.468009
20
0.708581
30
-2.133527
11
-1.266987
21
0.708581
31
-4.850000
12
-1.256456
22
0.708581
32
-4.875424
13
-1.256456
23
0.708581
33
-4.875424
0
3DFACE
8
0
70
0
10
-2.114012
20
0.708581
30
-5.374762
11
-2.731122
21
0.708581
31
-6.147992
12
-2.037040
22
0.708581
32
-6.147992
13
-2.037040
23
0.708581
33
-6.147992
0
3DFACE
8
0
70
0
10
-3.012225
20
0.708581
30
-5.206710
11
-2.731122
21
0.708581
31
-6.147992
12
-2.114012
22
0.708581
32
-5.374762
13
-2.114012
23
0.708581
33
-5.374762
0
3DFACE
8
0
70
0
10
-2.185951
20
0.708581
30
-5.206710
11
-3.012225
21
0.708581
31
-5.206710
12
-2.182963
22
0.708581
32
-5.229410
13
-2.182963
23
0.708581
33
-5.229410
0
3DFACE
8
0
70
0
10
-3.012225
20
0.708581
30
-5.206710
11
-2.114012
21
0.708581
31
-5.374762
12
-2.133013
22
0.708581
32
-5.350000
13
-2.133013
23
0.708581
33
-5.350000
0
3DFACE
8
0
70
0
10
-3.012225
20
0.708581
30
-5.206710
11
-2.133013
21
0.708581
31
-5.350000
12
-2.182963
22
0.708581
32
-5.229410
13
-2.182963
23
0.708581
33
-5.229410
0
3DFACE
8
0
70
0
10
-3.012225
20
0.708581
30
-4.968716
11
-3.012225
21
0.708581
31
-5.206710
12
-2.185951
22
0.708581
32
-5.206710
13
-2.185951
23
0.708581
33
-5.206710
0
3DFACE
8
0
70
0
10
-3.012225
20
0.708581
30
-4.968716
11
-2.185951
21
0.708581
31
-5.206710
12
-2.200000
22
0.708581
32
-5.100000
13
-2.200000
23
0.708581
33
-5.100000
0
3DFACE
8
0
70
0
10
-3.012225
20
0.708581
30
-4.968716
11
-2.200000
21
0.708581
31
-5.100000
12
-2.182963
22
0.708581
32
-4.970591
13
-2.182963
23
0.708581
33
-4.970591
0
3DFACE
8
0
70
0
10
-2.182186
20
0.708581
30
-4.968716
11
-3.012225
21
0.708581
31
-4.968716
12
-2.182963
22
0.708581
32
-4.970591
13
-2.182963
23
0.708581
33
-4.970591
0
3DFACE
8
0
70
0
10
-1.911991
20
0.708581
30
-2.133527
11
-2.770919
21
0.708581
31
-2.158343
12
-2.120304
22
0.708581
32
-4.833437
13
-2.120304
23
0.708581
33
-4.833437
0
3DFACE
8
0
70
0
10
-2.770919
20
0.708581
30
-2.158343
11
-3.012225
21
0.708581
31
-4.968716
12
-2.120304
22
0.708581
32
-4.833437
13
-2.120304
23
0.708581
33
-4.833437
0
3DFACE
8
0
70
0
10
-2.133013
20
0.708581
30
-4.850000
11
-3.012225
21
0.708581
31
-4.968716
12
-2.182186
22
0.708581
32
-4.968716
13
-2.182186
23
0.708581
33
-4.968716
0
3DFACE
8
0
70
0
10
-2.120304
20
0.708581
30
-4.833437
11
-3.012225
21
0.708581
31
-4.968716
12
-2.133013
22
0.708581
32
-4.850000
13
-2.133013
23
0.708581
33
-4.850000
0
3DFACE
8
0
70
0
10
-1.262426
20
0.495861
30
-5.338988
11
-0.648878
21
0.495861
31
-6.147992
12
-1.342959
22
0.495861
32
-6.147992
13
-1.342959
23
0.495861
33
-6.147992
0
3DFACE
8
0
70
0
10
-0.367775
20
0.495861
30
-5.206710
11
-0.648878
21
0.495861
31
-6.147992
12
-1.262426
22
0.495861
32
-5.338988
13
-1.262426
23
0.495861
33
-5.338988
0
3DFACE
8
0
70
0
10
-0.367775
20
0.495861
30
-5.206710
11
-1.262426
21
0.495861
31
-5.338988
12
-1.217037
22
0.495861
32
-5.229410
13
-1.217037
23
0.495861
33
-5.229410
0
3DFACE
8
0
70
0
10
-0.367775
20
0.495861
30
-5.206710
11
-1.217037
21
0.495861
31
-5.229410
12
-1.214049
22
0.495861
32
-5.206710
13
-1.214049
23
0.495861
33
-5.206710
0
3DFACE
8
0
70
0
10
-0.367775
20
0.495861
30
-4.968716
11
-0.367775
21
0.495861
31
-5.206710
12
-1.214049
22
0.495861
32
-5.206710
13
-1.214049
23
0.495861
33
-5.206710
0
3DFACE
8
0
70
0
10
-0.367775
20
0.495861
30
-4.968716
11
-1.214049
21
0.495861
31
-5.206710
12
-1.200000
22
0.495861
32
-5.100000
13
-1.200000
23
0.495861
33
-5.100000
0
3DFACE
8
0
70
0
10
-0.367775
20
0.495861
30
-4.968716
11
-1.200000
21
0.495861
31
-5.100000
12
-1.217037
22
0.495861
32
-4.970591
13
-1.217037
23
0.495861
33
-4.970591
0
3DFACE
8
0
70
0
10
-0.367775
20
0.495861
30
-4.968716
11
-1.217037
21
0.495861
31
-4.970591
12
-1.217814
22
0.495861
32
-4.968716
13
-1.217814
23
0.495861
33
-4.968716
0
3DFACE
8
0
70
0
10
-1.468009
20
0.495861
30
-2.133527
11
-0.609081
21
0.495861
31
-2.158343
12
-1.256456
22
0.495861
32
-4.875424
13
-1.256456
23
0.495861
33
-4.875424
0
3DFACE
8
0
70
0
10
-0.609081
20
0.495861
30
-2.158343
11
-0.367775
21
0.495861
31
-4.968716
12
-1.256456
22
0.495861
32
-4.875424
13
-1.256456
23
0.495861
33
-4.875424
0
3DFACE
8
0
70
0
10
-1.256456
20
0.495861
30
-4.875424
11
-0.367775
21
0.495861
31
-4.968716
12
-1.217814
22
0.495861
32
-4.968716
13
-1.217814
23
0.495861
33
-4.968716
0
3DFACE
8
0
70
0
10
-2.114012
20
0.495861
30
-5.374762
11
-2.053553
21
0.495861
31
-5.453553
12
-2.037040
22
0.495861
32
-6.147992
13
-2.037040
23
0.495861
33
-6.147992
0
3DFACE
8
0
70
0
10
-2.053553
20
0.495861
30
-5.453553
11
-1.342959
21
0.495861
31
-6.147992
12
-2.037040
22
0.495861
32
-6.147992
13
-2.037040
23
0.495861
33
-6.147992
0
3DFACE
8
0
70
0
10
-2.053553
20
0.495861
30
-5.453553
11
-1.950000
21
0.495861
31
-5.533013
12
-1.342959
22
0.495861
32
-6.147992
13
-1.342959
23
0.495861
33
-6.147992
0
3DFACE
8
0
70
0
10
-1.950000
20
0.495861
30
-5.533013
11
-1.829409
21
0.495861
31
-5.582963
12
-1.342959
22
0.495861
32
-6.147992
13
-1.342959
23
0.495861
33
-6.147992
0
3DFACE
8
0
70
0
10
-1.829409
20
0.495861
30
-5.582963
11
-1.700000
21
0.495861
31
-5.600000
12
-1.342959
22
0.495861
32
-6.147992
13
-1.342959
23
0.495861
33
-6.147992
0
3DFACE
8
0
70
0
10
-1.570590
20
0.495861
30
-5.582963
11
-1.342959
21
0.495861
31
-6.147992
12
-1.700000
22
0.495861
32
-5.600000
13
-1.700000
23
0.495861
33
-5.600000
0
3DFACE
8
0
70
0
10
-1.450000
20
0.495861
30
-5.533013
11
-1.342959
21
0.495861
31
-6.147992
12
-1.570590
22
0.495861
32
-5.582963
13
-1.570590
23
0.495861
33
-5.582963
0
3DFACE
8
0
70
0
10
-1.346447
20
0.495861
30
-5.453553
11
-1.342959
21
0.495861
31
-6.147992
12
-1.450000
22
0.495861
32
-5.533013
13
-1.450000
23
0.495861
33
-5.533013
0
3DFACE
8
0
70
0
10
-1.266987
20
0.495861
30
-5.350000
11
-1.342959
21
0.495861
31
-6.147992
12
-1.346447
22
0.495861
32
-5.453553
13
-1.346447
23
0.495861
33
-5.453553
0
3DFACE
8
0
70
0
10
-1.262426
20
0.495861
30
-5.338988
11
-1.342959
21
0.495861
31
-6.147992
12
-1.266987
22
0.495861
32
-5.350000
13
-1.266987
23
0.495861
33
-5.350000
0
3DFACE
8
0
70
0
10
-1.468009
20
0.495861
30
-2.133527
11
-2.120304
21
0.495861
31
-4.833437
12
-1.911991
22
0.495861
32
-2.133527
13
-1.911991
23
0.495861
33
-2.133527
0
3DFACE
8
0
70
0
10
-1.468009
20
0.495861
30
-2.133527
11
-2.053553
21
0.495861
31
-4.746447
12
-2.120304
22
0.495861
32
-4.833437
13
-2.120304
23
0.495861
33
-4.833437
0
3DFACE
8
0
70
0
10
-1.468009
20
0.495861
30
-2.133527
11
-1.950000
21
0.495861
31
-4.666987
12
-2.053553
22
0.495861
32
-4.746447
13
-2.053553
23
0.495861
33
-4.746447
0
3DFACE
8
0
70
0
10
-1.468009
20
0.495861
30
-2.133527
11
-1.829409
21
0.495861
31
-4.617037
12
-1.950000
22
0.495861
32
-4.666987
13
-1.950000
23
0.495861
33
-4.666987
0
3DFACE
8
0
70
0
10
-1.468009
20
0.495861
30
-2.133527
11
-1.700000
21
0.495861
31
-4.600000
12
-1.829409
22
0.495861
32
-4.617037
13
-1.829409
23
0.495861
33
-4.617037
0
3DFACE
8
0
70
0
10
-1.468009
20
0.495861
30
-2.133527
11
-1.570590
21
0.495861
31
-4.617037
12
-1.700000
22
0.495861
32
-4.600000
13
-1.700000
23
0.495861
33
-4.600000
0
3DFACE
8
0
70
0
10
-1.468009
20
0.495861
30
-2.133527
11
-1.450000
21
0.495861
31
-4.666987
12
-1.570590
22
0.495861
32
-4.617037
13
-1.570590
23
0.495861
33
-4.617037
0
3DFACE
8
0
70
0
10
-1.468009
20
0.495861
30
-2.133527
11
-1.346447
21
0.495861
31
-4.746447
12
-1.450000
22
0.495861
32
-4.666987
13
-1.450000
23
0.495861
33
-4.666987
0
3DFACE
8
0
70
0
10
-1.468009
20
0.495861
30
-2.133527
11
-1.256456
21
0.495861
31
-4.875424
12
-1.266987
22
0.495861
32
-4.850000
13
-1.266987
23
0.495861
33
-4.850000
0
3DFACE
8
0
70
0
10
-1.468009
20
0.495861
30
-2.133527
11
-1.266987
21
0.495861
31
-4.850000
12
-1.346447
22
0.495861
32
-4.746447
13
-1.346447
23
0.495861
33
-4.746447
0
3DFACE
8
0
70
0
10
-2.114012
20
0.495861
30
-5.374762
11
-2.037040
21
0.495861
31
-6.147992
12
-2.731122
22
0.495861
32
-6.147992
13
-2.731122
23
0.495861
33
-6.147992
0
3DFACE
8
0
70
0
10
-3.012225
20
0.495861
30
-5.206710
11
-2.114012
21
0.495861
31
-5.374762
12
-2.731122
22
0.495861
32
-6.147992
13
-2.731122
23
0.495861
33
-6.147992
0
3DFACE
8
0
70
0
10
-2.185951
20
0.495861
30
-5.206710
11
-2.182963
21
0.495861
31
-5.229410
12
-3.012225
22
0.495861
32
-5.206710
13
-3.012225
23
0.495861
33
-5.206710
0
3DFACE
8
0
70
0
10
-3.012225
20
0.495861
30
-5.206710
11
-2.182963
21
0.495861
31
-5.229410
12
-2.133013
22
0.495861
32
-5.350000
13
-2.133013
23
0.495861
33
-5.350000
0
3DFACE
8
0
70
0
10
-3.012225
20
0.495861
30
-5.206710
11
-2.133013
21
0.495861
31
-5.350000
12
-2.114012
22
0.495861
32
-5.374762
13
-2.114012
23
0.495861
33
-5.374762
0
3DFACE
8
0
70
0
10
-3.012225
20
0.495861
30
-4.968716
11
-2.185951
21
0.495861
31
-5.206710
12
-3.012225
22
0.495861
32
-5.206710
13
-3.012225
23
0.495861
33
-5.206710
0
3DFACE
8
0
70
0
10
-3.012225
20
0.495861
30
-4.968716
11
-2.200000
21
0.495861
31
-5.100000
12
-2.185951
22
0.495861
32
-5.206710
13
-2.185951
23
0.495861
33
-5.206710
0
3DFACE
8
0
70
0
10
-2.182186
20
0.495861
30
-4.968716
11
-2.182963
21
0.495861
31
-4.970591
12
-3.012225
22
0.495861
32
-4.968716
13
-3.012225
23
0.495861
33
-4.968716
0
3DFACE
8
0
70
0
10
-3.012225
20
0.495861
30
-4.968716
11
-2.182963
21
0.495861
31
-4.970591
12
-2.200000
22
0.495861
32
-5.100000
13
-2.200000
23
0.495861
33
-5.100000
0
3DFACE
8
0
70
0
10
-1.911991
20
0.495861
30
-2.133527
11
-2.120304
21
0.495861
31
-4.833437
12
-2.770919
22
0.495861
32
-2.158343
13
-2.770919
23
0.495861
33
-2.158343
0
3DFACE
8
0
70
0
10
-2.770919
20
0.495861
30
-2.158343
11
-2.120304
21
0.495861
31
-4.833437
12
-3.012225
22
0.495861
32
-4.968716
13
-3.012225
23
0.495861
33
-4.968716
0
3DFACE
8
0
70
0
10
-2.120304
20
0.495861
30
-4.833437
11
-2.133013
21
0.495861
31
-4.850000
12
-3.012225
22
0.495861
32
-4.968716
13
-3.012225
23
0.495861
33
-4.968716
0
3DFACE
8
0
70
0
10
-2.133013
20
0.495861
30
-4.850000
11
-2.182186
21
0.495861
31
-4.968716
12
-3.012225
22
0.495861
32
-4.968716
13
-3.012225
23
0.495861
33
-4.968716
0
3DFACE
8
0
70
0
10
-1.200000
20
0.495861
30
-5.100000
11
-1.214049
21
0.495861
31
-5.206710
12
-1.200000
22
0.708581
32
-5.100000
13
-1.200000
23
0.708581
33
-5.100000
0
3DFACE
8
0
70
0
10
-1.214049
20
0.495861
30
-5.206710
11
-1.217037
21
0.495861
31
-5.229410
12
-1.217037
22
0.708581
32
-5.229410
13
-1.217037
23
0.708581
33
-5.229410
0
3DFACE
8
0
70
0
10
-1.214049
20
0.495861
30
-5.206710
11
-1.217037
21
0.708581
31
-5.229410
12
-1.214049
22
0.708581
32
-5.206710
13
-1.214049
23
0.708581
33
-5.206710
0
3DFACE
8
0
70
0
10
-1.214049
20
0.495861
30
-5.206710
11
-1.214049
21
0.708581
31
-5.206710
12
-1.200000
22
0.708581
32
-5.100000
13
-1.200000
23
0.708581
33
-5.100000
0
3DFACE
8
0
70
0
10
-1.217037
20
0.495861
30
-5.229410
11
-1.262426
21
0.708581
31
-5.338988
12
-1.217037
22
0.708581
32
-5.229410
13
-1.217037
23
0.708581
33
-5.229410
0
3DFACE
8
0
70
0
10
-1.217037
20
0.495861
30
-5.229410
11
-1.262426
21
0.495861
31
-5.338988
12
-1.262426
22
0.708581
32
-5.338988
13
-1.262426
23
0.708581
33
-5.338988
0
3DFACE
8
0
70
0
10
-1.262426
20
0.495861
30
-5.338988
11
-1.266987
21
0.495861
31
-5.350000
12
-1.262426
22
0.708581
32
-5.338988
13
-1.262426
23
0.708581
33
-5.338988
0
3DFACE
8
0
70
0
10
-1.266987
20
0.495861
30
-5.350000
11
-1.266987
21
0.708581
31
-5.350000
12
-1.262426
22
0.708581
32
-5.338988
13
-1.262426
23
0.708581
33
-5.338988
0
3DFACE
8
0
70
0
10
-1.346447
20
0.495861
30
-5.453553
11
-1.346447
21
0.708581
31
-5.453553
12
-1.266987
22
0.708581
32
-5.350000
13
-1.266987
23
0.708581
33
-5.350000
0
3DFACE
8
0
70
0
10
-1.266987
20
0.495861
30
-5.350000
11
-1.346447
21
0.495861
31
-5.453553
12
-1.266987
22
0.708581
32
-5.350000
13
-1.266987
23
0.708581
33
-5.350000
0
3DFACE
8
0
70
0
10
-1.450000
20
0.495861
30
-5.533013
11
-1.450000
21
0.708581
31
-5.533013
12
-1.346447
22
0.708581
32
-5.453553
13
-1.346447
23
0.708581
33
-5.453553
0
3DFACE
8
0
70
0
10
-1.346447
20
0.495861
30
-5.453553
11
-1.450000
21
0.495861
31
-5.533013
12
-1.346447
22
0.708581
32
-5.453553
13
-1.346447
23
0.708581
33
-5.453553
0
3DFACE
8
0
70
0
10
-1.570590
20
0.495861
30
-5.582963
11
-1.570590
21
0.708581
31
-5.582963
12
-1.450000
22
0.708581
32
-5.533013
13
-1.450000
23
0.708581
33
-5.533013
0
3DFACE
8
0
70
0
10
-1.450000
20
0.495861
30
-5.533013
11
-1.570590
21
0.495861
31
-5.582963
12
-1.450000
22
0.708581
32
-5.533013
13
-1.450000
23
0.708581
33
-5.533013
0
3DFACE
8
0
70
0
10
-1.700000
20
0.495861
30
-5.600000
11
-1.700000
21
0.708581
31
-5.600000
12
-1.570590
22
0.708581
32
-5.582963
13
-1.570590
23
0.708581
33
-5.582963
0
3DFACE
8
0
70
0
10
-1.570590
20
0.495861
30
-5.582963
11
-1.700000
21
0.495861
31
-5.600000
12
-1.570590
22
0.708581
32
-5.582963
13
-1.570590
23
0.708581
33
-5.582963
0
3DFACE
8
0
70
0
10
-1.829409
20
0.495861
30
-5.582963
11
-1.829409
21
0.708581
31
-5.582963
12
-1.700000
22
0.708581
32
-5.600000
13
-1.700000
23
0.708581
33
-5.600000
0
3DFACE
8
0
70
0
10
-1.829409
20
0.495861
30
-5.582963
11
-1.700000
21
0.708581
31
-5.600000
12
-1.700000
22
0.495861
32
-5.600000
13
-1.700000
23
0.495861
33
-5.600000
0
3DFACE
8
0
70
0
10
-1.950000
20
0.495861
30
-5.533013
11
-1.950000
21
0.708581
31
-5.533013
12
-1.829409
22
0.708581
32
-5.582963
13
-1.829409
23
0.708581
33
-5.582963
0
3DFACE
8
0
70
0
10
-1.950000
20
0.495861
30
-5.533013
11
-1.829409
21
0.708581
31
-5.582963
12
-1.829409
22
0.495861
32
-5.582963
13
-1.829409
23
0.495861
33
-5.582963
0
3DFACE
8
0
70
0
10
-2.053553
20
0.495861
30
-5.453553
11
-2.053553
21
0.708581
31
-5.453553
12
-1.950000
22
0.708581
32
-5.533013
13
-1.950000
23
0.708581
33
-5.533013
0
3DFACE
8
0
70
0
10
-2.053553
20
0.495861
30
-5.453553
11
-1.950000
21
0.708581
31
-5.533013
12
-1.950000
22
0.495861
32
-5.533013
13
-1.950000
23
0.495861
33
-5.533013
0
3DFACE
8
0
70
0
10
-2.053553
20
0.495861
30
-5.453553
11
-2.114012
21
0.708581
31
-5.374762
12
-2.053553
22
0.708581
32
-5.453553
13
-2.053553
23
0.708581
33
-5.453553
0
3DFACE
8
0
70
0
10
-2.114012
20
0.495861
30
-5.374762
11
-2.114012
21
0.708581
31
-5.374762
12
-2.053553
22
0.495861
32
-5.453553
13
-2.053553
23
0.495861
33
-5.453553
0
3DFACE
8
0
70
0
10
-2.133013
20
0.495861
30
-5.350000
11
-2.114012
21
0.708581
31
-5.374762
12
-2.114012
22
0.495861
32
-5.374762
13
-2.114012
23
0.495861
33
-5.374762
0
3DFACE
8
0
70
0
10
-2.133013
20
0.495861
30
-5.350000
11
-2.133013
21
0.708581
31
-5.350000
12
-2.114012
22
0.708581
32
-5.374762
13
-2.114012
23
0.708581
33
-5.374762
0
3DFACE
8
0
70
0
10
-2.182963
20
0.495861
30
-5.229410
11
-2.182963
21
0.708581
31
-5.229410
12
-2.133013
22
0.708581
32
-5.350000
13
-2.133013
23
0.708581
33
-5.350000
0
3DFACE
8
0
70
0
10
-2.182963
20
0.495861
30
-5.229410
11
-2.133013
21
0.708581
31
-5.350000
12
-2.133013
22
0.495861
32
-5.350000
13
-2.133013
23
0.495861
33
-5.350000
0
3DFACE
8
0
70
0
10
-2.200000
20
0.495861
30
-5.100000
11
-2.200000
21
0.708581
31
-5.100000
12
-2.185951
22
0.708581
32
-5.206710
13
-2.185951
23
0.708581
33
-5.206710
0
3DFACE
8
0
70
0
10
-2.182963
20
0.495861
30
-5.229410
11
-2.185951
21
0.708581
31
-5.206710
12
-2.182963
22
0.708581
32
-5.229410
13
-2.182963
23
0.708581
33
-5.229410
0
3DFACE
8
0
70
0
10
-2.185951
20
0.495861
30
-5.206710
11
-2.185951
21
0.708581
31
-5.206710
12
-2.182963
22
0.495861
32
-5.229410
13
-2.182963
23
0.495861
33
-5.229410
0
3DFACE
8
0
70
0
10
-2.200000
20
0.495861
30
-5.100000
11
-2.185951
21
0.708581
31
-5.206710
12
-2.185951
22
0.495861
32
-5.206710
13
-2.185951
23
0.495861
33
-5.206710
0
3DFACE
8
0
70
0
10
-2.182963
20
0.495861
30
-4.970591
11
-2.182963
21
0.708581
31
-4.970591
12
-2.200000
22
0.708581
32
-5.100000
13
-2.200000
23
0.708581
33
-5.100000
0
3DFACE
8
0
70
0
10
-2.182963
20
0.495861
30
-4.970591
11
-2.200000
21
0.708581
31
-5.100000
12
-2.200000
22
0.495861
32
-5.100000
13
-2.200000
23
0.495861
33
-5.100000
0
3DFACE
8
0
70
0
10
-2.133013
20
0.495861
30
-4.850000
11
-2.133013
21
0.708581
31
-4.850000
12
-2.182186
22
0.708581
32
-4.968716
13
-2.182186
23
0.708581
33
-4.968716
0
3DFACE
8
0
70
0
10
-2.182963
20
0.495861
30
-4.970591
11
-2.182186
21
0.708581
31
-4.968716
12
-2.182963
22
0.708581
32
-4.970591
13
-2.182963
23
0.708581
33
-4.970591
0
3DFACE
8
0
70
0
10
-2.182186
20
0.495861
30
-4.968716
11
-2.182186
21
0.708581
31
-4.968716
12
-2.182963
22
0.495861
32
-4.970591
13
-2.182963
23
0.495861
33
-4.970591
0
3DFACE
8
0
70
0
10
-2.133013
20
0.495861
30
-4.850000
11
-2.182186
21
0.708581
31
-4.968716
12
-2.182186
22
0.495861
32
-4.968716
13
-2.182186
23
0.495861
33
-4.968716
0
3DFACE
8
0
70
0
10
-2.053553
20
0.495861
30
-4.746447
11
-2.053553
21
0.708581
31
-4.746447
12
-2.120304
22
0.708581
32
-4.833437
13
-2.120304
23
0.708581
33
-4.833437
0
3DFACE
8
0
70
0
10
-2.133013
20
0.495861
30
-4.850000
11
-2.120304
21
0.708581
31
-4.833437
12
-2.133013
22
0.708581
32
-4.850000
13
-2.133013
23
0.708581
33
-4.850000
0
3DFACE
8
0
70
0
10
-2.120304
20
0.495861
30
-4.833437
11
-2.120304
21
0.708581
31
-4.833437
12
-2.133013
22
0.495861
32
-4.850000
13
-2.133013
23
0.495861
33
-4.850000
0
3DFACE
8
0
70
0
10
-2.053553
20
0.495861
30
-4.746447
11
-2.120304
21
0.708581
31
-4.833437
12
-2.120304
22
0.495861
32
-4.833437
13
-2.120304
23
0.495861
33
-4.833437
0
3DFACE
8
0
70
0
10
-1.950000
20
0.495861
30
-4.666987
11
-1.950000
21
0.708581
31
-4.666987
12
-2.053553
22
0.708581
32
-4.746447
13
-2.053553
23
0.708581
33
-4.746447
0
3DFACE
8
0
70
0
10
-1.950000
20
0.495861
30
-4.666987
11
-2.053553
21
0.708581
31
-4.746447
12
-2.053553
22
0.495861
32
-4.746447
13
-2.053553
23
0.495861
33
-4.746447
0
3DFACE
8
0
70
0
10
-1.829409
20
0.495861
30
-4.617037
11
-1.829409
21
0.708581
31
-4.617037
12
-1.950000
22
0.708581
32
-4.666987
13
-1.950000
23
0.708581
33
-4.666987
0
3DFACE
8
0
70
0
10
-1.829409
20
0.495861
30
-4.617037
11
-1.950000
21
0.708581
31
-4.666987
12
-1.950000
22
0.495861
32
-4.666987
13
-1.950000
23
0.495861
33
-4.666987
0
3DFACE
8
0
70
0
10
-1.700000
20
0.495861
30
-4.600000
11
-1.700000
21
0.708581
31
-4.600000
12
-1.829409
22
0.708581
32
-4.617037
13
-1.829409
23
0.708581
33
-4.617037
0
3DFACE
8
0
70
0
10
-1.700000
20
0.495861
30
-4.600000
11
-1.829409
21
0.708581
31
-4.617037
12
-1.829409
22
0.495861
32
-4.617037
13
-1.829409
23
0.495861
33
-4.617037
0
3DFACE
8
0
70
0
10
-1.570590
20
0.495861
30
-4.617037
11
-1.570590
21
0.708581
31
-4.617037
12
-1.700000
22
0.708581
32
-4.600000
13
-1.700000
23
0.708581
33
-4.600000
0
3DFACE
8
0
70
0
10
-1.700000
20
0.495861
30
-4.600000
11
-1.570590
21
0.495861
31
-4.617037
12
-1.700000
22
0.708581
32
-4.600000
13
-1.700000
23
0.708581
33
-4.600000
0
3DFACE
8
0
70
0
10
-1.450000
20
0.495861
30
-4.666987
11
-1.450000
21
0.708581
31
-4.666987
12
-1.570590
22
0.708581
32
-4.617037
13
-1.570590
23
0.708581
33
-4.617037
0
3DFACE
8
0
70
0
10
-1.570590
20
0.495861
30
-4.617037
11
-1.450000
21
0.495861
31
-4.666987
12
-1.570590
22
0.708581
32
-4.617037
13
-1.570590
23
0.708581
33
-4.617037
0
3DFACE
8
0
70
0
10
-1.346447
20
0.495861
30
-4.746447
11
-1.346447
21
0.708581
31
-4.746447
12
-1.450000
22
0.708581
32
-4.666987
13
-1.450000
23
0.708581
33
-4.666987
0
3DFACE
8
0
70
0
10
-1.450000
20
0.495861
30
-4.666987
11
-1.346447
21
0.495861
31
-4.746447
12
-1.450000
22
0.708581
32
-4.666987
13
-1.450000
23
0.708581
33
-4.666987
0
3DFACE
8
0
70
0
10
-1.266987
20
0.495861
30
-4.850000
11
-1.266987
21
0.708581
31
-4.850000
12
-1.346447
22
0.708581
32
-4.746447
13
-1.346447
23
0.708581
33
-4.746447
0
3DFACE
8
0
70
0
10
-1.346447
20
0.495861
30
-4.746447
11
-1.266987
21
0.495861
31
-4.850000
12
-1.346447
22
0.708581
32
-4.746447
13
-1.346447
23
0.708581
33
-4.746447
0
3DFACE
8
0
70
0
10
-1.266987
20
0.495861
30
-4.850000
11
-1.256456
21
0.495861
31
-4.875424
12
-1.266987
22
0.708581
32
-4.850000
13
-1.266987
23
0.708581
33
-4.850000
0
3DFACE
8
0
70
0
10
-1.256456
20
0.495861
30
-4.875424
11
-1.217814
21
0.495861
31
-4.968716
12
-1.266987
22
0.708581
32
-4.850000
13
-1.266987
23
0.708581
33
-4.850000
0
3DFACE
8
0
70
0
10
-1.217814
20
0.495861
30
-4.968716
11
-1.256456
21
0.708581
31
-4.875424
12
-1.266987
22
0.708581
32
-4.850000
13
-1.266987
23
0.708581
33
-4.850000
0
3DFACE
8
0
70
0
10
-1.217814
20
0.495861
30
-4.968716
11
-1.217037
21
0.495861
31
-4.970591
12
-1.217037
22
0.708581
32
-4.970591
13
-1.217037
23
0.708581
33
-4.970591
0
3DFACE
8
0
70
0
10
-1.217814
20
0.495861
30
-4.968716
11
-1.217037
21
0.708581
31
-4.970591
12
-1.217814
22
0.708581
32
-4.968716
13
-1.217814
23
0.708581
33
-4.968716
0
3DFACE
8
0
70
0
10
-1.217814
20
0.495861
30
-4.968716
11
-1.217814
21
0.708581
31
-4.968716
12
-1.256456
22
0.708581
32
-4.875424
13
-1.256456
23
0.708581
33
-4.875424
0
3DFACE
8
0
70
0
10
-1.200000
20
0.495861
30
-5.100000
11
-1.200000
21
0.708581
31
-5.100000
12
-1.217037
22
0.708581
32
-4.970591
13
-1.217037
23
0.708581
33
-4.970591
0
3DFACE
8
0
70
0
10
-1.217037
20
0.495861
30
-4.970591
11
-1.200000
21
0.495861
31
-5.100000
12
-1.217037
22
0.708581
32
-4.970591
13
-1.217037
23
0.708581
33
-4.970591
0
ENDSEC
0
EOF
